<svg width="90" height="90" viewBox="0 0 90 90" fill="none" xmlns="http://www.w3.org/2000/svg">
<path d="M10.7385 75.0565C8.12843 75.0366 5.99648 72.8848 5.97656 70.2647V5.78823C5.99648 3.16813 8.12843 1.01626 10.7385 0.996338H49.1933C49.273 0.996338 49.3527 0.996338 49.4324 1.02622L49.5818 1.05611L49.6715 1.01626L49.8109 0.996338C50.0002 0.996338 50.1696 1.06607 50.3091 1.21551L65.8703 16.8365C66.0396 17.0059 66.1094 17.245 66.0596 17.484L66.0197 17.6534L66.0596 17.7431C66.0795 17.8028 66.0795 17.8825 66.0795 17.9622V43.7947C66.0795 44.2031 65.7607 44.5119 65.3622 44.5119C64.9637 44.5119 64.6449 44.1931 64.6449 43.7947V18.0818H55.2105C51.8433 18.0619 49.1036 15.3023 49.1036 11.9251V2.44088H10.7385C8.90549 2.45084 7.41114 3.96512 7.41114 5.78823V70.2547C7.41114 72.0878 8.90549 73.5921 10.7385 73.612H42.2395C42.638 73.612 42.9568 73.9308 42.9568 74.3293C42.9568 74.7278 42.638 75.0466 42.2395 75.0466H10.7385V75.0565ZM50.5482 11.9251C50.5482 14.5053 52.6502 16.6173 55.2305 16.6372H63.6387L50.5482 3.467V11.9251Z" fill="white"/>
<path d="M21.5994 34.4697C16.3094 34.4697 12.0156 30.1759 12.0156 24.8959C12.0156 19.6158 16.3194 15.322 21.5994 15.322C22.0079 15.322 22.3267 15.6408 22.3267 16.0493V24.1586H30.456C30.8644 24.1586 31.1832 24.4774 31.1832 24.8859C31.1832 30.1759 26.8895 34.4697 21.5994 34.4697ZM19.9557 16.9459C16.1998 17.713 13.4702 21.0504 13.4702 24.8959C13.4702 29.369 17.1164 33.0052 21.5994 33.0052C25.4449 33.0052 28.8022 30.2855 29.5693 26.5396L29.7686 25.6231H21.6094C21.2009 25.6231 20.8822 25.3043 20.8822 24.8959V16.7466L19.9557 16.9459Z" fill="white"/>
<path d="M26.6178 20.6121C26.2094 20.6121 25.8906 20.2933 25.8906 19.8849V11.0383C25.8906 10.6298 26.2094 10.311 26.6178 10.311C31.9079 10.311 36.2016 14.6048 36.2016 19.8849C36.2016 20.2933 35.8828 20.6121 35.4744 20.6121H26.6178ZM34.787 19.1477L34.6077 18.2311C33.9501 15.0631 31.4695 12.5825 28.2915 11.9249L27.375 11.7456V19.1477H34.787Z" fill="white"/>
<path d="M58.289 23.6108H43.7539V25.0653H58.289V23.6108Z" fill="white"/>
<path d="M58.289 31.1423H43.7539V32.5968H58.289V31.1423Z" fill="white"/>
<path d="M13.8959 55.0022H12.4414V63.53H13.8959V55.0022Z" fill="white"/>
<path d="M23.0522 50.4294H21.5977V63.51H23.0522V50.4294Z" fill="white"/>
<path d="M32.1889 45.8667H30.7344V63.52H32.1889V45.8667Z" fill="white"/>
<path d="M79.3119 90C78.8835 90 78.485 89.8306 78.1961 89.5218L73.2747 84.4609C72.9858 84.172 72.8264 83.7536 72.8463 83.3352C72.8463 82.9167 73.0156 82.5282 73.3245 82.2393L73.8624 81.7013L67.3271 75.0266L66.819 75.3553C64.3982 76.9294 61.6087 77.7562 58.7296 77.7562C50.5206 77.7562 43.8359 71.0416 43.8359 62.7928C43.8359 54.5439 50.5206 47.8193 58.7296 47.8193C66.9386 47.8193 73.6233 54.534 73.6233 62.7928C73.6233 66.9172 71.9895 70.7627 69.0207 73.6019L68.4728 74.1299L74.8886 80.7051L75.4763 80.1273C75.7553 79.8483 76.1438 79.6889 76.5622 79.6889C76.9906 79.6889 77.3891 79.8583 77.678 80.1671L82.5994 85.228C82.8883 85.5169 83.0477 85.9353 83.0278 86.3538C83.0278 86.7722 82.8585 87.1607 82.5496 87.4496L80.3778 89.5816C80.0889 89.8506 79.7004 90 79.3119 90ZM79.3119 88.5953L81.663 86.284L76.5722 81.0538L74.2211 83.3651L79.3119 88.5953ZM45.4697 65.124C46.5954 71.6095 52.1644 76.3217 58.7296 76.3217C65.2649 76.3217 70.8339 71.6394 71.9696 65.1837L72.139 64.2971H65.4442C65.2649 64.2971 65.0956 64.2373 64.9461 64.1078L61.3796 60.6907L59.3074 66.8475C59.2377 67.0766 59.0484 67.2559 58.7894 67.3256C58.7097 67.3456 58.6698 67.3456 58.62 67.3456C58.4108 67.3456 58.2215 67.2659 58.102 67.1164L55.2527 64.2473H45.3203L45.4697 65.124ZM55.5616 62.7828C55.7708 62.7828 55.9601 62.8625 56.0796 63.0119L58.3311 65.2734L60.3834 59.1565C60.4531 58.9274 60.6324 58.758 60.8815 58.6783C60.9313 58.6484 61.011 58.6484 61.0608 58.6484C61.2401 58.6484 61.4095 58.7082 61.5589 58.8377L65.7431 62.8326H72.2286L72.1888 62.0356C71.8102 54.8627 65.9025 49.234 58.7495 49.234C51.6264 49.234 45.7287 54.8328 45.3103 61.9759L45.2605 62.7728H55.5616V62.7828Z" fill="#FD0037"/>
</svg>
