<svg width="21" height="20" viewBox="0 0 21 20" fill="none" xmlns="http://www.w3.org/2000/svg">
<g clip-path="url(#clip0_376_209)">
<path d="M10.5664 15.4423C8.31738 15.4423 5.89687 14.5627 3.56659 12.8986C1.82457 11.6547 0.749376 10.4223 0.704448 10.3703C0.520392 10.1578 0.520392 9.84236 0.704448 9.6298C0.749376 9.57795 1.82453 8.34544 3.56659 7.10148C5.89692 5.43751 8.31742 4.55786 10.5664 4.55786C12.8154 4.55786 15.236 5.43747 17.5662 7.10148C19.3082 8.34544 20.3834 9.5779 20.4284 9.6298C20.6124 9.84231 20.6124 10.1578 20.4284 10.3703C20.3834 10.4222 19.3083 11.6547 17.5662 12.8986C15.236 14.5627 12.8155 15.4423 10.5664 15.4423ZM1.90737 10.0001C2.34217 10.4435 3.16278 11.2231 4.24625 11.9941C5.73164 13.0511 8.03388 14.3112 10.5664 14.3112C13.0989 14.3112 15.4012 13.0511 16.8866 11.9941C17.9699 11.2232 18.7905 10.4435 19.2254 10.0001C18.7907 9.55678 17.97 8.77716 16.8866 8.00615C15.4012 6.94914 13.0989 5.68907 10.5664 5.68907C8.03388 5.68907 5.73164 6.94914 4.24625 8.00615C3.16291 8.77703 2.34226 9.55664 1.90737 10.0001Z" fill="black"/>
<path d="M10.566 13.5066C8.63255 13.5066 7.05957 11.9336 7.05957 10.0001C7.05957 8.06668 8.63255 6.49365 10.566 6.49365C11.4164 6.49365 12.2367 6.80195 12.8757 7.36181C13.1107 7.56763 13.1343 7.92493 12.9285 8.15988C12.7226 8.39484 12.3653 8.41841 12.1304 8.21264C11.6977 7.83353 11.1421 7.62477 10.566 7.62477C9.2562 7.62477 8.19064 8.69038 8.19064 10.0001C8.19064 11.3099 9.2562 12.3755 10.566 12.3755C11.8758 12.3755 12.9413 11.3099 12.9413 10.0001C12.9413 9.6878 13.1946 9.43456 13.5069 9.43456C13.8192 9.43456 14.0725 9.6878 14.0725 10.0001C14.0726 11.9336 12.4995 13.5066 10.566 13.5066Z" fill="black"/>
<path d="M10.5667 11.1311C9.94297 11.1311 9.43555 10.6237 9.43555 10C9.43555 9.37632 9.94297 8.8689 10.5667 8.8689C11.1904 8.8689 11.6978 9.37632 11.6978 10C11.6978 10.6237 11.1904 11.1311 10.5667 11.1311Z" fill="black"/>
</g>
<defs>
<clipPath id="clip0_376_209">
<rect width="20" height="20" fill="white" transform="translate(0.566406)"/>
</clipPath>
</defs>
</svg>
