<svg width="90" height="90" viewBox="0 0 90 90" fill="none" xmlns="http://www.w3.org/2000/svg">
<g clip-path="url(#clip0_104_581)">
<path d="M25.145 90C24.7565 90 24.4377 89.6712 24.4377 89.2827V86.2442C24.4377 84.1621 26.1213 82.4685 28.2035 82.4685H30.973L31.2021 82.2792C33.3042 80.5158 34.8284 78.6329 35.745 76.6704C35.8645 76.4014 36.1235 76.242 36.4025 76.242C36.7711 76.2519 36.9504 76.4811 37.0102 76.5807C37.06 76.6604 37.1995 76.9294 37.0401 77.2681C36.4523 78.5333 35.5756 79.8284 34.4299 81.1235L33.2345 82.4784H56.7456L55.5501 81.1235C54.4144 79.8284 53.5377 78.5433 52.95 77.288C52.8005 76.9792 52.9002 76.7301 52.9699 76.6006C53.0297 76.501 53.199 76.2719 53.5477 76.2519C53.8565 76.2519 54.1156 76.4113 54.2351 76.6704C55.1517 78.6329 56.6759 80.5258 58.778 82.2891L59.0071 82.4784H61.7766C63.8189 82.4784 65.5524 84.2119 65.5524 86.2542V89.2927C65.5524 89.482 65.4826 89.6712 65.3431 89.8008C65.2037 89.9402 65.0244 90.01 64.8351 90.01H25.145V90ZM64.1377 88.5754V86.2442C64.1377 84.9292 63.1116 83.8931 61.7966 83.8931H28.2035C26.8984 83.8931 25.8723 84.9292 25.8723 86.2442V88.5754H64.1377ZM3.77574 71.6693C1.6936 71.6693 0 69.9856 0 67.9035V12.9311C0 10.849 1.6936 9.16538 3.77574 9.16538H6.81426C7.28249 9.16538 7.56144 9.43436 7.56144 9.88267C7.56144 10.331 7.30241 10.6 6.85411 10.6H3.76577C2.45074 10.6 1.42462 11.6261 1.42462 12.9311V58.0407H88.5654V12.9311C88.5654 11.6261 87.5393 10.6 86.2342 10.6H83.1758C82.7076 10.6 82.4286 10.331 82.4286 9.88267C82.4286 9.43436 82.6876 9.16538 83.1359 9.16538H86.2342C88.3064 9.16538 90 10.849 90 12.9311V67.9134C90 69.9856 88.3064 71.6792 86.2342 71.6792H3.77574V71.6693ZM1.42462 67.9035C1.42462 69.2086 2.45074 70.2347 3.76577 70.2347H86.2243C87.5293 70.2347 88.5555 69.2086 88.5555 67.9035V59.4654H1.42462V67.9035ZM48.1282 65.5623H41.9416C41.5431 65.5524 41.304 65.3033 41.284 64.9048C41.2641 64.4964 41.5032 64.2174 41.9117 64.1477H48.1381C48.6163 64.1576 48.8953 64.4266 48.8953 64.8849C48.8953 65.2236 48.716 65.5823 48.2278 65.5823L48.1282 65.5623ZM77.0589 53.3784C76.8497 53.3784 76.6405 53.2987 76.5209 53.1791C76.4811 53.1293 76.3416 52.9898 76.3516 52.6511V13.6484H13.6484V52.6312C13.6484 53.0795 13.3795 53.3485 12.9311 53.3485C12.4828 53.3485 12.2139 53.0795 12.2139 52.6312V3.76577C12.2139 1.6936 13.9075 0 15.9796 0H74.0104C76.0826 0 77.7762 1.6936 77.7762 3.76577V52.6312C77.7861 52.9898 77.6467 53.1293 77.6068 53.1791C77.4773 53.3086 77.2781 53.3784 77.0589 53.3784ZM76.3516 12.2238V3.76577C76.3516 2.4607 75.3254 1.43458 74.0204 1.43458H15.9796C14.6746 1.43458 13.6484 2.4607 13.6484 3.76577V12.2238H76.3516ZM52.5814 7.54151C52.1629 7.54151 51.9039 7.29245 51.884 6.86407C51.874 6.42573 52.143 6.13682 52.6113 6.10693H70.9619C71.3903 6.11689 71.6394 6.38588 71.6394 6.81426C71.6394 7.2526 71.3803 7.52159 70.942 7.53155H52.5814V7.54151ZM31.2519 7.54151C30.8534 7.54151 30.5346 7.22271 30.5346 6.82422C30.5346 6.42573 30.8534 6.10693 31.2519 6.10693C31.6504 6.10693 31.9692 6.42573 31.9692 6.82422C31.9692 7.22271 31.6504 7.54151 31.2519 7.54151ZM25.145 7.54151C24.7465 7.54151 24.4277 7.22271 24.4277 6.82422C24.4277 6.42573 24.7465 6.10693 25.145 6.10693C25.5435 6.10693 25.8623 6.42573 25.8623 6.82422C25.8623 7.22271 25.5435 7.54151 25.145 7.54151ZM19.0381 7.54151C18.6396 7.54151 18.3208 7.22271 18.3208 6.82422C18.3208 6.42573 18.6396 6.10693 19.0381 6.10693C19.4366 6.10693 19.7554 6.42573 19.7554 6.82422C19.7554 7.22271 19.4366 7.54151 19.0381 7.54151Z" fill="white"/>
<path d="M39.8003 49.9912C39.9397 50.1805 40.1988 50.31 40.4677 50.31C40.7666 50.31 40.9858 50.1406 41.0954 49.8119L50.2707 22.3058C50.3803 22.0069 50.2608 21.7778 50.1811 21.6582C50.0914 21.5487 49.9121 21.3594 49.5933 21.3594C49.2745 21.3594 49.0055 21.5686 48.9059 21.8774L39.7405 49.3636C39.6608 49.6126 39.6807 49.8219 39.8003 49.9912Z" fill="#FD0037"/>
<path d="M32.3584 44.0437C32.5178 44.1931 32.6871 44.2728 32.8465 44.2728C33.1355 44.2728 33.4542 44.0238 33.5738 43.7249C33.7033 43.3463 33.4642 43.1072 33.255 42.9478L24.7471 35.8646L33.255 28.7614C33.6136 28.4625 33.514 28.074 33.4742 27.9644C33.3745 27.6656 33.1155 27.4862 32.7868 27.4862C32.6174 27.4862 32.468 27.546 32.3385 27.6556L23.1731 35.2967C22.9439 35.486 22.9141 35.7151 22.9141 35.8447C22.9141 35.9642 22.944 36.2033 23.1631 36.3826L32.3584 44.0437Z" fill="#FD0037"/>
<path d="M56.4773 43.695C56.5869 44.0038 56.8957 44.2529 57.1846 44.2529C57.344 44.2529 57.5034 44.1732 57.6728 44.0238L66.8282 36.3926C67.0573 36.2033 67.0872 35.9642 67.0872 35.8447C67.0872 35.7151 67.0473 35.486 66.8282 35.2967L57.6728 27.6456C57.5432 27.536 57.3938 27.4763 57.2145 27.4763C56.7164 27.5161 56.557 27.8947 56.5271 28.0043C56.4972 28.1039 56.4175 28.4725 56.7662 28.7514L65.274 35.8447L56.7463 42.9478C56.4673 43.167 56.3776 43.4061 56.4773 43.695Z" fill="#FD0037"/>
</g>
<defs>
<clipPath id="clip0_104_581">
<rect width="90" height="90" fill="white"/>
</clipPath>
</defs>
</svg>
