<svg width="178" height="51" viewBox="0 0 178 51" fill="none" xmlns="http://www.w3.org/2000/svg">
<g clip-path="url(#clip0_838_6681)">
<path d="M171.994 12.6228C170.443 10.7887 167.685 10.5631 165.872 12.1038C165.429 12.473 165.065 12.9259 164.799 13.4364C164.533 13.9469 164.371 14.5049 164.323 15.0782C164.275 15.6514 164.341 16.2286 164.517 16.7762C164.694 17.3239 164.977 17.8312 165.351 18.2689C167.574 20.8974 168.801 24.2214 168.817 27.6602C168.804 35.7262 162.25 42.2646 154.205 42.2373C152.283 42.2555 150.377 41.8873 148.601 41.1546C146.825 40.422 145.215 39.34 143.867 37.9731C141.105 35.2416 139.586 31.5824 139.594 27.6602C139.586 25.753 139.961 23.8635 140.694 22.1024C141.428 20.3413 142.507 18.744 143.867 17.404C145.215 16.037 146.825 14.9549 148.601 14.2224C150.377 13.49 152.283 13.1221 154.205 13.1408C155.651 13.1135 157.087 13.3249 158.479 13.7164C160.771 14.4458 163.212 13.1479 163.908 10.8352C164.077 10.2905 164.137 9.71778 164.083 9.15008C164.029 8.58238 163.863 8.03092 163.595 7.5275C163.326 7.02408 162.961 6.57865 162.519 6.2169C162.077 5.85515 161.568 5.58424 161.02 5.41977C158.812 4.73949 156.515 4.39003 154.205 4.38281C141.321 4.39495 130.846 14.8444 130.872 27.6602C130.846 33.9103 133.275 39.7597 137.687 44.1392C142.096 48.5592 147.959 50.9821 154.205 50.9953C160.432 50.9811 166.296 48.5592 170.723 44.1392C175.115 39.7597 177.544 33.9103 177.538 27.6602C177.538 22.15 175.573 16.8193 171.994 12.6228Z" fill="white"/>
<path d="M129.082 33.8253C127.039 32.5496 124.349 33.2011 123.076 35.2659C120.416 39.6454 115.746 42.2636 110.6 42.2383C106.703 42.2636 103.035 40.7481 100.263 37.9741C97.5158 35.2426 95.9957 31.5824 95.9886 27.6612C95.9879 25.7549 96.3652 23.8673 97.0988 22.1071C97.8323 20.3468 98.9077 18.7488 100.263 17.4049C103.034 14.6299 106.703 13.1145 110.6 13.1418C115.467 13.1145 119.997 15.5182 122.729 19.5365C123.048 20.0129 123.459 20.4211 123.938 20.7375C124.417 21.0538 124.955 21.2719 125.519 21.3792C126.083 21.4864 126.664 21.4806 127.226 21.3621C127.788 21.2435 128.32 21.0147 128.793 20.6888C130.789 19.3666 131.314 16.6573 129.948 14.639C127.809 11.4822 124.926 8.89675 121.553 7.10891C118.18 5.32106 114.419 4.38539 110.599 4.38379C97.7308 4.39492 87.2574 14.8444 87.2686 27.6602C87.2574 33.9103 89.6862 39.7597 94.0832 44.1392C98.5066 48.5582 104.37 50.9821 110.602 50.9953C118.822 50.9811 126.28 46.7989 130.586 39.8174C131.813 37.7364 131.161 35.0544 129.082 33.8253Z" fill="white"/>
<path d="M85.2463 33.8253C84.7584 33.5221 84.2148 33.3187 83.6473 33.227C83.0798 33.1353 82.4998 33.1571 81.9408 33.2912C81.3819 33.4252 80.8552 33.6689 80.3915 34.0079C79.9278 34.3469 79.5364 34.7746 79.2399 35.2659C76.5526 39.6454 71.8838 42.2646 66.7647 42.2383C62.8392 42.2646 59.1703 40.7481 56.4272 37.9742C53.6527 35.2427 52.1326 31.5835 52.1529 27.6612C52.1396 25.7531 52.5112 23.8618 53.2455 22.0998C53.9798 20.3379 55.0618 18.7413 56.4272 17.405C59.1713 14.63 62.8403 13.1145 66.7647 13.1418C69.1495 13.1308 71.4999 13.7091 73.6061 14.8249C75.7123 15.9407 77.5088 17.5594 78.8353 19.5365C80.2104 21.5386 82.9261 22.0627 84.8995 20.6888C86.9256 19.3666 87.4519 16.6584 86.1123 14.6391C83.9685 11.4869 81.0853 8.90477 77.7135 7.11731C74.3416 5.32986 70.5831 4.39116 66.7647 4.38281C53.8677 4.39495 43.3933 14.8444 43.374 27.6602C43.3933 33.9103 45.822 39.7597 50.2464 44.1392C54.6425 48.5592 60.5048 50.9821 66.7647 50.9953C74.9565 50.9811 82.416 46.7989 86.6903 39.8174C87.9498 37.7364 87.2968 35.0545 85.2463 33.8253Z" fill="white"/>
<path d="M41.8146 33.826C39.7671 32.5503 37.0778 33.2018 35.8082 35.2666C33.1442 39.6461 28.4754 42.2643 23.333 42.239C20.8946 42.2627 18.4901 41.6681 16.345 40.511L39.9081 20.2282C41.6564 18.7026 41.9332 16.1107 40.5439 14.2937C38.2468 11.2428 35.2338 8.80124 31.7696 7.18368C28.3054 5.56613 24.496 4.82203 20.6761 5.01677C18.0405 5.17156 15.4739 5.74416 13.0523 6.74571C10.8152 7.6471 9.74538 10.1914 10.6844 12.3928C10.8938 12.9248 11.207 13.41 11.6058 13.8203C12.0047 14.2306 12.4812 14.5578 13.0078 14.7829C13.5344 15.008 14.1005 15.1266 14.6734 15.1317C15.2463 15.1368 15.8145 15.0284 16.345 14.8127C17.8723 14.1893 19.4915 13.8192 21.1385 13.7171C24.6026 13.5583 27.9613 14.6175 30.6678 16.656L10.2808 34.2296C9.25059 32.1928 8.71626 29.9423 8.72116 27.6609C8.72346 24.9966 9.46283 22.3847 10.8578 20.1128C12.1011 18.0642 11.448 15.3823 9.41377 14.1207C7.32579 12.8774 4.63747 13.5279 3.40739 15.5614C1.16774 19.2008 -0.0120749 23.3904 9.31793e-05 27.6609C-0.015118 33.9109 2.4136 39.7604 6.81469 44.1399C11.234 48.5588 17.0985 50.9828 23.333 50.9959C31.5501 50.9818 39.0076 46.7996 43.2586 39.8181C44.5414 37.7371 43.8884 35.0551 41.8146 33.826ZM168.413 4.67179C168.434 1.98076 170.631 -0.0101942 173.207 0.00498075C175.794 -0.0112059 177.991 1.98076 178 4.67179C177.991 7.40835 175.794 9.39931 173.207 9.39627C170.631 9.39931 168.434 7.40734 168.413 4.67179Z" fill="white"/>
<path d="M173.207 8.58831C175.359 8.61462 177.043 6.94638 177.018 4.67013C177.043 2.45256 175.359 0.772186 173.207 0.751953C171.066 0.772186 169.382 2.45256 169.395 4.67013C169.382 6.94638 171.066 8.61563 173.207 8.58831Z" fill="black"/>
<path d="M172.225 7.37935H171.417V1.96289H173.495C174.76 1.9811 175.397 2.45355 175.402 3.51883C175.397 4.49509 174.785 4.91797 173.958 5.0161L175.516 7.37935H174.593L173.149 5.07376H172.225V7.37935Z" fill="white"/>
<path d="M173.206 4.38323C173.911 4.35794 174.535 4.30837 174.535 3.46161C174.535 2.802 173.923 2.67757 173.322 2.6543H172.224V4.38323H173.206Z" fill="black"/>
</g>
<defs>
<clipPath id="clip0_838_6681">
<rect width="178" height="51" fill="white"/>
</clipPath>
</defs>
</svg>
