<svg width="206" height="206" viewBox="0 0 206 206" fill="none" xmlns="http://www.w3.org/2000/svg">
<path d="M75.2733 92.3879C75.0624 92.1786 74.8516 91.76 74.8516 91.3414C74.8516 90.9227 75.0624 90.7134 75.2733 90.5041C75.695 90.0855 75.9058 90.0855 76.3275 90.0855C76.7492 90.0855 76.96 90.2948 77.1709 90.5041L88.7676 101.807C88.9785 102.016 89.4002 102.225 89.8219 102.225C90.2436 102.225 90.4544 102.016 90.8761 101.807L111.328 81.7131C111.539 81.5037 111.961 81.2944 112.383 81.2944C112.804 81.2944 113.015 81.5037 113.226 81.7131C113.648 82.1317 113.648 82.5503 113.648 82.7596C113.648 83.1782 113.437 83.3875 113.226 83.5968L92.7737 103.691C91.0869 105.365 88.3459 105.365 86.4483 103.691L75.2733 92.3879Z" fill="#E12A2E"/>
<path d="M91.2979 159.785C90.8762 159.785 90.6653 159.576 90.2436 159.367C90.0328 159.158 89.8218 158.739 89.8218 158.53V152.879C89.8218 152.46 90.0328 152.042 90.2436 151.833C90.4545 151.622 90.8762 151.413 91.087 151.413C91.5087 151.413 91.7196 151.622 91.9304 151.833C92.1412 152.042 92.3521 152.46 92.3521 152.669V158.321C92.3521 158.739 92.1412 158.948 91.9304 159.158C92.1412 159.785 91.7196 159.785 91.2979 159.785Z" fill="white"/>
<path d="M34.3686 103.062C33.9469 103.062 33.7361 102.853 33.5252 102.644C33.3144 102.435 33.1035 102.016 33.1035 101.807C33.1035 101.597 33.3144 101.179 33.5252 100.969C33.7361 100.76 34.1578 100.551 34.3686 100.551H40.0616C40.6942 100.551 40.905 100.76 41.1159 100.969C41.3267 101.179 41.5376 101.597 41.5376 101.807C41.5376 102.016 41.3267 102.435 41.1159 102.644C40.6942 103.062 40.4833 103.062 40.0616 103.062H34.3686Z" fill="white"/>
<path d="M91.2978 52.828C90.8761 52.828 90.6653 52.6187 90.4544 52.4094C90.2436 52.2001 90.0327 51.7815 90.0327 51.5722V45.9207C90.0327 45.2928 90.2436 45.0835 90.4544 44.8742C90.6653 44.6649 91.087 44.4556 91.2978 44.4556C91.7195 44.4556 91.9303 44.6649 92.1412 44.8742C92.352 45.0835 92.5629 45.5021 92.5629 45.7114V51.3629C92.5629 51.7815 92.352 51.9908 92.1412 52.2001C92.1412 52.6187 91.7195 52.828 91.2978 52.828Z" fill="white"/>
<path d="M55.2424 67.4799C54.8207 67.4799 54.6098 67.2706 54.399 67.0613L50.3929 63.0843C50.182 62.875 49.9712 62.4564 49.9712 62.2471C49.9712 62.0378 50.182 61.6191 50.3929 61.4098C50.6037 61.2005 51.0254 60.9912 51.2363 60.9912C51.658 60.9912 51.8688 61.2005 52.0797 61.4098L56.0859 65.3867C56.2968 65.596 56.2968 65.8053 56.5076 66.4334C56.5076 66.6427 56.2968 67.0613 56.0859 67.2706C55.8749 67.4799 55.6641 67.4799 55.2424 67.4799Z" fill="white"/>
<path d="M122.626 163.773C119.047 165.389 116.214 166.419 113.53 167.3C112.337 167.741 111.442 168.769 111.442 169.945V185.525C111.442 186.995 110.845 188.317 109.802 189.347C108.758 190.375 107.267 190.963 105.924 190.963H80.126V190.816C78.6348 190.816 77.2927 190.228 76.2488 189.2C75.205 188.171 74.6085 186.7 74.6085 185.379V169.799C74.6085 168.624 73.7138 167.595 72.6699 167.153C68.4944 165.977 64.6172 164.361 60.5908 162.304C60.1436 162.156 59.6961 162.156 59.3979 162.156C58.5031 162.156 57.9066 162.304 57.3101 163.038L46.1259 174.061C45.0821 175.091 43.5908 175.677 42.2487 175.677C40.7574 175.677 39.4154 175.091 38.3715 174.061L20.4767 156.718C19.4328 155.689 18.8363 154.22 18.8363 152.897C18.8363 151.428 19.4328 150.105 20.4767 149.076L31.661 138.053C32.5558 137.171 32.7048 135.848 32.1083 134.819C30.0206 131.292 28.3803 127.471 27.1872 123.355C26.7399 122.18 25.696 121.298 24.503 121.298H8.54686C7.05563 121.298 5.71352 120.71 4.66965 119.681C3.62579 118.505 3.0293 117.036 3.0293 115.566V90.4335C3.0293 88.9637 3.62579 87.6409 4.66965 86.6121C5.71352 85.5833 7.20475 84.9954 8.54686 84.9954H24.3539C25.5469 84.9954 26.5908 84.1135 27.0381 83.0847C28.2311 79.2635 29.8715 75.1481 31.9593 71.4738C32.5558 70.445 32.4066 68.9754 31.5118 68.2405L20.3275 57.2174C19.2838 56.1886 18.6873 54.7189 18.6873 53.3962C18.6873 51.9264 19.2838 50.6036 20.3275 49.5748L38.2224 32.232C39.2662 31.2032 40.7574 30.6153 42.0996 30.6153C42.9944 30.6153 43.5908 30.7622 44.1873 31.0562C44.7838 31.2032 45.6786 31.9381 46.1259 32.232L57.1611 43.255C57.7576 43.8429 58.3541 44.1369 59.2488 44.1369C59.6961 44.1369 60.2926 43.9898 60.74 43.6958C64.319 41.6383 68.1962 40.1686 72.5207 38.9927C73.7138 38.5519 74.6085 37.5231 74.6085 36.3472V20.4741C74.6085 19.0044 75.205 17.6817 76.2488 16.6529C77.2927 15.6241 78.784 15.0361 80.126 15.0361H105.477C106.968 15.0361 108.31 15.6241 109.205 16.6529C110.249 17.6817 110.845 19.1513 110.845 20.4741V36.0532C110.845 37.2291 111.74 38.2579 112.784 38.6988C116.959 39.8746 120.837 41.4913 124.863 43.5489C125.31 43.6958 125.758 43.6958 126.056 43.6958C126.951 43.6958 127.547 43.5489 128.144 42.8141L139.179 31.9381C139.775 31.3501 140.372 30.9093 141.117 30.7622C141.714 30.6153 142.609 30.3213 143.205 30.3213C144.696 30.3213 146.039 30.9093 147.082 31.9381L164.977 49.2808C166.021 50.3096 166.618 51.7795 166.618 53.1022C166.618 54.5719 166.021 55.8946 164.977 56.9234L153.942 67.7995C153.047 68.6814 152.899 70.0041 153.494 71.0329C155.135 74.1193 156.328 76.9119 157.372 79.8514" stroke="white" stroke-width="2" stroke-miterlimit="10"/>
<path d="M51.2366 143.459C50.8149 143.459 50.604 143.25 50.3932 143.25C49.9715 143.041 49.7607 142.622 49.7607 142.622C49.5498 142.203 49.5498 141.994 49.5498 141.785C49.5498 141.366 49.7607 141.157 49.9715 141.157L53.9776 137.18C54.1884 136.971 54.6101 136.971 55.2427 136.971C55.6644 136.971 55.8752 137.18 56.0861 137.389C56.2969 137.599 56.5078 138.017 56.5078 138.227C56.5078 138.436 56.2969 138.854 56.0861 139.064C55.4535 139.482 55.0318 140.11 54.3993 140.738C53.7668 141.366 52.08 143.25 51.2366 143.459Z" fill="white"/>
<path d="M127.986 67.6894C127.775 67.6894 127.353 67.4801 127.142 67.2708C126.932 67.0615 126.721 66.6428 126.721 66.4335C126.721 66.2242 126.932 65.8056 127.142 65.5963L131.149 61.6193C131.359 61.41 131.781 61.2007 131.992 61.2007C132.414 61.2007 132.625 61.41 132.835 61.6193C133.046 61.8286 133.257 62.2472 133.257 62.4565C133.257 62.8751 133.046 63.0845 132.835 63.2938L128.829 67.2708C128.829 67.4801 128.407 67.6894 127.986 67.6894Z" fill="white"/>
<path d="M166.15 160.205C165.306 160.205 164.673 159.576 164.673 158.739V153.926L163.408 153.715C158.56 152.46 154.974 148.064 154.974 143.041C154.974 142.204 155.607 141.576 156.451 141.576C157.293 141.576 157.926 142.204 157.926 143.041C157.926 147.436 161.51 150.995 165.939 150.995C170.367 150.995 173.95 147.436 173.95 143.041C173.95 138.646 170.367 135.087 165.939 135.087C159.824 135.087 154.764 130.064 154.764 123.994C154.764 118.97 158.347 114.575 163.198 113.319L164.462 113.11V108.505C164.462 107.667 165.095 107.04 165.939 107.04C166.783 107.04 167.414 107.667 167.414 108.505V113.11L168.679 113.319C173.529 114.575 176.903 118.97 176.903 123.994C176.903 124.831 176.271 125.459 175.427 125.459C174.584 125.459 173.95 124.831 173.95 123.994C173.95 120.017 170.788 116.459 166.783 116.04C166.571 116.04 166.15 116.04 165.939 116.04C165.729 116.04 165.517 116.04 165.095 116.04C161.3 116.668 158.137 120.017 158.137 123.994C158.137 128.18 161.722 131.948 166.15 131.948C172.265 131.948 177.325 136.971 177.325 143.041C177.325 148.064 173.95 152.46 168.891 153.715L167.625 153.926V158.739C167.625 159.576 166.993 160.205 166.15 160.205Z" fill="white"/>
<path d="M166.15 172.973C144.221 172.973 126.299 155.39 126.299 133.831C126.299 112.272 144.221 94.6904 166.15 94.6904C188.078 94.6904 206 112.272 206 133.831C206 155.181 188.078 172.764 166.15 172.973ZM166.15 97.2021C145.697 97.2021 129.251 113.528 129.251 133.622C129.251 153.715 145.908 170.042 166.15 170.042C186.391 170.042 203.048 153.715 203.048 133.622C203.048 113.528 186.601 97.2021 166.15 97.2021Z" fill="white"/>
</svg>
