<svg width="38" height="38" viewBox="0 0 38 38" fill="none" xmlns="http://www.w3.org/2000/svg">
<path d="M37.1388 9.15792C36.7413 10.4281 36.1598 11.6331 35.413 12.7347L35.443 12.6872C34.7337 13.8694 33.8866 15.2353 32.9018 16.7848C32.0574 18.0082 31.6103 18.6416 31.5607 18.6848C31.335 18.9674 31.189 19.3053 31.138 19.6633L31.1364 19.6744C31.1767 19.997 31.3265 20.296 31.5607 20.5215L32.194 21.2277C35.5824 24.7099 37.4882 27.1103 37.9115 28.4287C37.9917 28.6452 38.0175 28.8782 37.9866 29.1071C37.9557 29.336 37.869 29.5538 37.7341 29.7413L37.7373 29.7365C37.5779 29.9009 37.3836 30.0274 37.1687 30.1066C36.9539 30.1858 36.7239 30.2157 36.496 30.1941H36.5023H32.3286C31.795 30.1941 31.3042 30.0073 30.9195 29.6969L30.9242 29.7001C30.3749 29.2497 29.8706 28.747 29.4185 28.1991L29.4042 28.1801C28.6748 27.3557 28.0278 26.6617 27.463 26.098C25.582 24.3099 24.194 23.4158 23.2989 23.4158C23.01 23.3899 22.7211 23.4655 22.4819 23.6296L22.4866 23.6264C22.3839 23.7553 22.3084 23.9037 22.2649 24.0627C22.2213 24.2217 22.2106 24.3878 22.2333 24.5511V24.5447C22.1718 25.2835 22.1517 26.0252 22.1731 26.7662V26.7393V28.5743C22.2181 28.7935 22.2027 29.0208 22.1285 29.2319C22.0543 29.443 21.9242 29.63 21.752 29.7729L21.7504 29.7745C20.9486 30.1368 20.0658 30.2825 19.1901 30.1973L19.2107 30.1988C16.8139 30.1577 14.4736 29.4636 12.442 28.1912L12.4974 28.2228C10.1547 26.8105 8.14664 24.9062 6.61213 22.6416L6.56938 22.5751C5.07984 20.5888 3.77051 18.4735 2.65697 16.2544L2.54613 16.0106C1.80412 14.5736 1.15211 13.0919 0.593883 11.5741L0.498883 11.2812C0.240064 10.4932 0.0753093 9.6774 0.00804948 8.85075L0.00488281 8.81117C0.00488281 8.01106 0.475661 7.611 1.41722 7.611H5.58138C6.00237 7.57803 6.42028 7.70527 6.75147 7.96725L6.7483 7.96408C7.06497 8.31083 7.2993 8.73675 7.41488 9.21175L7.41963 9.23075C8.10758 11.2009 8.94769 13.1146 9.93238 14.9545L9.8263 14.7376C10.538 16.1832 11.3993 17.5502 12.396 18.8162L12.3596 18.7672C13.2041 19.8037 13.8627 20.322 14.3356 20.322L14.3863 20.3236C14.4976 20.3237 14.607 20.2946 14.7035 20.239C14.8 20.1834 14.88 20.1033 14.9357 20.0069L14.9373 20.0037C15.0889 19.6069 15.149 19.181 15.113 18.7577V18.7672V12.6254C15.0835 11.9291 14.911 11.2462 14.6064 10.6193L14.619 10.6494C14.4343 10.251 14.1945 9.88056 13.9065 9.549L13.9113 9.55533C13.6458 9.29026 13.4731 8.94649 13.4189 8.57525L13.4173 8.56575C13.4173 8.29658 13.5408 8.05433 13.734 7.896L13.7355 7.89442C13.9343 7.71236 14.1943 7.61176 14.4639 7.61258H21.041C21.2061 7.59332 21.3734 7.61534 21.5279 7.6767C21.6824 7.73805 21.8192 7.8368 21.9261 7.96408L21.9277 7.96567C22.1277 8.33518 22.2152 8.75512 22.1795 9.17375V9.16583V17.3564C22.1542 17.6795 22.2295 18.0024 22.3948 18.2811L22.3916 18.2747C22.4496 18.3614 22.5281 18.4325 22.62 18.4816C22.712 18.5308 22.8146 18.5565 22.9189 18.5566C23.1859 18.5392 23.445 18.4507 23.6662 18.3001L23.6615 18.3033C24.0921 18.0072 24.4626 17.6699 24.784 17.2883L24.7904 17.2804C25.7686 16.1736 26.6456 14.9814 27.4108 13.7179L27.4725 13.6071C28.0172 12.7046 28.6062 11.5931 29.1398 10.4515L29.238 10.2187L29.9441 8.80642C30.0685 8.44124 30.3083 8.12647 30.6274 7.90966C30.9464 7.69285 31.3274 7.5858 31.7127 7.60467H31.708H35.8737C36.9989 7.60467 37.4212 8.12242 37.1404 9.15792H37.1388Z" fill="white"/>
</svg>
