<svg width="602" height="607" viewBox="0 0 602 607" fill="none" xmlns="http://www.w3.org/2000/svg">
<path d="M542.332 163.519C550.337 177.382 551.284 194.496 546.068 213.627C540.851 232.76 529.476 253.872 512.898 275.67C479.742 319.265 425.836 365.526 359.029 404.097C292.223 442.668 225.206 466.222 170.874 473.137C143.707 476.595 119.737 475.89 100.558 470.842C81.3822 465.794 67.0349 456.417 59.0308 442.553C51.0267 428.689 50.0789 411.575 55.2954 392.445C60.5126 373.312 71.8872 352.2 88.4656 330.401C121.621 286.806 175.527 240.545 242.334 201.974C309.14 163.404 376.157 139.85 430.489 132.934C457.656 129.476 481.627 130.181 500.805 135.23C519.981 140.277 534.328 149.655 542.332 163.519Z" stroke="#FD0037"/>
<path d="M517.532 127.433C527.606 139.874 531.22 156.629 529.06 176.34C526.9 196.054 518.968 218.685 506.004 242.808C480.077 291.053 434.071 345.178 374.12 393.724C314.17 442.271 251.663 476.018 199.082 491.348C172.79 499.014 149.005 502.067 129.273 500.081C109.543 498.095 93.9055 491.077 83.8311 478.637C73.7568 466.196 70.1435 449.441 72.3031 429.73C74.4629 410.016 82.3949 387.385 95.3591 363.261C121.286 315.016 167.292 260.892 227.243 212.345C287.193 163.799 349.7 130.051 402.281 114.721C428.573 107.056 452.358 104.002 472.09 105.988C491.82 107.974 507.458 114.992 517.532 127.433Z" stroke="#FD0037" stroke-opacity="0.9"/>
<path d="M487.393 95.6719C499.289 106.384 505.479 122.367 506.429 142.173C507.38 161.982 503.086 185.576 494.055 211.43C475.994 263.137 439.022 323.792 387.404 381.119C335.786 438.447 279.328 481.557 229.792 504.924C205.023 516.608 182.008 523.344 162.208 524.47C142.411 525.595 125.868 521.109 113.972 510.398C102.075 499.686 95.8854 483.703 94.9349 463.896C93.9843 444.087 98.2784 420.494 107.309 394.639C125.37 342.932 162.343 282.277 213.96 224.95C265.578 167.623 322.036 124.513 371.572 101.146C396.341 89.4619 419.356 82.7252 439.156 81.6C458.953 80.475 475.496 84.9603 487.393 95.6719Z" stroke="#FD0037" stroke-opacity="0.8"/>
<path d="M452.655 69.0173C466.08 77.7361 474.694 92.5545 478.732 111.968C482.769 131.385 482.219 155.359 477.344 182.308C467.594 236.204 440.565 301.896 398.551 366.592C356.537 431.288 307.518 482.7 262.247 513.528C239.611 528.943 217.933 539.197 198.553 543.406C179.175 547.614 162.134 545.772 148.709 537.053C135.283 528.334 126.669 513.516 122.632 494.102C118.594 474.686 119.144 450.711 124.02 423.762C133.769 369.866 160.798 304.174 202.813 239.478C244.827 174.782 293.846 123.371 339.116 92.5422C361.753 77.1274 383.431 66.8733 402.811 62.6646C422.188 58.4565 439.229 60.2986 452.655 69.0173Z" stroke="#FD0037" stroke-opacity="0.7"/>
<path d="M414.175 48.1246C428.799 54.6357 439.626 67.9241 446.65 86.4673C453.675 105.013 456.882 128.779 456.283 156.158C455.084 210.916 438.665 280.027 407.288 350.499C375.912 420.972 335.539 479.418 295.649 516.949C275.702 535.715 255.895 549.234 237.412 556.423C218.932 563.61 201.813 564.457 187.188 557.946C172.564 551.434 161.738 538.146 154.713 519.603C147.688 501.057 144.481 477.292 145.08 449.912C146.279 395.154 162.699 326.043 194.075 255.571C225.451 185.099 265.824 126.652 305.715 89.1211C325.661 70.355 345.468 56.8359 363.951 49.6473C382.432 42.4597 399.551 41.6134 414.175 48.1246Z" stroke="#FD0037" stroke-opacity="0.6"/>
<path d="M372.902 33.5085C388.364 37.6518 401.136 49.083 410.975 66.2991C420.815 83.5174 427.7 106.489 431.391 133.625C438.773 187.896 433.367 258.725 413.401 333.238C393.436 407.751 362.703 471.794 329.175 515.103C312.41 536.758 294.961 553.209 277.83 563.201C260.702 573.191 243.926 576.705 228.463 572.561C213 568.418 200.228 556.987 190.39 539.771C180.549 522.553 173.664 499.581 169.973 472.445C162.591 418.174 167.997 347.345 187.963 272.832C207.929 198.319 238.661 134.276 272.19 90.9673C288.955 69.312 306.403 52.8608 323.534 42.8694C340.663 32.8792 357.439 29.3653 372.902 33.5085Z" stroke="#FD0037" stroke-opacity="0.5"/>
<path d="M329.849 25.5292C345.769 27.2025 360.172 36.4951 372.583 51.96C384.995 67.4271 395.389 89.0384 403.28 115.263C419.061 167.711 424.801 238.514 416.738 315.233C408.674 391.952 388.339 460.014 361.998 508.034C348.827 532.046 334.167 551.024 318.81 563.572C303.455 576.119 287.435 582.214 271.515 580.541C255.594 578.867 241.191 569.575 228.781 554.11C216.368 538.643 205.974 517.031 198.083 490.806C182.302 438.359 176.562 367.556 184.625 290.837C192.689 214.118 213.025 146.056 239.365 98.0353C252.536 74.024 267.196 55.0459 282.553 42.4976C297.908 29.9509 313.928 23.8559 329.849 25.5292Z" stroke="#FD0037" stroke-opacity="0.4"/>
<path d="M286.078 24.3834C302.064 23.5456 317.743 30.4707 332.42 43.8038C347.1 57.1387 360.746 76.858 372.643 101.526C396.434 150.859 413.18 219.892 417.217 296.928C421.254 373.964 411.816 444.369 393.312 495.919C384.059 521.695 372.549 542.733 359.344 557.529C346.14 572.323 331.271 580.849 315.285 581.687C299.299 582.525 283.62 575.6 268.942 562.267C254.263 548.932 240.616 529.213 228.72 504.545C204.929 455.211 188.183 386.178 184.146 309.143C180.108 232.107 189.547 161.702 208.051 110.152C217.304 84.3755 228.814 63.3378 242.019 48.5415C255.222 33.7473 270.092 25.2212 286.078 24.3834Z" stroke="#FD0037" stroke-opacity="0.3"/>
<path d="M242.667 30.098C258.326 26.7697 274.895 31.1568 291.477 42.0297C308.062 52.904 324.625 70.2458 340.234 92.7489C371.45 137.753 398.789 203.317 414.827 278.772C430.866 354.228 432.558 425.243 422.346 479.053C417.239 505.959 409.161 528.539 398.434 545.218C387.707 561.896 374.355 572.643 358.696 575.972C343.038 579.3 326.469 574.913 309.886 564.04C293.302 553.165 276.738 535.824 261.13 513.321C229.914 468.316 202.575 402.753 186.536 327.297C170.498 251.841 168.806 180.826 179.018 127.016C184.125 100.11 192.203 77.5307 202.93 60.851C213.657 44.1735 227.009 33.4263 242.667 30.098Z" stroke="#FD0037" stroke-opacity="0.2"/>
<path d="M200.685 42.534C215.63 36.7972 232.681 38.5383 250.76 46.6833C268.842 54.8293 287.914 69.3665 306.851 89.1508C344.723 128.718 381.981 189.197 409.626 261.215C437.271 333.233 450.052 403.109 448.383 457.854C447.548 485.228 443.102 508.793 435.116 526.945C427.13 545.096 415.624 557.799 400.679 563.536C385.734 569.273 368.682 567.532 350.603 559.387C332.521 551.241 313.449 536.704 294.512 516.919C256.641 477.352 219.382 416.873 191.737 344.855C164.092 272.837 151.312 202.961 152.981 148.216C153.815 120.842 158.261 97.2773 166.248 79.1247C174.233 60.9745 185.74 48.2709 200.685 42.534Z" stroke="#FD0037" stroke-opacity="0.1"/>
</svg>
