<svg width="90" height="90" viewBox="0 0 90 90" fill="none" xmlns="http://www.w3.org/2000/svg">
<path d="M44.2311 61.4384C31.1082 61.4384 20.4297 50.7599 20.4297 37.637C20.4297 24.514 31.1082 13.8354 44.2311 13.8354C57.3541 13.8354 68.0325 24.514 68.0325 37.637C68.0325 50.7599 57.3541 61.4384 44.2311 61.4384ZM44.2311 15.3199C31.9197 15.3199 21.9142 25.3254 21.9142 37.6171C21.9142 49.9285 31.9296 59.934 44.2311 59.934C56.5326 59.934 66.548 49.9286 66.548 37.637C66.548 25.3354 56.5425 15.3199 44.2311 15.3199Z" fill="white"/>
<path d="M63.6178 89.9901C63.3703 89.9802 63.1427 89.8417 63.024 89.6338L54.7207 75.2441L54.2951 75.2045C52.7513 75.0462 51.1084 74.2742 49.525 73.5221L49.4359 73.4825C47.6743 72.6512 45.8632 71.8001 44.2896 71.8001C42.726 71.8001 40.9149 72.6512 39.1731 73.4726C37.6193 74.205 35.8775 75.0264 34.2742 75.2045L33.8586 75.254L25.5652 89.6338C25.4366 89.8614 25.199 90 24.9318 90H24.8526L24.7933 89.9307C24.5162 89.9109 24.2885 89.7031 24.2193 89.4359L20.5773 75.8874L7.03871 79.5294C6.98922 79.5393 6.91995 79.5491 6.86057 79.5491C6.62305 79.5491 6.40532 79.4403 6.26677 79.2523C6.07873 79.0147 6.05894 78.6881 6.21729 78.4209L15.2826 62.7249L14.4711 62.329C13.6497 61.9232 12.9866 61.3789 12.4918 60.706C11.1062 58.7761 11.4427 56.0842 11.7792 53.4715C12.0167 51.6703 12.2839 49.6316 11.799 48.1669C11.3833 46.8606 10.1462 45.5443 8.94876 44.2676L8.69144 44.0004C6.88036 42.0805 5 40.0814 5 37.627C5 35.1331 6.99912 33.0251 8.76072 31.1744C10.0473 29.8285 11.3635 28.4429 11.799 27.0772C12.274 25.6224 12.0068 23.5738 11.7693 21.7726C11.4229 19.0312 11.0864 16.4482 12.4819 14.5382C13.907 12.5687 16.589 12.0739 19.1918 11.589C21.2305 11.2228 23.0119 10.8566 24.1896 10.0055C25.3673 9.14449 26.2976 7.44227 27.1883 5.79943L27.2674 5.66087C28.5837 3.25599 29.8307 0.979767 32.1168 0.247416C32.5918 0.0791731 33.0768 0 33.6013 0C35.3728 0 37.2828 0.900594 39.1236 1.7715C40.8852 2.60281 42.7062 3.45393 44.2698 3.45393C45.8335 3.45393 47.6446 2.60281 49.3864 1.78139C51.247 0.900594 53.157 0 54.9285 0C55.453 0 55.938 0.0791731 56.413 0.227623C58.7585 0.99956 60.1243 3.5232 61.3316 5.74994C62.2223 7.41258 63.1427 9.1247 64.3501 9.9857C65.5278 10.8467 67.4181 11.203 69.2489 11.5494L69.3479 11.5692C72.0794 12.0937 74.6624 12.5984 76.0578 14.5184C77.4533 16.4581 77.1069 19.15 76.7704 21.7627C76.5329 23.5639 76.2657 25.6026 76.7506 27.0673C77.1663 28.3638 78.4033 29.6899 79.6008 30.9567L79.7889 31.1546C81.4515 32.9063 83.5298 35.0935 83.5298 37.6567C83.5298 40.1506 81.5307 42.2586 79.7691 44.1093C78.4924 45.4552 77.1663 46.8408 76.7308 48.2065C76.2459 49.6712 76.523 51.7099 76.7605 53.5111C77.1069 56.2525 77.4434 58.8355 76.0479 60.7455C75.563 61.3987 74.9098 61.9331 74.0488 62.3686L73.2571 62.7744L82.3818 78.4209C82.5302 78.6782 82.5104 79.0048 82.3224 79.2424C82.174 79.4304 81.9661 79.5393 81.7286 79.5393C81.6692 79.5393 81.5999 79.5294 81.5406 79.5195L68.0119 75.8874L64.3798 89.426C64.3006 89.7229 64.0532 89.9406 63.7662 89.9703L63.6574 89.9802L63.6178 89.9901ZM21.0424 74.2742C21.3789 74.2742 21.6758 74.5019 21.7649 74.8186L25.1199 87.3774L32.1465 75.1254L31.3646 74.7196C29.4447 73.7299 28.2274 71.4735 27.1487 69.4942C26.258 67.8414 25.3376 66.1194 24.1302 65.2584C22.9525 64.3974 21.0721 64.0411 19.2413 63.6947L19.0334 63.6552C18.4 63.5364 17.8359 63.4275 17.2916 63.3088L16.6879 63.1702L8.32527 77.649L20.8544 74.3039C20.9138 74.2841 20.9732 74.2742 21.0424 74.2742ZM63.3506 87.3675L66.7055 74.8285C66.7847 74.5019 67.0816 74.2742 67.428 74.2742C67.4972 74.2742 67.5566 74.2841 67.6259 74.3039L80.1352 77.6985L71.7726 63.1999L71.1491 63.3385C70.5751 63.4671 69.9714 63.5859 69.3776 63.6947C67.2993 64.0609 65.4882 64.437 64.3006 65.298C63.1229 66.159 62.2025 67.8612 61.302 69.5041C60.1539 71.6121 58.9762 73.7794 57.0761 74.7592L56.2943 75.1649L63.3506 87.3675ZM44.2303 70.3354C46.1403 70.3354 48.0998 71.2558 49.9901 72.1465C51.5835 72.9085 53.3945 73.7794 54.8988 73.7794C55.265 73.7794 55.6015 73.7299 55.9083 73.631C57.6699 73.057 58.8476 70.8995 59.9758 68.8212L60.055 68.6826C61.015 66.9309 62.0046 65.1199 63.4297 64.0906C64.9241 63.0119 67.0222 62.616 69.0411 62.2399C71.3668 61.8144 73.7717 61.3789 74.8504 59.8845C75.8995 58.4396 75.5927 56.0446 75.2958 53.7189C75.0286 51.6703 74.7614 49.5524 75.3354 47.7612C75.8698 46.0886 77.3048 44.5744 78.7002 43.1097C80.3629 41.3679 82.075 39.5569 82.075 37.6666C82.075 35.7664 80.3629 33.9751 78.7101 32.2333C77.384 30.8379 75.8995 29.2643 75.3354 27.5621C74.7614 25.7708 75.0286 23.653 75.2958 21.6143C75.5828 19.3974 75.9094 16.8936 74.8504 15.4388C73.7717 14.0037 71.4163 13.5485 69.1401 13.113C67.0717 12.7271 64.934 12.3213 63.4396 11.2426C61.9947 10.1836 60.9952 8.35276 60.0253 6.59116L59.9263 6.40312C58.808 4.37431 57.6501 2.26633 55.9182 1.70222C55.6114 1.60325 55.2749 1.55377 54.9087 1.55377C53.4341 1.55377 51.6824 2.38509 50 3.18672C48.0998 4.07741 46.1403 4.9978 44.2303 4.9978C42.3301 4.9978 40.3706 4.07741 38.4803 3.18672C36.8771 2.41478 35.066 1.54387 33.5617 1.54387C33.1955 1.54387 32.859 1.59336 32.5522 1.69232C30.7906 2.26633 29.6228 4.4238 28.4847 6.50209L28.4055 6.64064C27.4456 8.39235 26.4559 10.2034 25.0308 11.2327C23.5364 12.3114 21.4383 12.7073 19.4194 13.0834C17.0937 13.5089 14.6888 13.9444 13.62 15.4289C12.5709 16.8738 12.8777 19.2687 13.1746 21.5945C13.4418 23.6431 13.709 25.7609 13.135 27.5522C12.6006 29.2248 11.1656 30.7389 9.78007 32.2037C8.11744 33.9554 6.39543 35.7565 6.39543 37.6567C6.39543 39.5568 8.10754 41.3481 9.76028 43.0899C11.0864 44.4854 12.5709 46.0589 13.135 47.7612C13.709 49.5524 13.4418 51.6703 13.1746 53.709C12.8777 56.0347 12.5709 58.4297 13.6299 59.8845C14.7086 61.3195 17.0541 61.7748 19.3204 62.2102L19.4194 62.23C21.4482 62.6061 23.5364 63.002 25.0308 64.0807C26.4757 65.1397 27.4753 66.9606 28.4352 68.7222L28.5342 68.9103C29.6525 70.949 30.8104 73.057 32.5423 73.6211C32.8491 73.72 33.1856 73.7695 33.5419 73.7695C35.0165 73.7695 36.7682 72.9382 38.4605 72.1366C40.3607 71.2558 42.3301 70.3354 44.2303 70.3354Z" fill="white"/>
<path d="M40.8374 46.9398C40.6296 46.9398 40.4415 46.8705 40.303 46.7319L30.0303 36.4592C29.8422 36.2712 29.8125 36.0535 29.8125 35.9347C29.8125 35.816 29.8422 35.5982 30.0303 35.4102C30.2183 35.2222 30.436 35.2024 30.5548 35.2024C30.6735 35.2024 30.8913 35.2321 31.0793 35.4102L40.8275 45.1584L57.4241 28.5617C57.6122 28.3737 57.8299 28.344 57.9487 28.344C58.0674 28.344 58.2852 28.3737 58.4732 28.5617C58.7602 28.8487 58.7602 29.3238 58.4732 29.6009L41.3619 46.7319C41.2234 46.8705 41.0452 46.9398 40.8374 46.9398Z" fill="#FD0037"/>
</svg>
