<svg width="239" height="239" viewBox="0 0 239 239" fill="none" xmlns="http://www.w3.org/2000/svg">
<path d="M228.827 177.73C228.821 177.755 228.806 177.778 228.786 177.794C228.765 177.81 228.74 177.819 228.714 177.819C228.687 177.819 228.662 177.81 228.641 177.794C228.621 177.778 228.606 177.755 228.6 177.73C228.153 175.848 227.227 172.743 225.811 171.408C224.184 170.035 222.205 169.145 220.099 168.84C220.083 168.84 220.068 168.836 220.054 168.83C220.04 168.824 220.027 168.815 220.017 168.804C220.006 168.792 219.998 168.779 219.992 168.765C219.987 168.75 219.984 168.735 219.984 168.72C219.985 168.704 219.988 168.689 219.995 168.675C220.001 168.661 220.01 168.648 220.021 168.638C220.032 168.627 220.045 168.619 220.06 168.613C220.074 168.608 220.09 168.605 220.105 168.606C222.628 168.241 224.714 167.485 226.297 165.509C227.748 163.699 228.228 161.824 228.459 159.637C228.462 159.609 228.474 159.584 228.494 159.565C228.513 159.546 228.539 159.534 228.566 159.532C228.594 159.53 228.621 159.537 228.643 159.553C228.666 159.569 228.682 159.592 228.689 159.619C229.144 161.585 230.231 164.422 231.19 165.639C232.627 167.465 234.521 168.024 237.504 168.593C237.535 168.594 237.565 168.608 237.586 168.631C237.607 168.654 237.618 168.684 237.616 168.715C237.615 168.746 237.601 168.775 237.579 168.797C237.556 168.818 237.525 168.829 237.494 168.827C235.17 169.01 232.985 170.003 231.319 171.634C229.852 172.967 229.142 176.439 228.827 177.73Z" fill="white"/>
<path d="M10.224 56.0686C10.2179 56.0942 10.2033 56.117 10.1826 56.1334C10.1618 56.1497 10.1362 56.1586 10.1099 56.1586C10.0835 56.1586 10.0579 56.1497 10.0372 56.1334C10.0165 56.117 10.0019 56.0942 9.99576 56.0686C9.54984 54.1863 8.62338 51.0813 7.20759 49.7465C5.58066 48.3735 3.60144 47.484 1.49454 47.1789C1.47913 47.1785 1.46395 47.175 1.44987 47.1688C1.4358 47.1625 1.4231 47.1535 1.4125 47.1423C1.40191 47.1311 1.39362 47.1179 1.38811 47.1035C1.38261 47.0891 1.37999 47.0738 1.38042 47.0583C1.38084 47.0429 1.38429 47.0278 1.39058 47.0137C1.39687 46.9996 1.40587 46.9869 1.41707 46.9763C1.42826 46.9657 1.44144 46.9574 1.45584 46.9519C1.47024 46.9464 1.48558 46.9438 1.50099 46.9442C4.02396 46.5799 6.11098 45.8236 7.69341 43.848C9.1444 42.0362 9.62259 40.1621 9.85729 37.9748C9.85982 37.9472 9.872 37.9215 9.8917 37.902C9.91139 37.8826 9.93733 37.8707 9.96492 37.8685C9.99251 37.8664 10.02 37.874 10.0425 37.8901C10.065 37.9062 10.0811 37.9298 10.0879 37.9566C10.5432 39.9228 11.6304 42.7596 12.5885 43.9771C14.026 45.803 15.92 46.3622 18.903 46.9307C18.9341 46.9321 18.9634 46.9457 18.9845 46.9686C19.0056 46.9916 19.0167 47.0219 19.0154 47.0531C19.014 47.0842 19.0004 47.1135 18.9775 47.1346C18.9545 47.1557 18.9242 47.1668 18.893 47.1654C16.5693 47.3478 14.3837 48.3411 12.7182 49.9718C11.2508 51.3049 10.5408 54.7777 10.224 56.0686Z" fill="white"/>
<path d="M31.5269 54.2264C33.1099 53.202 34.956 52.6586 36.8416 52.6621C68.5958 52.6668 164.334 52.6856 197.603 52.6897C198.888 52.6892 200.161 52.942 201.349 53.4336C202.537 53.9252 203.617 54.646 204.526 55.5548C205.435 56.4636 206.157 57.5426 206.649 58.7302C207.141 59.9179 207.395 61.1908 207.395 62.4765C207.407 82.2196 207.438 128.704 207.45 155.07H207.251C204.517 155.228 41.1107 155.381 27.3224 155.381H27.2831C27.2191 129.606 27.0877 84.0021 27.0484 62.4782C27.0437 60.8377 27.4513 59.2223 28.2339 57.7804C29.0164 56.3385 30.1488 55.1164 31.5269 54.2264Z" fill="white"/>
<path d="M95.7927 201.081H88.6134C87.0879 201.081 86.9465 197.027 87.4112 196.021C87.8759 195.015 88.7953 194.369 90.3877 194.066C95.903 193.017 97.2684 190.039 97.7266 184.762C97.9226 182.5 98.1256 181.097 98.2371 178.843C98.3092 177.386 98.4354 175.759 98.6531 173.543C110.864 173.531 123.557 173.514 135.789 173.496C136.009 175.736 136.137 177.375 136.209 178.843C136.32 181.097 136.523 182.5 136.72 184.762C137.178 190.039 138.543 193.017 144.059 194.066C145.651 194.369 146.57 195.015 147.035 196.021C147.501 197.027 147.57 201.092 146.005 201.092C143.666 201.091 110.904 201.083 95.7927 201.081Z" fill="white"/>
<path d="M32.6941 172.477C34.0474 173.158 35.5408 173.514 37.0559 173.518C68.4128 173.639 165.59 173.443 197.679 173.387C200.274 173.384 202.763 172.351 204.596 170.514C206.43 168.677 207.459 166.187 207.457 163.592C207.457 161.093 207.457 158.225 207.451 155.067H207.251C204.517 155.226 41.1108 155.378 27.3225 155.378H27.2832C27.2897 158.479 27.2961 161.292 27.3014 163.742C27.3046 165.554 27.8103 167.33 28.7624 168.872C29.7144 170.414 31.0754 171.662 32.6941 172.477Z" fill="#D9D9D9"/>
<path d="M100.477 201.082H88.6134C87.0879 201.082 86.9465 197.027 87.4112 196.022C87.8759 195.016 88.7953 194.37 90.3877 194.067C91.6733 193.858 92.9107 193.418 94.0407 192.77C106.452 192.77 128.381 192.77 140.408 192.77C141.537 193.42 142.773 193.86 144.059 194.069C145.651 194.372 146.57 195.018 147.035 196.023C147.501 197.029 147.57 201.095 146.005 201.095L100.477 201.082Z" fill="white"/>
<path d="M134.445 174.161C134.77 177.599 134.977 181.044 135.287 184.482C135.511 186.952 135.81 189.62 137.278 191.709C138.803 193.88 141.159 194.889 143.685 195.423C144.238 195.503 144.77 195.693 145.25 195.98C145.434 196.125 145.589 196.305 145.706 196.508C145.795 196.632 145.842 196.941 145.737 196.543C145.762 196.639 145.796 196.733 145.816 196.83C145.843 196.947 145.863 197.062 145.881 197.178C145.838 196.897 145.881 197.199 145.885 197.269C145.902 197.54 145.92 197.81 145.918 198.083C145.929 198.557 145.873 199.032 145.753 199.491C145.719 199.635 145.712 199.848 145.604 199.852L145.696 199.745L145.626 199.823L145.757 199.73C145.623 199.808 145.648 199.8 145.83 199.706C145.999 199.588 146.006 199.689 145.781 199.679C145.513 199.666 145.242 199.679 144.974 199.679H142.049H132.368L106.458 199.673H95.3131C93.1809 199.673 91.0388 199.614 88.9072 199.673C88.6865 199.679 88.5745 199.581 88.7939 199.7C88.9652 199.793 88.9588 199.704 89.0092 199.847C88.9711 199.739 88.8825 199.633 88.8332 199.526C88.9347 199.755 88.8062 199.409 88.7916 199.354C88.6664 198.941 88.5997 198.513 88.5932 198.083C88.5821 197.836 88.5803 197.588 88.5932 197.341C88.5991 197.204 88.6097 197.069 88.6214 196.933C88.6525 196.574 88.5686 197.124 88.6396 196.833C88.6654 196.727 88.8291 196.348 88.7024 196.583C88.7993 196.368 88.9483 196.18 89.136 196.037C89.6912 195.685 90.3184 195.461 90.9713 195.384C92.2735 195.139 93.5264 194.681 94.6801 194.029C95.6674 193.41 96.5205 192.598 97.1889 191.643C97.8574 190.688 98.3276 189.608 98.5719 188.468C98.8854 187.068 99.09 185.645 99.1838 184.212C99.3411 182.515 99.5359 180.822 99.6315 179.119C99.7223 177.464 99.8457 175.811 100.002 174.161C99.9991 173.789 99.8499 173.432 99.5864 173.169C99.3229 172.905 98.9662 172.756 98.5936 172.753C98.2226 172.761 97.8689 172.912 97.6065 173.174C97.3441 173.437 97.1932 173.79 97.1854 174.161C96.8521 177.691 96.6403 181.229 96.3188 184.761C96.2325 186.001 96.0109 187.228 95.6581 188.42C95.4021 189.323 94.9239 190.149 94.267 190.82C93.9733 191.131 93.6323 191.393 93.2566 191.597C92.7265 191.912 92.158 192.158 91.5651 192.329C90.0396 192.798 88.4636 192.897 87.2056 193.988C85.4554 195.508 85.4296 198.459 86.2082 200.491C86.6447 201.628 87.4286 202.443 88.7006 202.486C89.0075 202.496 89.3161 202.486 89.623 202.486H92.7861H103L129.767 202.491H140.576C142.365 202.491 144.171 202.564 145.958 202.491C148.586 202.387 148.892 199.068 148.68 197.058C148.652 196.447 148.497 195.85 148.226 195.302C147.955 194.755 147.574 194.269 147.107 193.876C145.816 192.837 144.222 192.761 142.706 192.265C141.715 191.973 140.813 191.439 140.081 190.71C139.444 190.013 138.985 189.173 138.743 188.261C138.401 187.024 138.188 185.755 138.105 184.474C137.948 182.732 137.74 180.994 137.641 179.246C137.544 177.545 137.423 175.85 137.262 174.154C137.253 173.783 137.101 173.431 136.839 173.169C136.577 172.907 136.225 172.755 135.854 172.746C135.482 172.748 135.125 172.898 134.862 173.161C134.598 173.425 134.449 173.781 134.446 174.154L134.445 174.161Z" fill="#211715"/>
<path d="M100.795 194.175H133.711C135.523 194.175 135.526 191.358 133.711 191.358H100.795C98.9826 191.358 98.9796 194.175 100.795 194.175Z" fill="#211715"/>
<path d="M31.5269 54.2264C33.1099 53.202 34.956 52.6586 36.8416 52.6621C68.5958 52.6668 164.334 52.6856 197.603 52.6897C198.888 52.6892 200.161 52.942 201.349 53.4336C202.537 53.9252 203.617 54.646 204.526 55.5548C205.435 56.4636 206.157 57.5426 206.649 58.7302C207.141 59.9179 207.395 61.1908 207.395 62.4765C207.407 82.2196 207.438 128.704 207.45 155.07H207.251C204.517 155.228 41.1107 155.381 27.3224 155.381H27.2831C27.2191 129.606 27.0877 84.0021 27.0484 62.4782C27.0437 60.8377 27.4513 59.2223 28.2339 57.7804C29.0164 56.3385 30.1488 55.1164 31.5269 54.2264Z" fill="white"/>
<path d="M32.6941 172.477C34.0474 173.158 35.5408 173.514 37.0559 173.518C68.4128 173.639 165.59 173.443 197.679 173.387C200.274 173.384 202.763 172.351 204.596 170.514C206.43 168.677 207.459 166.187 207.457 163.592C207.457 161.093 207.457 158.225 207.451 155.067H207.251C204.517 155.226 41.1108 155.378 27.3225 155.378H27.2832C27.2897 158.479 27.2961 161.292 27.3014 163.742C27.3046 165.554 27.8103 167.33 28.7624 168.872C29.7144 170.414 31.0754 171.662 32.6941 172.477Z" fill="#D9D9D9"/>
<path d="M134.445 174.161C134.77 177.599 134.977 181.044 135.287 184.482C135.511 186.952 135.81 189.62 137.278 191.709C138.803 193.88 141.159 194.889 143.685 195.423C144.238 195.503 144.77 195.693 145.25 195.98C145.434 196.125 145.589 196.305 145.706 196.508C145.795 196.632 145.842 196.941 145.737 196.543C145.762 196.639 145.796 196.733 145.816 196.83C145.843 196.947 145.863 197.062 145.881 197.178C145.838 196.897 145.881 197.199 145.885 197.269C145.902 197.54 145.92 197.81 145.918 198.083C145.929 198.557 145.873 199.032 145.753 199.491C145.719 199.635 145.712 199.848 145.604 199.852L145.696 199.745L145.626 199.823L145.757 199.73C145.623 199.808 145.648 199.8 145.83 199.706C145.999 199.588 146.006 199.689 145.781 199.679C145.513 199.666 145.242 199.679 144.974 199.679H142.049H132.368L106.458 199.673H95.3131C93.1809 199.673 91.0388 199.614 88.9072 199.673C88.6865 199.679 88.5745 199.581 88.7939 199.7C88.9652 199.793 88.9588 199.704 89.0092 199.847C88.9711 199.739 88.8825 199.633 88.8332 199.526C88.9347 199.755 88.8062 199.409 88.7916 199.354C88.6664 198.941 88.5997 198.513 88.5932 198.083C88.5821 197.836 88.5803 197.588 88.5932 197.341C88.5991 197.204 88.6097 197.069 88.6214 196.933C88.6525 196.574 88.5686 197.124 88.6396 196.833C88.6654 196.727 88.8291 196.348 88.7024 196.583C88.7993 196.368 88.9483 196.18 89.136 196.037C89.6912 195.685 90.3184 195.461 90.9713 195.384C92.2735 195.139 93.5264 194.681 94.6801 194.029C95.6674 193.41 96.5205 192.598 97.1889 191.643C97.8574 190.688 98.3276 189.608 98.5719 188.468C98.8854 187.068 99.09 185.645 99.1838 184.212C99.3411 182.515 99.5359 180.822 99.6315 179.119C99.7223 177.464 99.8457 175.811 100.002 174.161C99.9991 173.789 99.8499 173.432 99.5864 173.169C99.3229 172.905 98.9662 172.756 98.5936 172.753C98.2226 172.761 97.8689 172.912 97.6065 173.174C97.3441 173.437 97.1932 173.79 97.1854 174.161C96.8521 177.691 96.6403 181.229 96.3188 184.761C96.2325 186.001 96.0109 187.228 95.6581 188.42C95.4021 189.323 94.9239 190.149 94.267 190.82C93.9733 191.131 93.6323 191.393 93.2566 191.597C92.7265 191.912 92.158 192.158 91.5651 192.329C90.0396 192.798 88.4636 192.897 87.2056 193.988C85.4554 195.508 85.4296 198.459 86.2082 200.491C86.6447 201.628 87.4286 202.443 88.7006 202.486C89.0075 202.496 89.3161 202.486 89.623 202.486H92.7861H103L129.767 202.491H140.576C142.365 202.491 144.171 202.564 145.958 202.491C148.586 202.387 148.892 199.068 148.68 197.058C148.652 196.447 148.497 195.85 148.226 195.302C147.955 194.755 147.574 194.269 147.107 193.876C145.816 192.837 144.222 192.761 142.706 192.265C141.715 191.973 140.813 191.439 140.081 190.71C139.444 190.013 138.985 189.173 138.743 188.261C138.401 187.024 138.188 185.755 138.105 184.474C137.948 182.732 137.74 180.994 137.641 179.246C137.544 177.545 137.423 175.85 137.262 174.154C137.253 173.783 137.101 173.431 136.839 173.169C136.577 172.907 136.225 172.755 135.854 172.746C135.482 172.748 135.125 172.898 134.862 173.161C134.598 173.425 134.449 173.781 134.446 174.154L134.445 174.161Z" fill="#211715"/>
<path d="M100.795 194.175H133.711C135.523 194.175 135.526 191.358 133.711 191.358H100.795C98.9826 191.358 98.9796 194.175 100.795 194.175Z" fill="#211715"/>
<path d="M25.6402 62.478C25.6578 71.989 25.6799 81.5004 25.7065 91.0122C25.7367 102.596 25.7672 114.18 25.7981 125.765C25.8258 136.048 25.8524 146.332 25.8779 156.615L25.892 162.503C25.8978 165.191 26.2551 167.74 27.8247 170.007C29.4205 172.348 31.8378 174.005 34.5974 174.648C36.4098 175.049 38.3055 174.935 40.1514 174.941C47.6679 174.963 55.1846 174.972 62.7014 174.969C72.4804 174.971 82.2605 174.968 92.0418 174.958C102.823 174.947 113.605 174.934 124.388 174.92C134.908 174.905 145.428 174.889 155.949 174.871C164.974 174.856 173.999 174.84 183.024 174.824L193.571 174.805C195.143 174.805 196.739 174.878 198.31 174.776C201.175 174.603 203.867 173.344 205.838 171.256C207.8 169.128 208.883 166.335 208.867 163.441C208.874 161.549 208.867 159.657 208.867 157.766C208.865 153.152 208.863 148.539 208.86 143.925L208.833 110.4C208.827 99.5824 208.82 88.7648 208.813 77.9473C208.811 73.699 208.808 69.4506 208.805 65.2022C208.805 62.9374 208.91 60.6644 208.073 58.5135C207.063 55.8678 205.094 53.6994 202.558 52.4401C199.009 50.7322 194.695 51.2831 190.853 51.2825H179.284L150.894 51.2778L118.587 51.272L86.1891 51.2661L57.5276 51.2573H45.7542H40.6977C39.0918 51.2573 37.4378 51.1499 35.8383 51.3072C33.0615 51.5873 30.4855 52.8819 28.6038 54.9431C26.7221 57.0043 25.6669 59.6872 25.6402 62.478C25.6203 64.2905 28.4366 64.2922 28.4566 62.478C28.4597 61.1982 28.7514 59.9356 29.3102 58.7842C29.8689 57.6328 30.6802 56.6223 31.6836 55.828C33.5477 54.3775 35.657 54.0677 37.9423 54.0677H47.6569L73.2252 54.0724L103.892 54.0777L136.238 54.0836L166.392 54.0889L190.93 54.093H195.723C197.847 54.093 199.858 54.1012 201.766 55.1972C202.863 55.8301 203.804 56.701 204.52 57.7456C205.236 58.7902 205.709 59.9821 205.904 61.2336C206.181 63.0419 205.989 65.008 205.99 66.8357C205.996 76.3217 206.001 85.8072 206.008 95.2924L206.029 129.036C206.035 138.791 206.041 148.546 206.046 158.3C206.046 160.224 206.131 162.173 206.036 164.092C205.964 165.322 205.621 166.521 205.033 167.603C204.445 168.686 203.625 169.626 202.633 170.356C199.565 172.594 195.401 171.979 191.808 171.986L168.194 172.028C158.361 172.045 148.529 172.062 138.697 172.077C128.073 172.093 117.45 172.107 106.827 172.119C96.5712 172.131 86.3154 172.139 76.0597 172.143C67.4182 172.147 58.7766 172.144 50.1347 172.136C46.8075 172.132 43.4802 172.125 40.1526 172.117C38.4956 172.112 36.7272 172.269 35.1113 171.87C33.8902 171.567 32.7518 170.995 31.7786 170.197C30.8053 169.4 30.0216 168.396 29.484 167.258C28.5311 165.241 28.7077 163.033 28.7024 160.865C28.6981 158.876 28.6934 156.887 28.6883 154.898C28.6766 150.066 28.6643 145.235 28.6514 140.405C28.622 129.145 28.5921 117.885 28.5616 106.626C28.5334 95.9398 28.5064 85.2538 28.4806 74.5677C28.4705 70.5392 28.4624 66.5093 28.4566 62.478C28.4501 60.6656 25.6338 60.6627 25.6402 62.478Z" fill="#211715"/>
<path d="M27.2833 156.789C29.9475 156.789 32.6115 156.788 35.2753 156.785C40.2406 156.781 45.206 156.777 50.1713 156.772C56.8237 156.767 63.476 156.76 70.128 156.753C77.9331 156.745 85.7383 156.737 93.5434 156.728C101.862 156.718 110.181 156.708 118.5 156.697C126.78 156.685 135.061 156.674 143.342 156.661C151.006 156.649 158.669 156.636 166.332 156.622C172.799 156.61 179.266 156.596 185.734 156.579C190.439 156.567 195.144 156.552 199.849 156.534C202.176 156.525 204.504 156.531 206.832 156.489C207.039 156.485 207.246 156.478 207.454 156.478C209.266 156.478 209.269 153.662 207.454 153.662C205.728 153.662 204.001 153.698 202.276 153.707C198.095 153.728 193.913 153.743 189.732 153.752C183.646 153.769 177.559 153.783 171.472 153.795C164.018 153.81 156.564 153.823 149.109 153.835C140.924 153.849 132.739 153.861 124.554 153.872C116.192 153.884 107.829 153.894 99.4665 153.905L75.5864 153.932L54.6469 153.952C49.2099 153.957 43.7728 153.962 38.3357 153.966C35.064 153.968 31.7924 153.97 28.5207 153.972H27.2833C25.4715 153.972 25.4685 156.789 27.2833 156.789Z" fill="#211715"/>
<path d="M121.152 164.535C121.159 165.036 121.063 165.533 120.869 165.995C120.676 166.457 120.389 166.874 120.027 167.22C119.664 167.565 119.235 167.833 118.764 168.005C118.294 168.177 117.793 168.25 117.293 168.22C114.692 168.22 113.351 166.443 113.351 164.533C113.344 164.033 113.437 163.537 113.625 163.074C113.813 162.611 114.092 162.19 114.446 161.837C114.799 161.483 115.22 161.204 115.683 161.016C116.146 160.828 116.642 160.735 117.142 160.742C118.173 160.724 119.171 161.112 119.92 161.821C120.67 162.53 121.112 163.504 121.152 164.535Z" fill="#211715"/>
<path d="M65.6785 110.504C65.6897 115.675 65.7155 127.555 65.7155 129.234C70.4903 129.225 76.2321 129.214 82.5718 129.2C82.5718 126.874 82.5718 109.138 82.5718 108.13H65.6738C65.6744 108.278 65.6762 109.168 65.6785 110.504Z" fill="white"/>
<path d="M93.9234 100.687C93.9234 98.8738 93.9199 97.7062 93.9199 97.5684H110.818V129.138L93.9551 129.175C93.9551 127.103 93.9322 108.262 93.9234 100.687Z" fill="white"/>
<path d="M122.163 90.4368C122.163 88.4043 122.163 87.1317 122.163 87.0073H139.056V129.073L122.2 129.112C122.201 126.447 122.173 100.011 122.163 90.4368Z" fill="white"/>
<path d="M150.405 83.3664C150.405 79.2897 150.399 76.6083 150.399 76.4429H167.297V129.007C162.505 129.017 156.765 129.03 150.44 129.044C150.439 125.97 150.416 96.937 150.405 83.3664Z" fill="#E12A2E"/>
<path d="M67.1225 129.241C67.1225 123.099 67.0991 116.957 67.0868 110.817C67.0844 109.922 67.0826 109.027 67.0815 108.132L65.6733 109.54H82.5713L81.1631 108.132V129.208C81.1631 131.02 83.9795 131.023 83.9795 129.208V108.13C83.9742 107.758 83.8241 107.403 83.5612 107.14C83.2982 106.877 82.9431 106.727 82.5713 106.722H65.6733C65.3014 106.727 64.9463 106.877 64.6833 107.14C64.4203 107.403 64.2703 107.758 64.2651 108.13C64.2651 114.038 64.2898 119.945 64.3009 125.853C64.3033 126.982 64.305 128.111 64.3062 129.241C64.3062 131.052 67.1225 131.055 67.1225 129.241Z" fill="#211715"/>
<path d="M95.3633 129.182C95.3633 125.322 95.3593 121.463 95.3515 117.604L95.3322 101.484C95.3322 100.179 95.3308 98.8732 95.3281 97.5683L93.9199 98.9765H110.818L109.41 97.5683V129.146C109.41 130.958 112.226 130.961 112.226 129.146V97.5683C112.221 97.1965 112.071 96.8414 111.808 96.5785C111.545 96.3155 111.19 96.1655 110.818 96.1602H93.9199C93.5481 96.1655 93.193 96.3155 92.93 96.5785C92.6671 96.8414 92.517 97.1965 92.5117 97.5683C92.5117 100.996 92.5156 104.424 92.5235 107.852C92.5301 113.346 92.5364 118.839 92.5422 124.332C92.5422 125.949 92.5438 127.565 92.5469 129.182C92.5469 130.994 95.3633 130.996 95.3633 129.182Z" fill="#211715"/>
<path d="M123.609 129.117C123.609 123.954 123.604 118.791 123.595 113.628C123.588 106.467 123.581 99.3063 123.573 92.1453C123.573 90.4325 123.571 88.7198 123.568 87.0073L122.16 88.4155H139.057L137.648 87.0073V129.076C137.648 130.888 140.465 130.891 140.465 129.076V87.0073C140.46 86.6355 140.309 86.2804 140.047 86.0174C139.784 85.7545 139.428 85.6044 139.057 85.5991H122.159C121.787 85.6044 121.432 85.7545 121.169 86.0174C120.906 86.2804 120.756 86.6355 120.75 87.0073C120.75 91.578 120.755 96.1486 120.765 100.719C120.772 108.045 120.779 115.372 120.786 122.698C120.789 124.838 120.79 126.977 120.792 129.117C120.792 130.929 123.608 130.932 123.608 129.117H123.609Z" fill="#211715"/>
<path d="M151.847 129.053C151.847 122.596 151.842 116.139 151.833 109.682C151.826 100.72 151.819 91.7576 151.811 82.7954C151.811 80.6785 151.809 78.5619 151.806 76.4458L150.398 77.8539H167.296L165.888 76.4458V129.011C165.888 130.823 168.704 130.826 168.704 129.011V76.4458C168.699 76.0739 168.549 75.7188 168.286 75.4559C168.023 75.193 167.668 75.0429 167.296 75.0376H150.398C150.026 75.0429 149.671 75.193 149.408 75.4559C149.145 75.7188 148.995 76.0739 148.99 76.4458C148.99 82.1254 148.994 87.8052 149.004 93.4852C149.011 102.664 149.018 111.844 149.026 121.024C149.028 123.7 149.03 126.376 149.031 129.053C149.031 130.864 151.847 130.867 151.847 129.053Z" fill="#211715"/>
<path d="M181.144 127.578C179.353 127.578 177.563 127.58 175.772 127.585C172.547 127.591 169.323 127.597 166.098 127.604C161.795 127.613 157.495 127.622 153.197 127.632L137.942 127.667L121.4 127.705L104.575 127.743L88.4735 127.779C83.7045 127.789 78.9353 127.799 74.1659 127.809C70.2825 127.817 66.3987 127.824 62.5145 127.831C59.8757 127.835 57.2374 127.839 54.5994 127.841H53.3526C51.5402 127.841 51.5372 130.657 53.3526 130.657C55.6362 130.657 57.9198 130.655 60.2033 130.65L71.0363 130.631C75.6151 130.622 80.1938 130.613 84.7723 130.603L100.545 130.568L117.286 130.53L133.99 130.491L149.65 130.456L163.2 130.426L173.771 130.404C175.942 130.4 178.113 130.396 180.284 130.394H181.143C182.955 130.394 182.958 127.578 181.143 127.578H181.144Z" fill="#211715"/>
<path d="M31.5269 54.2264C33.1099 53.202 34.956 52.6586 36.8416 52.6621C68.5958 52.6668 164.334 52.6856 197.603 52.6897C198.888 52.6892 200.161 52.942 201.349 53.4336C202.537 53.9252 203.617 54.646 204.526 55.5548C205.435 56.4636 206.157 57.5426 206.649 58.7302C207.141 59.9179 207.395 61.1908 207.395 62.4765C207.407 82.2196 207.438 128.704 207.45 155.07H207.251C204.517 155.228 41.1107 155.381 27.3224 155.381H27.2831C27.2191 129.606 27.0877 84.0021 27.0484 62.4782C27.0437 60.8377 27.4513 59.2223 28.2339 57.7804C29.0164 56.3385 30.1488 55.1164 31.5269 54.2264Z" fill="white"/>
<path d="M134.445 174.161C134.77 177.599 134.977 181.044 135.287 184.482C135.511 186.952 135.81 189.62 137.278 191.709C138.803 193.88 141.159 194.889 143.685 195.423C144.238 195.503 144.77 195.693 145.25 195.98C145.434 196.125 145.589 196.305 145.706 196.508C145.795 196.632 145.842 196.941 145.737 196.543C145.762 196.639 145.796 196.733 145.816 196.83C145.843 196.947 145.863 197.062 145.881 197.178C145.838 196.897 145.881 197.199 145.885 197.269C145.902 197.54 145.92 197.81 145.918 198.083C145.929 198.557 145.873 199.032 145.753 199.491C145.719 199.635 145.712 199.848 145.604 199.852L145.696 199.745L145.626 199.823L145.757 199.73C145.623 199.808 145.648 199.8 145.83 199.706C145.999 199.588 146.006 199.689 145.781 199.679C145.513 199.666 145.242 199.679 144.974 199.679H142.049H132.368L106.458 199.673H95.3131C93.1809 199.673 91.0388 199.614 88.9072 199.673C88.6865 199.679 88.5745 199.581 88.7939 199.7C88.9652 199.793 88.9588 199.704 89.0092 199.847C88.9711 199.739 88.8825 199.633 88.8332 199.526C88.9347 199.755 88.8062 199.409 88.7916 199.354C88.6664 198.941 88.5997 198.513 88.5932 198.083C88.5821 197.836 88.5803 197.588 88.5932 197.341C88.5991 197.204 88.6097 197.069 88.6214 196.933C88.6525 196.574 88.5686 197.124 88.6396 196.833C88.6654 196.727 88.8291 196.348 88.7024 196.583C88.7993 196.368 88.9483 196.18 89.136 196.037C89.6912 195.685 90.3184 195.461 90.9713 195.384C92.2735 195.139 93.5264 194.681 94.6801 194.029C95.6674 193.41 96.5205 192.598 97.1889 191.643C97.8574 190.688 98.3276 189.608 98.5719 188.468C98.8854 187.068 99.09 185.645 99.1838 184.212C99.3411 182.515 99.5359 180.822 99.6315 179.119C99.7223 177.464 99.8457 175.811 100.002 174.161C99.9991 173.789 99.8499 173.432 99.5864 173.169C99.3229 172.905 98.9662 172.756 98.5936 172.753C98.2226 172.761 97.8689 172.912 97.6065 173.174C97.3441 173.437 97.1932 173.79 97.1854 174.161C96.8521 177.691 96.6403 181.229 96.3188 184.761C96.2325 186.001 96.0109 187.228 95.6581 188.42C95.4021 189.323 94.9239 190.149 94.267 190.82C93.9733 191.131 93.6323 191.393 93.2566 191.597C92.7265 191.912 92.158 192.158 91.5651 192.329C90.0396 192.798 88.4636 192.897 87.2056 193.988C85.4554 195.508 85.4296 198.459 86.2082 200.491C86.6447 201.628 87.4286 202.443 88.7006 202.486C89.0075 202.496 89.3161 202.486 89.623 202.486H92.7861H103L129.767 202.491H140.576C142.365 202.491 144.171 202.564 145.958 202.491C148.586 202.387 148.892 199.068 148.68 197.058C148.652 196.447 148.497 195.85 148.226 195.302C147.955 194.755 147.574 194.269 147.107 193.876C145.816 192.837 144.222 192.761 142.706 192.265C141.715 191.973 140.813 191.439 140.081 190.71C139.444 190.013 138.985 189.173 138.743 188.261C138.401 187.024 138.188 185.755 138.105 184.474C137.948 182.732 137.74 180.994 137.641 179.246C137.544 177.545 137.423 175.85 137.262 174.154C137.253 173.783 137.101 173.431 136.839 173.169C136.577 172.907 136.225 172.755 135.854 172.746C135.482 172.748 135.125 172.898 134.862 173.161C134.598 173.425 134.449 173.781 134.446 174.154L134.445 174.161Z" fill="#211715"/>
<path d="M100.795 194.175H133.711C135.523 194.175 135.526 191.358 133.711 191.358H100.795C98.9826 191.358 98.9796 194.175 100.795 194.175Z" fill="#211715"/>
<path d="M121.152 164.535C121.159 165.036 121.063 165.533 120.869 165.995C120.676 166.457 120.389 166.874 120.027 167.22C119.664 167.565 119.235 167.833 118.764 168.005C118.294 168.177 117.793 168.25 117.293 168.22C114.692 168.22 113.351 166.443 113.351 164.533C113.344 164.033 113.437 163.537 113.625 163.074C113.813 162.611 114.092 162.19 114.446 161.837C114.799 161.483 115.22 161.204 115.683 161.016C116.146 160.828 116.642 160.735 117.142 160.742C118.173 160.724 119.171 161.112 119.92 161.821C120.67 162.53 121.112 163.504 121.152 164.535Z" fill="#211715"/>
<path d="M150.405 83.3664C150.405 79.2897 150.399 76.6083 150.399 76.4429H167.297V129.007C162.505 129.017 156.765 129.03 150.44 129.044C150.439 125.97 150.416 96.937 150.405 83.3664Z" fill="#E12A2E"/>
<path d="M67.1225 129.241C67.1225 123.099 67.0991 116.957 67.0868 110.817C67.0844 109.922 67.0826 109.027 67.0815 108.132L65.6733 109.54H82.5713L81.1631 108.132V129.208C81.1631 131.02 83.9795 131.023 83.9795 129.208V108.13C83.9742 107.758 83.8241 107.403 83.5612 107.14C83.2982 106.877 82.9431 106.727 82.5713 106.722H65.6733C65.3014 106.727 64.9463 106.877 64.6833 107.14C64.4203 107.403 64.2703 107.758 64.2651 108.13C64.2651 114.038 64.2898 119.945 64.3009 125.853C64.3033 126.982 64.305 128.111 64.3062 129.241C64.3062 131.052 67.1225 131.055 67.1225 129.241Z" fill="#211715"/>
<path d="M95.3633 129.182C95.3633 125.322 95.3593 121.463 95.3515 117.604L95.3322 101.484C95.3322 100.179 95.3308 98.8732 95.3281 97.5683L93.9199 98.9765H110.818L109.41 97.5683V129.146C109.41 130.958 112.226 130.961 112.226 129.146V97.5683C112.221 97.1965 112.071 96.8414 111.808 96.5785C111.545 96.3155 111.19 96.1655 110.818 96.1602H93.9199C93.5481 96.1655 93.193 96.3155 92.93 96.5785C92.6671 96.8414 92.517 97.1965 92.5117 97.5683C92.5117 100.996 92.5156 104.424 92.5235 107.852C92.5301 113.346 92.5364 118.839 92.5422 124.332C92.5422 125.949 92.5438 127.565 92.5469 129.182C92.5469 130.994 95.3633 130.996 95.3633 129.182Z" fill="#211715"/>
<path d="M123.609 129.117C123.609 123.954 123.604 118.791 123.595 113.628C123.588 106.467 123.581 99.3063 123.573 92.1453C123.573 90.4325 123.571 88.7198 123.568 87.0073L122.16 88.4155H139.057L137.648 87.0073V129.076C137.648 130.888 140.465 130.891 140.465 129.076V87.0073C140.46 86.6355 140.309 86.2804 140.047 86.0174C139.784 85.7545 139.428 85.6044 139.057 85.5991H122.159C121.787 85.6044 121.432 85.7545 121.169 86.0174C120.906 86.2804 120.756 86.6355 120.75 87.0073C120.75 91.578 120.755 96.1486 120.765 100.719C120.772 108.045 120.779 115.372 120.786 122.698C120.789 124.838 120.79 126.977 120.792 129.117C120.792 130.929 123.608 130.932 123.608 129.117H123.609Z" fill="#211715"/>
<path d="M181.144 127.578C179.353 127.578 177.563 127.58 175.772 127.585C172.547 127.591 169.323 127.597 166.098 127.604C161.795 127.613 157.495 127.622 153.197 127.632L137.942 127.667L121.4 127.705L104.575 127.743L88.4735 127.779C83.7045 127.789 78.9353 127.799 74.1659 127.809C70.2825 127.817 66.3987 127.824 62.5145 127.831C59.8757 127.835 57.2374 127.839 54.5994 127.841H53.3526C51.5402 127.841 51.5372 130.657 53.3526 130.657C55.6362 130.657 57.9198 130.655 60.2033 130.65L71.0363 130.631C75.6151 130.622 80.1938 130.613 84.7723 130.603L100.545 130.568L117.286 130.53L133.99 130.491L149.65 130.456L163.2 130.426L173.771 130.404C175.942 130.4 178.113 130.396 180.284 130.394H181.143C182.955 130.394 182.958 127.578 181.143 127.578H181.144Z" fill="#211715"/>
<path d="M31.5269 54.2264C33.1099 53.202 34.956 52.6586 36.8416 52.6621C68.5958 52.6668 164.334 52.6856 197.603 52.6897C198.888 52.6892 200.161 52.942 201.349 53.4336C202.537 53.9252 203.617 54.646 204.526 55.5548C205.435 56.4636 206.157 57.5426 206.649 58.7302C207.141 59.9179 207.395 61.1908 207.395 62.4765C207.407 82.2196 207.438 128.704 207.45 155.07H207.251C204.517 155.228 41.1107 155.381 27.3224 155.381H27.2831C27.2191 129.606 27.0877 84.0021 27.0484 62.4782C27.0437 60.8377 27.4513 59.2223 28.2339 57.7804C29.0164 56.3385 30.1488 55.1164 31.5269 54.2264Z" fill="white"/>
<path d="M134.445 174.161C134.77 177.599 134.977 181.044 135.287 184.482C135.511 186.952 135.81 189.62 137.278 191.709C138.803 193.88 141.159 194.889 143.685 195.423C144.238 195.503 144.77 195.693 145.25 195.98C145.434 196.125 145.589 196.305 145.706 196.508C145.795 196.632 145.842 196.941 145.737 196.543C145.762 196.639 145.796 196.733 145.816 196.83C145.843 196.947 145.863 197.062 145.881 197.178C145.838 196.897 145.881 197.199 145.885 197.269C145.902 197.54 145.92 197.81 145.918 198.083C145.929 198.557 145.873 199.032 145.753 199.491C145.719 199.635 145.712 199.848 145.604 199.852L145.696 199.745L145.626 199.823L145.757 199.73C145.623 199.808 145.648 199.8 145.83 199.706C145.999 199.588 146.006 199.689 145.781 199.679C145.513 199.666 145.242 199.679 144.974 199.679H142.049H132.368L106.458 199.673H95.3131C93.1809 199.673 91.0388 199.614 88.9072 199.673C88.6865 199.679 88.5745 199.581 88.7939 199.7C88.9652 199.793 88.9588 199.704 89.0092 199.847C88.9711 199.739 88.8825 199.633 88.8332 199.526C88.9347 199.755 88.8062 199.409 88.7916 199.354C88.6664 198.941 88.5997 198.513 88.5932 198.083C88.5821 197.836 88.5803 197.588 88.5932 197.341C88.5991 197.204 88.6097 197.069 88.6214 196.933C88.6525 196.574 88.5686 197.124 88.6396 196.833C88.6654 196.727 88.8291 196.348 88.7024 196.583C88.7993 196.368 88.9483 196.18 89.136 196.037C89.6912 195.685 90.3184 195.461 90.9713 195.384C92.2735 195.139 93.5264 194.681 94.6801 194.029C95.6674 193.41 96.5205 192.598 97.1889 191.643C97.8574 190.688 98.3276 189.608 98.5719 188.468C98.8854 187.068 99.09 185.645 99.1838 184.212C99.3411 182.515 99.5359 180.822 99.6315 179.119C99.7223 177.464 99.8457 175.811 100.002 174.161C99.9991 173.789 99.8499 173.432 99.5864 173.169C99.3229 172.905 98.9662 172.756 98.5936 172.753C98.2226 172.761 97.8689 172.912 97.6065 173.174C97.3441 173.437 97.1932 173.79 97.1854 174.161C96.8521 177.691 96.6403 181.229 96.3188 184.761C96.2325 186.001 96.0109 187.228 95.6581 188.42C95.4021 189.323 94.9239 190.149 94.267 190.82C93.9733 191.131 93.6323 191.393 93.2566 191.597C92.7265 191.912 92.158 192.158 91.5651 192.329C90.0396 192.798 88.4636 192.897 87.2056 193.988C85.4554 195.508 85.4296 198.459 86.2082 200.491C86.6447 201.628 87.4286 202.443 88.7006 202.486C89.0075 202.496 89.3161 202.486 89.623 202.486H92.7861H103L129.767 202.491H140.576C142.365 202.491 144.171 202.564 145.958 202.491C148.586 202.387 148.892 199.068 148.68 197.058C148.652 196.447 148.497 195.85 148.226 195.302C147.955 194.755 147.574 194.269 147.107 193.876C145.816 192.837 144.222 192.761 142.706 192.265C141.715 191.973 140.813 191.439 140.081 190.71C139.444 190.013 138.985 189.173 138.743 188.261C138.401 187.024 138.188 185.755 138.105 184.474C137.948 182.732 137.74 180.994 137.641 179.246C137.544 177.545 137.423 175.85 137.262 174.154C137.253 173.783 137.101 173.431 136.839 173.169C136.577 172.907 136.225 172.755 135.854 172.746C135.482 172.748 135.125 172.898 134.862 173.161C134.598 173.425 134.449 173.781 134.446 174.154L134.445 174.161Z" fill="#211715"/>
<path d="M100.795 194.175H133.711C135.523 194.175 135.526 191.358 133.711 191.358H100.795C98.9826 191.358 98.9796 194.175 100.795 194.175Z" fill="#211715"/>
<path d="M121.152 164.535C121.159 165.036 121.063 165.533 120.869 165.995C120.676 166.457 120.389 166.874 120.027 167.22C119.664 167.565 119.235 167.833 118.764 168.005C118.294 168.177 117.793 168.25 117.293 168.22C114.692 168.22 113.351 166.443 113.351 164.533C113.344 164.033 113.437 163.537 113.625 163.074C113.813 162.611 114.092 162.19 114.446 161.837C114.799 161.483 115.22 161.204 115.683 161.016C116.146 160.828 116.642 160.735 117.142 160.742C118.173 160.724 119.171 161.112 119.92 161.821C120.67 162.53 121.112 163.504 121.152 164.535Z" fill="#211715"/>
<path d="M150.405 83.3664C150.405 79.2897 150.399 76.6083 150.399 76.4429H167.297V129.007C162.505 129.017 156.765 129.03 150.44 129.044C150.439 125.97 150.416 96.937 150.405 83.3664Z" fill="#E12A2E"/>
<path d="M67.1225 129.241C67.1225 123.099 67.0991 116.957 67.0868 110.817C67.0844 109.922 67.0826 109.027 67.0815 108.132L65.6733 109.54H82.5713L81.1631 108.132V129.208C81.1631 131.02 83.9795 131.023 83.9795 129.208V108.13C83.9742 107.758 83.8241 107.403 83.5612 107.14C83.2982 106.877 82.9431 106.727 82.5713 106.722H65.6733C65.3014 106.727 64.9463 106.877 64.6833 107.14C64.4203 107.403 64.2703 107.758 64.2651 108.13C64.2651 114.038 64.2898 119.945 64.3009 125.853C64.3033 126.982 64.305 128.111 64.3062 129.241C64.3062 131.052 67.1225 131.055 67.1225 129.241Z" fill="#211715"/>
<path d="M95.3633 129.182C95.3633 125.322 95.3593 121.463 95.3515 117.604L95.3322 101.484C95.3322 100.179 95.3308 98.8732 95.3281 97.5683L93.9199 98.9765H110.818L109.41 97.5683V129.146C109.41 130.958 112.226 130.961 112.226 129.146V97.5683C112.221 97.1965 112.071 96.8414 111.808 96.5785C111.545 96.3155 111.19 96.1655 110.818 96.1602H93.9199C93.5481 96.1655 93.193 96.3155 92.93 96.5785C92.6671 96.8414 92.517 97.1965 92.5117 97.5683C92.5117 100.996 92.5156 104.424 92.5235 107.852C92.5301 113.346 92.5364 118.839 92.5422 124.332C92.5422 125.949 92.5438 127.565 92.5469 129.182C92.5469 130.994 95.3633 130.996 95.3633 129.182Z" fill="#211715"/>
<path d="M123.609 129.117C123.609 123.954 123.604 118.791 123.595 113.628C123.588 106.467 123.581 99.3063 123.573 92.1453C123.573 90.4325 123.571 88.7198 123.568 87.0073L122.16 88.4155H139.057L137.648 87.0073V129.076C137.648 130.888 140.465 130.891 140.465 129.076V87.0073C140.46 86.6355 140.309 86.2804 140.047 86.0174C139.784 85.7545 139.428 85.6044 139.057 85.5991H122.159C121.787 85.6044 121.432 85.7545 121.169 86.0174C120.906 86.2804 120.756 86.6355 120.75 87.0073C120.75 91.578 120.755 96.1486 120.765 100.719C120.772 108.045 120.779 115.372 120.786 122.698C120.789 124.838 120.79 126.977 120.792 129.117C120.792 130.929 123.608 130.932 123.608 129.117H123.609Z" fill="#211715"/>
<path d="M181.144 127.578C179.353 127.578 177.563 127.58 175.772 127.585C172.547 127.591 169.323 127.597 166.098 127.604C161.795 127.613 157.495 127.622 153.197 127.632L137.942 127.667L121.4 127.705L104.575 127.743L88.4735 127.779C83.7045 127.789 78.9353 127.799 74.1659 127.809C70.2825 127.817 66.3987 127.824 62.5145 127.831C59.8757 127.835 57.2374 127.839 54.5994 127.841H53.3526C51.5402 127.841 51.5372 130.657 53.3526 130.657C55.6362 130.657 57.9198 130.655 60.2033 130.65L71.0363 130.631C75.6151 130.622 80.1938 130.613 84.7723 130.603L100.545 130.568L117.286 130.53L133.99 130.491L149.65 130.456L163.2 130.426L173.771 130.404C175.942 130.4 178.113 130.396 180.284 130.394H181.143C182.955 130.394 182.958 127.578 181.143 127.578H181.144Z" fill="#211715"/>
<path d="M32.6941 172.477C34.0474 173.158 35.5408 173.514 37.0559 173.518C68.4128 173.639 165.59 173.443 197.679 173.387C200.274 173.384 202.763 172.351 204.596 170.514C206.43 168.677 207.459 166.187 207.457 163.592C207.457 161.093 207.457 158.225 207.451 155.067H207.251C204.517 155.226 41.1108 155.378 27.3225 155.378H27.2832C27.2897 158.479 27.2961 161.292 27.3014 163.742C27.3046 165.554 27.8103 167.33 28.7624 168.872C29.7144 170.414 31.0754 171.662 32.6941 172.477Z" fill="#D9D9D9"/>
<path d="M31.5269 54.2264C33.1099 53.202 34.956 52.6586 36.8416 52.6621C68.5958 52.6668 164.334 52.6856 197.603 52.6897C198.888 52.6892 200.161 52.942 201.349 53.4336C202.537 53.9252 203.617 54.646 204.526 55.5548C205.435 56.4636 206.157 57.5426 206.649 58.7302C207.141 59.9179 207.395 61.1908 207.395 62.4765C207.407 82.2196 207.438 128.704 207.45 155.07H207.251C204.517 155.228 41.1107 155.381 27.3224 155.381H27.2831C27.2191 129.606 27.0877 84.0021 27.0484 62.4782C27.0437 60.8377 27.4513 59.2223 28.2339 57.7804C29.0164 56.3385 30.1488 55.1164 31.5269 54.2264Z" fill="white"/>
<path d="M134.445 174.161C134.77 177.599 134.977 181.044 135.287 184.482C135.511 186.952 135.81 189.62 137.278 191.709C138.803 193.88 141.159 194.889 143.685 195.423C144.238 195.503 144.77 195.693 145.25 195.98C145.434 196.125 145.589 196.305 145.706 196.508C145.795 196.632 145.842 196.941 145.737 196.543C145.762 196.639 145.796 196.733 145.816 196.83C145.843 196.947 145.863 197.062 145.881 197.178C145.838 196.897 145.881 197.199 145.885 197.269C145.902 197.54 145.92 197.81 145.918 198.083C145.929 198.557 145.873 199.032 145.753 199.491C145.719 199.635 145.712 199.848 145.604 199.852L145.696 199.745L145.626 199.823L145.757 199.73C145.623 199.808 145.648 199.8 145.83 199.706C145.999 199.588 146.006 199.689 145.781 199.679C145.513 199.666 145.242 199.679 144.974 199.679H142.049H132.368L106.458 199.673H95.3131C93.1809 199.673 91.0388 199.614 88.9072 199.673C88.6865 199.679 88.5745 199.581 88.7939 199.7C88.9652 199.793 88.9588 199.704 89.0092 199.847C88.9711 199.739 88.8825 199.633 88.8332 199.526C88.9347 199.755 88.8062 199.409 88.7916 199.354C88.6664 198.941 88.5997 198.513 88.5932 198.083C88.5821 197.836 88.5803 197.588 88.5932 197.341C88.5991 197.204 88.6097 197.069 88.6214 196.933C88.6525 196.574 88.5686 197.124 88.6396 196.833C88.6654 196.727 88.8291 196.348 88.7024 196.583C88.7993 196.368 88.9483 196.18 89.136 196.037C89.6912 195.685 90.3184 195.461 90.9713 195.384C92.2735 195.139 93.5264 194.681 94.6801 194.029C95.6674 193.41 96.5205 192.598 97.1889 191.643C97.8574 190.688 98.3276 189.608 98.5719 188.468C98.8854 187.068 99.09 185.645 99.1838 184.212C99.3411 182.515 99.5359 180.822 99.6315 179.119C99.7223 177.464 99.8457 175.811 100.002 174.161C99.9991 173.789 99.8499 173.432 99.5864 173.169C99.3229 172.905 98.9662 172.756 98.5936 172.753C98.2226 172.761 97.8689 172.912 97.6065 173.174C97.3441 173.437 97.1932 173.79 97.1854 174.161C96.8521 177.691 96.6403 181.229 96.3188 184.761C96.2325 186.001 96.0109 187.228 95.6581 188.42C95.4021 189.323 94.9239 190.149 94.267 190.82C93.9733 191.131 93.6323 191.393 93.2566 191.597C92.7265 191.912 92.158 192.158 91.5651 192.329C90.0396 192.798 88.4636 192.897 87.2056 193.988C85.4554 195.508 85.4296 198.459 86.2082 200.491C86.6447 201.628 87.4286 202.443 88.7006 202.486C89.0075 202.496 89.3161 202.486 89.623 202.486H92.7861H103L129.767 202.491H140.576C142.365 202.491 144.171 202.564 145.958 202.491C148.586 202.387 148.892 199.068 148.68 197.058C148.652 196.447 148.497 195.85 148.226 195.302C147.955 194.755 147.574 194.269 147.107 193.876C145.816 192.837 144.222 192.761 142.706 192.265C141.715 191.973 140.813 191.439 140.081 190.71C139.444 190.013 138.985 189.173 138.743 188.261C138.401 187.024 138.188 185.755 138.105 184.474C137.948 182.732 137.74 180.994 137.641 179.246C137.544 177.545 137.423 175.85 137.262 174.154C137.253 173.783 137.101 173.431 136.839 173.169C136.577 172.907 136.225 172.755 135.854 172.746C135.482 172.748 135.125 172.898 134.862 173.161C134.598 173.425 134.449 173.781 134.446 174.154L134.445 174.161Z" fill="#211715"/>
<path d="M100.795 194.175H133.711C135.523 194.175 135.526 191.358 133.711 191.358H100.795C98.9826 191.358 98.9796 194.175 100.795 194.175Z" fill="#211715"/>
<path d="M121.152 164.535C121.159 165.036 121.063 165.533 120.869 165.995C120.676 166.457 120.389 166.874 120.027 167.22C119.664 167.565 119.235 167.833 118.764 168.005C118.294 168.177 117.793 168.25 117.293 168.22C114.692 168.22 113.351 166.443 113.351 164.533C113.344 164.033 113.437 163.537 113.625 163.074C113.813 162.611 114.092 162.19 114.446 161.837C114.799 161.483 115.22 161.204 115.683 161.016C116.146 160.828 116.642 160.735 117.142 160.742C118.173 160.724 119.171 161.112 119.92 161.821C120.67 162.53 121.112 163.504 121.152 164.535Z" fill="#211715"/>
<path d="M150.405 83.3664C150.405 79.2897 150.399 76.6083 150.399 76.4429H167.297V129.007C162.505 129.017 156.765 129.03 150.44 129.044C150.439 125.97 150.416 96.937 150.405 83.3664Z" fill="#E12A2E"/>
<path d="M67.1225 129.241C67.1225 123.099 67.0991 116.957 67.0868 110.817C67.0844 109.922 67.0826 109.027 67.0815 108.132L65.6733 109.54H82.5713L81.1631 108.132V129.208C81.1631 131.02 83.9795 131.023 83.9795 129.208V108.13C83.9742 107.758 83.8241 107.403 83.5612 107.14C83.2982 106.877 82.9431 106.727 82.5713 106.722H65.6733C65.3014 106.727 64.9463 106.877 64.6833 107.14C64.4203 107.403 64.2703 107.758 64.2651 108.13C64.2651 114.038 64.2898 119.945 64.3009 125.853C64.3033 126.982 64.305 128.111 64.3062 129.241C64.3062 131.052 67.1225 131.055 67.1225 129.241Z" fill="#211715"/>
<path d="M95.3633 129.182C95.3633 125.322 95.3593 121.463 95.3515 117.604L95.3322 101.484C95.3322 100.179 95.3308 98.8732 95.3281 97.5683L93.9199 98.9765H110.818L109.41 97.5683V129.146C109.41 130.958 112.226 130.961 112.226 129.146V97.5683C112.221 97.1965 112.071 96.8414 111.808 96.5785C111.545 96.3155 111.19 96.1655 110.818 96.1602H93.9199C93.5481 96.1655 93.193 96.3155 92.93 96.5785C92.6671 96.8414 92.517 97.1965 92.5117 97.5683C92.5117 100.996 92.5156 104.424 92.5235 107.852C92.5301 113.346 92.5364 118.839 92.5422 124.332C92.5422 125.949 92.5438 127.565 92.5469 129.182C92.5469 130.994 95.3633 130.996 95.3633 129.182Z" fill="#211715"/>
<path d="M123.609 129.117C123.609 123.954 123.604 118.791 123.595 113.628C123.588 106.467 123.581 99.3063 123.573 92.1453C123.573 90.4325 123.571 88.7198 123.568 87.0073L122.16 88.4155H139.057L137.648 87.0073V129.076C137.648 130.888 140.465 130.891 140.465 129.076V87.0073C140.46 86.6355 140.309 86.2804 140.047 86.0174C139.784 85.7545 139.428 85.6044 139.057 85.5991H122.159C121.787 85.6044 121.432 85.7545 121.169 86.0174C120.906 86.2804 120.756 86.6355 120.75 87.0073C120.75 91.578 120.755 96.1486 120.765 100.719C120.772 108.045 120.779 115.372 120.786 122.698C120.789 124.838 120.79 126.977 120.792 129.117C120.792 130.929 123.608 130.932 123.608 129.117H123.609Z" fill="#211715"/>
<path d="M181.144 127.578C179.353 127.578 177.563 127.58 175.772 127.585C172.547 127.591 169.323 127.597 166.098 127.604C161.795 127.613 157.495 127.622 153.197 127.632L137.942 127.667L121.4 127.705L104.575 127.743L88.4735 127.779C83.7045 127.789 78.9353 127.799 74.1659 127.809C70.2825 127.817 66.3987 127.824 62.5145 127.831C59.8757 127.835 57.2374 127.839 54.5994 127.841H53.3526C51.5402 127.841 51.5372 130.657 53.3526 130.657C55.6362 130.657 57.9198 130.655 60.2033 130.65L71.0363 130.631C75.6151 130.622 80.1938 130.613 84.7723 130.603L100.545 130.568L117.286 130.53L133.99 130.491L149.65 130.456L163.2 130.426L173.771 130.404C175.942 130.4 178.113 130.396 180.284 130.394H181.143C182.955 130.394 182.958 127.578 181.143 127.578H181.144Z" fill="#211715"/>
</svg>
