<svg width="64" height="64" viewBox="0 0 64 64" fill="none" xmlns="http://www.w3.org/2000/svg">
<circle cx="32" cy="32" r="32" fill="#E12A2E"/>
<path d="M26.6667 28H37.3333M26.6667 33.3333H34.6667M40 21.3333C41.0609 21.3333 42.0783 21.7547 42.8284 22.5049C43.5786 23.255 44 24.2724 44 25.3333V36C44 37.0608 43.5786 38.0783 42.8284 38.8284C42.0783 39.5786 41.0609 40 40 40H33.3333L26.6667 44V40H24C22.9391 40 21.9217 39.5786 21.1716 38.8284C20.4214 38.0783 20 37.0608 20 36V25.3333C20 24.2724 20.4214 23.255 21.1716 22.5049C21.9217 21.7547 22.9391 21.3333 24 21.3333H40Z" stroke="white" stroke-width="2" stroke-linecap="round" stroke-linejoin="round"/>
</svg>
