<svg width="65" height="65" viewBox="0 0 65 65" fill="none" xmlns="http://www.w3.org/2000/svg">
<circle cx="32.5" cy="32.5" r="32.5" fill="#2AABEE"/>
<path d="M46.6098 19.2738C46.4549 19.14 46.2664 19.051 46.0646 19.0164C45.8629 18.9818 45.6555 19.003 45.4648 19.0775L20.1323 28.9913C19.7733 29.1309 19.4694 29.3833 19.2662 29.7106C19.0631 30.0379 18.9718 30.4224 19.0061 30.806C19.0403 31.1897 19.1983 31.5519 19.4562 31.838C19.7141 32.1241 20.058 32.3187 20.4361 32.3925L26.9998 33.6813V41C26.9985 41.3987 27.117 41.7885 27.3399 42.119C27.5628 42.4496 27.8798 42.7055 28.2498 42.8538C28.6193 43.0046 29.0257 43.0409 29.416 42.9577C29.8064 42.8746 30.1627 42.6759 30.4386 42.3875L33.6036 39.105L38.6248 43.5C38.9871 43.8213 39.4543 43.9992 39.9386 44C40.1508 43.9998 40.3617 43.9665 40.5636 43.9013C40.8935 43.7966 41.1903 43.6073 41.4243 43.3522C41.6583 43.0971 41.8214 42.7852 41.8973 42.4475L46.9711 20.375C47.0165 20.176 47.0068 19.9683 46.9432 19.7743C46.8795 19.5803 46.7643 19.4073 46.6098 19.2738ZM38.9673 23.7738L27.7686 31.7938L21.5686 30.5775L38.9673 23.7738ZM28.9998 41V35.065L32.0986 37.7825L28.9998 41ZM39.9411 42L29.6061 32.9375L44.4811 22.2763L39.9411 42Z" fill="white"/>
</svg>
