<svg width="65" height="65" viewBox="0 0 65 65" fill="none" xmlns="http://www.w3.org/2000/svg">
<circle cx="32.5" cy="32.5" r="32.5" fill="#793BAA"/>
<path d="M27.6198 23.2694C27.372 23.2333 27.1193 23.2832 26.9038 23.4107H26.8851C26.3851 23.704 25.9345 24.0734 25.5505 24.508C25.2305 24.8774 25.0571 25.2507 25.0118 25.6107C24.9851 25.824 25.0038 26.04 25.0665 26.244L25.0905 26.2574C25.4505 27.3147 25.9198 28.332 26.4931 29.2894C27.2324 30.634 28.1421 31.8776 29.1998 32.9894L29.2318 33.0347L29.2825 33.072L29.3131 33.108L29.3505 33.14C30.4661 34.2009 31.7126 35.1149 33.0598 35.86C34.5998 36.6987 35.5345 37.0947 36.0958 37.26V37.268C36.2598 37.3187 36.4091 37.3414 36.5598 37.3414C37.0379 37.306 37.4903 37.1117 37.8451 36.7894C38.2785 36.4054 38.6451 35.9534 38.9305 35.4507V35.4414C39.1985 34.9347 39.1078 34.4574 38.7211 34.1334C37.9445 33.4547 37.1046 32.852 36.2131 32.3334C35.6158 32.0094 35.0091 32.2054 34.7638 32.5334L34.2398 33.1947C33.9705 33.5227 33.4825 33.4774 33.4825 33.4774L33.4691 33.4854C29.8278 32.556 28.8558 28.8694 28.8558 28.8694C28.8558 28.8694 28.8105 28.368 29.1478 28.112L29.8038 27.584C30.1185 27.328 30.3371 26.7227 29.9998 26.1254C29.4846 25.233 28.8831 24.3935 28.2038 23.6187C28.0556 23.4363 27.8479 23.3122 27.6171 23.268L27.6198 23.2694ZM33.7731 21.6667C33.5963 21.6667 33.4268 21.7369 33.3017 21.8619C33.1767 21.987 33.1065 22.1565 33.1065 22.3334C33.1065 22.5102 33.1767 22.6797 33.3017 22.8048C33.4268 22.9298 33.5963 23 33.7731 23C35.4585 23 36.8585 23.5507 37.9665 24.6067C38.5358 25.184 38.9798 25.868 39.2705 26.6174C39.5625 27.368 39.6958 28.1694 39.6611 28.972C39.6537 29.1488 39.7168 29.3214 39.8366 29.4516C39.9564 29.5819 40.123 29.6593 40.2998 29.6667C40.4766 29.6741 40.6491 29.611 40.7794 29.4912C40.9097 29.3715 40.987 29.2048 40.9945 29.028C41.0358 28.0407 40.8719 27.0555 40.5131 26.1347C40.1528 25.2095 39.6064 24.3682 38.9078 23.6627L38.8945 23.6494C37.5198 22.336 35.7811 21.6667 33.7731 21.6667Z" fill="white"/>
<path d="M33.7267 23.8587C33.5499 23.8587 33.3803 23.9289 33.2553 24.054C33.1303 24.179 33.0601 24.3485 33.0601 24.5254C33.0601 24.7022 33.1303 24.8717 33.2553 24.9968C33.3803 25.1218 33.5499 25.192 33.7267 25.192H33.7494C34.9654 25.2787 35.8507 25.684 36.4707 26.3494C37.1067 27.0347 37.4361 27.8867 37.4107 28.94C37.4067 29.1168 37.473 29.288 37.5951 29.4159C37.7173 29.5438 37.8852 29.618 38.0621 29.622C38.2389 29.6261 38.4101 29.5598 38.538 29.4376C38.6659 29.3155 38.74 29.1475 38.7441 28.9707C38.7761 27.588 38.3307 26.3947 37.4481 25.4427V25.44C36.5454 24.472 35.3067 23.96 33.8161 23.86L33.7934 23.8574L33.7267 23.8587Z" fill="white"/>
<path d="M33.7013 26.092C33.6121 26.0841 33.5222 26.0943 33.437 26.1219C33.3518 26.1496 33.2731 26.1941 33.2055 26.2528C33.1379 26.3116 33.0828 26.3834 33.0435 26.4639C33.0043 26.5444 32.9816 26.632 32.977 26.7214C32.9723 26.8108 32.9857 26.9003 33.0164 26.9845C33.0471 27.0686 33.0944 27.1457 33.1555 27.2112C33.2167 27.2766 33.2904 27.3291 33.3722 27.3654C33.4541 27.4017 33.5425 27.4212 33.632 27.4227C34.1893 27.452 34.5453 27.62 34.7693 27.8453C34.9947 28.072 35.1627 28.436 35.1933 29.0053C35.195 29.0948 35.2147 29.183 35.2511 29.2647C35.2876 29.3464 35.3402 29.42 35.4057 29.4809C35.4712 29.5419 35.5483 29.589 35.6324 29.6196C35.7165 29.6501 35.8059 29.6634 35.8952 29.6587C35.9846 29.6539 36.0721 29.6312 36.1525 29.592C36.2329 29.5527 36.3046 29.4976 36.3632 29.4301C36.4219 29.3625 36.4664 29.2838 36.494 29.1987C36.5216 29.1136 36.5318 29.0238 36.524 28.9347C36.4813 28.1347 36.2307 27.428 35.7173 26.908C35.2013 26.388 34.4987 26.1347 33.7013 26.092Z" fill="white"/>
<path fill-rule="evenodd" clip-rule="evenodd" d="M26.4229 18.1786C30.6657 17.2302 35.0655 17.2302 39.3082 18.1786L39.7602 18.2786C41.0005 18.5559 42.1396 19.1716 43.051 20.0573C43.9624 20.9431 44.6103 22.0641 44.9229 23.296C45.9998 27.5398 45.9998 31.9855 44.9229 36.2293C44.6103 37.4612 43.9624 38.5822 43.051 39.4679C42.1396 40.3537 41.0005 40.9694 39.7602 41.2466L39.3069 41.3466C36.6496 41.9409 33.9229 42.1648 31.2042 42.012L27.6669 45.1773C27.5335 45.2967 27.3706 45.3781 27.195 45.4131C27.0195 45.448 26.8377 45.4352 26.6688 45.3759C26.4999 45.3167 26.35 45.2131 26.2348 45.0762C26.1195 44.9392 26.0431 44.7739 26.0136 44.5973L25.4282 41.1013C24.3058 40.7521 23.2917 40.1208 22.4829 39.2678C21.674 38.4148 21.0974 37.3687 20.8082 36.2293C19.7312 31.9855 19.7312 27.5398 20.8082 23.296C21.1208 22.0641 21.7688 20.9431 22.6801 20.0573C23.5915 19.1716 24.7306 18.5559 25.9709 18.2786L26.4229 18.1786ZM38.8722 20.1293C34.9166 19.2451 30.8145 19.2451 26.8589 20.1293L26.4056 20.2306C25.5265 20.4275 24.7193 20.8642 24.0734 21.4922C23.4275 22.1201 22.9684 22.9148 22.7469 23.788C21.7519 27.7089 21.7519 31.8163 22.7469 35.7373C22.9685 36.6106 23.4279 37.4055 24.074 38.0334C24.7201 38.6614 25.5276 39.098 26.4069 39.2946L26.5269 39.3213C26.721 39.3647 26.8978 39.465 27.0346 39.6095C27.1714 39.7539 27.262 39.9358 27.2949 40.132L27.6869 42.476L30.1829 40.2426C30.2826 40.1532 30.3992 40.0847 30.5259 40.0412C30.6525 39.9976 30.7866 39.98 30.9202 39.9893C33.5856 40.1784 36.2644 39.9785 38.8722 39.396L39.3242 39.2946C40.2035 39.098 41.0111 38.6614 41.6572 38.0334C42.3033 37.4055 42.7626 36.6106 42.9842 35.7373C43.9789 31.8173 43.9789 27.7093 42.9842 23.788C42.7626 22.9146 42.3033 22.1198 41.6572 21.4918C41.0111 20.8639 40.2035 20.4273 39.3242 20.2306L38.8722 20.1293Z" fill="white"/>
</svg>
