<svg width="65" height="65" viewBox="0 0 65 65" fill="none" xmlns="http://www.w3.org/2000/svg">
<circle cx="32.5" cy="32.5" r="32.5" fill="#37AD00"/>
<path d="M42.9201 34.3334C42.6268 34.3334 42.3201 34.24 42.0268 34.1734C41.4328 34.0425 40.849 33.8687 40.2801 33.6534C39.6616 33.4283 38.9817 33.44 38.3712 33.6862C37.7608 33.9323 37.2629 34.3955 36.9735 34.9867L36.6801 35.5867C35.3815 34.8643 34.1881 33.967 33.1335 32.92C32.0865 31.8654 31.1892 30.672 30.4668 29.3734L31.0268 29C31.618 28.7106 32.0812 28.2127 32.3273 27.6023C32.5735 26.9918 32.5852 26.3119 32.3601 25.6934C32.1484 25.1233 31.9747 24.5398 31.8401 23.9467C31.7735 23.6534 31.7201 23.3467 31.6801 23.04C31.5182 22.1009 31.0263 21.2504 30.293 20.6417C29.5596 20.033 28.6331 19.7062 27.6801 19.72H23.6801C23.1055 19.7146 22.5365 19.8331 22.0117 20.0674C21.487 20.3017 21.0189 20.6463 20.6394 21.0777C20.2598 21.5092 19.9776 22.0174 19.8121 22.5676C19.6466 23.1179 19.6016 23.6974 19.6801 24.2667C20.3905 29.8525 22.9415 35.0425 26.9303 39.0169C30.9192 42.9912 36.1184 45.5234 41.7068 46.2134H42.2135C43.1967 46.2148 44.146 45.8541 44.8801 45.2C45.302 44.8228 45.6389 44.3603 45.8688 43.8431C46.0986 43.326 46.2161 42.7659 46.2135 42.2V38.2C46.1971 37.2739 45.8599 36.3821 45.2593 35.6769C44.6586 34.9717 43.8319 34.4969 42.9201 34.3334ZM43.5868 42.3334C43.5866 42.5227 43.546 42.7098 43.4678 42.8822C43.3897 43.0546 43.2757 43.2084 43.1335 43.3334C42.9849 43.4627 42.8108 43.5592 42.6224 43.6167C42.434 43.6741 42.2356 43.6912 42.0401 43.6667C37.0467 43.0264 32.4084 40.742 28.8571 37.1737C25.3057 33.6055 23.0433 28.9565 22.4268 23.96C22.4056 23.7647 22.4242 23.5671 22.4815 23.3792C22.5388 23.1913 22.6336 23.0169 22.7601 22.8667C22.8851 22.7245 23.0389 22.6105 23.2113 22.5323C23.3837 22.4542 23.5708 22.4136 23.7601 22.4134H27.7601C28.0702 22.4065 28.373 22.5079 28.6163 22.7001C28.8597 22.8924 29.0284 23.1635 29.0935 23.4667C29.1468 23.8311 29.2135 24.1911 29.2935 24.5467C29.4475 25.2496 29.6525 25.9403 29.9068 26.6134L28.0401 27.48C27.8805 27.5533 27.737 27.6573 27.6177 27.7862C27.4984 27.915 27.4057 28.0662 27.345 28.231C27.2843 28.3957 27.2568 28.5709 27.2639 28.7463C27.2711 28.9218 27.3129 29.0941 27.3868 29.2534C29.3057 33.3637 32.6098 36.6678 36.7201 38.5867C37.0447 38.7201 37.4089 38.7201 37.7335 38.5867C37.8998 38.5272 38.0526 38.4353 38.183 38.3163C38.3135 38.1973 38.419 38.0535 38.4935 37.8934L39.3201 36.0267C40.0094 36.2732 40.7129 36.478 41.4268 36.64C41.7824 36.72 42.1424 36.7867 42.5068 36.84C42.81 36.9051 43.0811 37.0738 43.2734 37.3172C43.4656 37.5605 43.567 37.8633 43.5601 38.1734L43.5868 42.3334Z" fill="white"/>
</svg>
