<svg width="65" height="65" viewBox="0 0 65 65" fill="none" xmlns="http://www.w3.org/2000/svg">
<circle cx="32.5" cy="32.5" r="32.5" fill="#2AABEE"/>
<path d="M17.1995 29.7759C25.7911 25.2604 31.5188 22.2832 34.3826 20.8449C42.569 16.7377 44.268 16.0244 45.3776 16.0002C45.6216 15.9955 46.1649 16.0683 46.5195 16.4141C46.8141 16.7058 46.897 17.1002 46.9384 17.3771C46.9753 17.6538 47.0259 18.2844 46.9845 18.7766C46.5425 24.3988 44.6225 38.042 43.6464 44.3392C43.2366 47.0036 42.4217 47.8969 41.6343 47.9841C39.9215 48.1741 38.6231 46.6197 36.9656 45.3092C34.3734 43.2575 32.9093 41.9809 30.3907 39.9792C27.4808 37.6659 29.3686 36.3942 31.0261 34.3165C31.4589 33.7726 39.0007 25.4976 39.1434 24.7471C39.1618 24.6532 39.1803 24.3032 39.0053 24.1188C38.8349 23.9338 38.5817 23.9971 38.3975 24.0471C38.1351 24.1182 33.9959 27.4226 25.966 33.9598C24.7919 34.9342 23.7284 35.4092 22.7707 35.3842C21.7209 35.357 19.695 34.6665 18.1894 34.0765C16.3477 33.3526 14.879 32.9698 15.0079 31.7404C15.0723 31.1004 15.8044 30.4454 17.1995 29.7759Z" fill="white"/>
</svg>
