<svg width="65" height="65" viewBox="0 0 65 65" fill="none" xmlns="http://www.w3.org/2000/svg">
<circle cx="32.5" cy="32.5" r="32.5" fill="#37AD00"/>
<g clip-path="url(#clip0_771_6086)">
<path d="M17.1338 31.8035C17.1329 34.5889 17.8662 37.308 19.2605 39.7048L17 47.8942L25.4464 45.6967C27.7736 46.9558 30.3939 47.6196 33.0601 47.6206H33.067C41.848 47.6206 48.9963 40.53 49 31.8162C49.0015 27.5932 47.3455 23.6221 44.3375 20.6348C41.3291 17.6479 37.3291 16.0017 33.067 16C24.2845 16 17.1373 23.0896 17.1338 31.8035ZM22.1638 39.292L21.8484 38.7953C20.5226 36.7036 19.8229 34.2865 19.8239 31.8045C19.8267 24.5617 25.7673 18.6691 33.072 18.6691C36.6095 18.6706 39.934 20.0389 42.4345 22.5216C44.9349 25.0044 46.3108 28.3049 46.3099 31.8152C46.3066 39.058 40.366 44.9513 33.067 44.9513H33.0618C30.6851 44.9501 28.3542 44.3168 26.3215 43.12L25.8378 42.8353L20.8255 44.1393L22.1638 39.2919V39.292Z" fill="white"/>
<path d="M29.0849 25.1967C28.7867 24.5389 28.4728 24.5257 28.1892 24.5141C27.9569 24.5042 27.6914 24.505 27.4262 24.505C27.1607 24.505 26.7293 24.6041 26.3647 24.9991C25.9997 25.3945 24.9712 26.35 24.9712 28.2935C24.9712 30.237 26.3978 32.1153 26.5967 32.3791C26.7958 32.6424 29.3508 36.7582 33.3973 38.3416C36.7603 39.6575 37.4447 39.3957 38.1746 39.3298C38.9046 39.264 40.5301 38.3745 40.8617 37.4521C41.1936 36.5298 41.1936 35.7392 41.0941 35.574C40.9946 35.4094 40.7291 35.3105 40.3309 35.1131C39.9327 34.9155 37.9754 33.9598 37.6106 33.828C37.2456 33.6963 36.9802 33.6305 36.7147 34.0261C36.4492 34.421 35.6868 35.3105 35.4544 35.574C35.2223 35.838 34.9899 35.8709 34.5919 35.6733C34.1936 35.4751 32.9114 35.0585 31.3903 33.7129C30.2068 32.6658 29.4078 31.3728 29.1756 30.9773C28.9433 30.5824 29.1507 30.3683 29.3503 30.1714C29.5292 29.9944 29.7486 29.7102 29.9478 29.4796C30.1463 29.2489 30.2126 29.0843 30.3453 28.8209C30.4782 28.5572 30.4117 28.3265 30.3123 28.1289C30.2126 27.9313 29.4389 25.9777 29.0849 25.1967Z" fill="white"/>
</g>
<defs>
<clipPath id="clip0_771_6086">
<rect width="32" height="32" fill="white" transform="translate(17 16)"/>
</clipPath>
</defs>
</svg>
