<svg width="100" height="100" viewBox="0 0 100 100" fill="none" xmlns="http://www.w3.org/2000/svg">
<g clip-path="url(#clip0_856_6632)">
<mask id="mask0_856_6632" style="mask-type:luminance" maskUnits="userSpaceOnUse" x="0" y="0" width="100" height="100">
<path d="M100 0H0V100H100V0Z" fill="white"/>
</mask>
<g mask="url(#mask0_856_6632)">
<path d="M40.8716 6.12982C40.5674 6.12982 40.3645 6.0284 40.1617 5.82556C39.9588 5.62272 39.8574 5.31846 39.8574 5.11562C39.8574 4.81136 39.9588 4.60852 40.1617 4.40568C40.3645 4.10142 40.5674 4 40.8716 4C41.1759 4 41.3787 4.10142 41.5816 4.30426C41.7844 4.5071 41.8858 4.81136 41.8858 5.0142C41.8858 5.31846 41.7844 5.5213 41.5816 5.72414C41.3787 6.0284 41.1759 6.12982 40.8716 6.12982Z" fill="#FD0037"/>
<path d="M49.8983 57.9554C48.1742 57.9554 46.6529 56.9412 46.0444 55.3185L45.6387 54.5071L44.8274 54.7099C44.4217 54.8114 44.016 54.9128 43.6103 54.9128C41.7848 54.9128 40.2635 53.7972 39.6549 52.073L39.3507 51.2617L38.4379 51.4645C38.0322 51.6673 37.728 51.6673 37.3223 51.6673C34.9896 51.6673 33.1641 49.7404 33.1641 47.5091V29.9635C33.1641 25.501 34.8882 21.4442 38.0322 18.3002L39.9592 16.3732V12.1136C39.9592 11.5051 40.4663 11.0994 40.9734 11.0994C41.4805 11.0994 41.9876 11.6065 41.9876 12.1136V16.7789C41.9876 17.0832 41.8862 17.286 41.6833 17.4888L39.4521 19.7201C36.7138 22.4584 35.1925 26.0081 35.1925 29.8621V47.4077C35.1925 48.5233 36.1052 49.5375 37.3223 49.5375C38.3365 49.5375 39.2493 48.7262 39.3507 47.712V42.4381C39.3507 41.8296 39.8578 41.4239 40.3649 41.4239C40.9734 41.4239 41.3791 41.931 41.3791 42.4381V47.4077C41.3791 47.5091 41.3791 47.6105 41.3791 47.712V50.7546C41.3791 51.8702 42.2919 52.8844 43.5089 52.8844C44.5231 52.8844 45.4359 52.073 45.5373 51.0588V42.4381C45.5373 41.8296 46.0444 41.4239 46.5515 41.4239C47.16 41.4239 47.5657 41.931 47.5657 42.4381V50.7546C47.5657 50.856 47.5657 50.9574 47.5657 51.0588V53.7972C47.5657 54.9128 48.4785 55.927 49.6955 55.927C50.8111 55.927 51.8253 55.0142 51.8253 53.7972V51.1602C51.8253 51.0588 51.8253 50.9574 51.8253 50.856V42.5396C51.8253 41.931 52.3324 41.5253 52.8395 41.5253C53.448 41.5253 53.8537 42.0325 53.8537 42.5396V50.9574C53.9551 52.073 54.8679 52.8844 55.9835 52.8844C57.0992 52.8844 58.1134 51.9716 58.1134 50.7546V34.5274C58.1134 33.716 58.7219 33.1075 59.4318 33.0061C59.5332 33.0061 59.5332 33.0061 59.6347 33.0061C60.3446 33.0061 60.9531 33.4118 61.0545 34.1217L61.8659 37.57C62.0687 38.5842 62.9815 39.1927 63.9957 39.1927C64.0971 39.1927 64.1986 39.1927 64.4014 39.1927C65.0099 39.0913 65.517 38.787 65.8213 38.2799C66.1255 37.7728 66.2269 37.1643 66.1255 36.6572L64.5028 28.3408C63.9957 25.501 62.5758 22.9655 60.5474 20.9371L57.0992 17.4888C56.8963 17.286 56.7949 16.9817 56.7949 16.7789V5.0142C56.7949 4.40568 57.302 4 57.8091 4C58.3162 4 58.8233 4.5071 58.8233 5.0142V16.3732L61.9673 19.4158C64.3 21.7485 65.8213 24.6897 66.5312 27.9351L68.1539 36.2515C68.3568 37.3671 68.1539 38.5842 67.444 39.497C66.8355 40.4097 65.8213 41.1197 64.7057 41.3225C64.5028 41.3225 64.1985 41.4239 63.9957 41.4239C63.1844 41.4239 62.373 41.2211 61.6631 40.714L60.2432 39.6998V50.7546C60.2432 53.0872 58.3162 54.9128 56.085 54.9128C55.6793 54.9128 55.2736 54.8114 54.8679 54.7099L54.0566 54.5071L53.7523 55.3185C53.1438 56.9412 51.6225 57.9554 49.8983 57.9554Z" fill="#FD0037"/>
<path d="M9.63489 95.8863C9.22921 95.8863 8.92495 95.6835 8.72211 95.3792C8.62069 95.1764 8.51927 94.8722 8.62069 94.5679C8.72211 94.2636 8.82353 94.0608 9.12779 93.9594L15.3144 90.4097C15.5172 90.3083 15.6187 90.3083 15.8215 90.3083C15.9229 90.3083 16.0243 90.3083 16.1258 90.3083L19.1684 91.1196C20.3854 91.4239 21.7039 91.6267 22.9209 91.6267C25.4564 91.6267 27.8905 90.9168 30.1217 89.6997L45.2333 80.9776C46.2475 80.3691 46.5517 79.1521 46.0446 78.1379C45.7404 77.6308 45.3347 77.3265 44.7262 77.1237C44.5233 77.1237 44.3205 77.0223 44.2191 77.0223C43.9148 77.0223 43.712 77.1237 43.4077 77.2251L38.8438 79.862C38.641 79.9634 38.5396 79.9634 38.3367 79.9634C37.931 79.9634 37.6268 79.7606 37.4239 79.4563C37.3225 79.2535 37.2211 78.9492 37.3225 78.645C37.4239 78.3407 37.5254 78.1379 37.8296 78.0365L42.1907 75.501C42.2921 75.501 42.3935 75.3995 42.3935 75.3995L45.0304 73.8782C46.0446 73.2697 46.3489 72.0527 45.8418 71.0385C45.4361 70.43 44.7262 70.0243 44.0162 70.0243C43.712 70.0243 43.5091 70.1257 43.2049 70.2271L35.8012 74.4868C35.5984 74.5882 35.497 74.5882 35.2941 74.5882C34.9899 74.5882 34.6856 74.4868 34.4828 74.2839C34.3813 74.1825 34.3813 74.1825 34.3813 74.0811C34.2799 73.8782 34.1785 73.574 34.2799 73.2697C34.3813 72.9655 34.4828 72.7626 34.787 72.6612L41.9878 68.503C42.0893 68.503 42.1907 68.4016 42.1907 68.4016L44.5233 67.0831C45.0304 66.7788 45.3347 66.3732 45.5375 65.7647C45.6389 65.2576 45.6389 64.649 45.3347 64.1419C44.929 63.5334 44.2191 63.1277 43.5091 63.1277C43.1035 63.1277 42.7992 63.2292 42.4949 63.432L40.1623 64.7505C40.0609 64.8519 39.9594 64.8519 39.858 64.9533L32.5558 68.9087C32.3529 69.0101 32.2515 69.0101 32.0487 69.0101C31.643 69.0101 31.3387 68.8072 31.1359 68.503C31.0345 68.3001 30.9331 67.9959 31.0345 67.6916C31.1359 67.3874 31.2373 67.1845 31.5416 67.0831L38.8438 62.8235C39.3509 62.5192 39.5538 62.1135 39.7566 61.6064C39.858 61.0993 39.858 60.4908 39.5538 59.9837C39.2495 59.4766 38.8438 59.1724 38.2353 58.9695C38.0325 58.9695 37.8296 58.8681 37.7282 58.8681C37.3225 58.8681 37.0183 58.9695 36.714 59.1724L22.7181 67.2859C22.5152 67.3874 22.211 67.4888 21.9067 67.4888C21.3996 67.4888 20.9939 67.2859 20.6897 66.8803C20.1826 66.2717 20.284 65.4604 20.8925 64.8519L23.428 62.4178C24.2394 61.6064 24.3408 60.288 23.6308 59.4766C23.2252 59.0709 22.7181 58.7667 22.1095 58.6653H21.9067C21.3996 58.6653 20.8925 58.8681 20.4868 59.1724L13.9959 64.8519C11.8661 66.7788 10.3448 69.2129 9.53347 71.9513L8.31643 76.6166C8.21501 76.9208 8.11359 77.1237 7.80933 77.2251L1.62272 80.8762C1.41988 80.9776 1.21704 81.079 1.0142 81.079C0.608519 81.079 0.30426 80.8762 0.10142 80.5719C0 80.2677 0 79.9634 0 79.7606C0.10142 79.4563 0.20284 79.2535 0.507099 79.1521L6.38945 75.8052L7.50507 71.5456C8.31643 68.4016 10.142 65.5618 12.5761 63.3306L18.9655 57.7525C19.7769 57.0425 20.6897 56.7383 21.8053 56.7383C21.9067 56.7383 22.0081 56.7383 22.1095 56.7383C23.2252 56.8397 24.3408 57.3468 25.0507 58.2596C25.7607 59.0709 26.0649 60.1866 26.0649 61.3022L25.9635 63.0263L35.497 57.5496C36.1055 57.144 36.8154 56.9411 37.6268 56.9411C38.0325 56.9411 38.3367 56.9411 38.7424 57.0425C39.858 57.3468 40.7708 58.0567 41.2779 58.9695C41.4807 59.3752 41.6836 59.7809 41.785 60.1866L41.9878 60.9979L42.7992 60.8965C43.002 60.8965 43.2049 60.8965 43.4077 60.8965C44.929 60.8965 46.3489 61.7079 47.0588 63.0263C47.6673 64.0405 47.7688 65.1561 47.4645 66.1703C47.3631 66.6774 47.0588 67.1845 46.7546 67.6916L46.2475 68.4016L46.856 69.0101C47.1602 69.3143 47.4645 69.6186 47.6673 70.0243C48.5801 71.5456 48.3773 73.574 47.1602 74.8924L46.5517 75.6024L47.1602 76.2109C47.4645 76.5152 47.6673 76.8194 47.8702 77.1237C48.9858 79.1521 48.3773 81.6876 46.3489 82.9046L31.2373 91.6267C28.7018 93.0466 25.8621 93.858 23.0223 93.858C21.6024 93.858 20.0811 93.6551 18.6613 93.2494L16.1258 92.5395L10.142 95.7849C10.0406 95.8863 9.83773 95.8863 9.63489 95.8863Z" fill="white"/>
<path d="M90.3657 95.8865C90.1629 95.8865 89.9601 95.8865 89.8587 95.785L83.9763 92.4382L79.7167 93.5538C78.2968 93.9595 76.8769 94.1623 75.457 94.1623C73.6315 94.1623 71.9073 93.8581 70.1832 93.2496L62.0696 90.5112C60.954 90.1055 60.1426 89.3956 59.6355 88.28C59.1284 87.1644 59.1284 86.0487 59.4327 84.9331C59.8384 83.9189 60.5483 83.0061 61.5625 82.6005L63.1852 81.7891L53.6518 76.3124C51.6234 75.1968 50.9134 72.5599 52.1305 70.5315C52.3333 70.1258 52.6376 69.8216 52.9418 69.5173L53.5503 68.9088L53.0432 68.1988C52.029 66.8804 51.8262 64.9534 52.739 63.5335C53.4489 62.2151 54.8688 61.4037 56.3901 61.4037C56.5929 61.4037 56.7958 61.4037 56.9986 61.4037L57.81 61.5051L58.0128 60.6938C58.1142 60.2881 58.2156 59.8824 58.5199 59.4767C59.1284 58.4625 59.9398 57.854 61.0554 57.5498C61.4611 57.4483 61.7653 57.4483 62.171 57.4483C62.4753 57.4483 62.6781 57.4483 62.9824 57.5498L63.8952 57.7526L64.098 56.8398C64.1994 56.4341 64.3008 56.1299 64.5037 55.7242C65.1122 54.71 65.9236 54.1015 67.0392 53.7972C67.4449 53.6958 67.7491 53.6958 68.1548 53.6958C68.8647 53.6958 69.5747 53.8986 70.2846 54.3043L85.3962 63.0264C89.2501 65.2577 91.9885 68.8074 93.1041 73.067L93.814 75.6025L99.6964 78.9494C100.203 79.2536 100.406 79.8621 100.102 80.3692C99.8992 80.6735 99.595 80.8763 99.1893 80.8763C98.9864 80.8763 98.7836 80.8763 98.6822 80.7749L92.4956 77.1238C92.2927 77.0224 92.0899 76.7181 91.9885 76.5153L91.1771 73.4727C90.1629 69.7201 87.8303 66.6775 84.4834 64.7506L69.3718 56.0285C69.0676 55.8256 68.6619 55.7242 68.3576 55.7242C68.1548 55.7242 67.952 55.7242 67.8505 55.8256C67.3434 55.927 66.8363 56.3327 66.5321 56.8398C66.025 57.7526 66.2278 58.8682 67.0392 59.5782L71.6031 62.2151C71.8059 62.3165 72.0087 62.6208 72.1102 62.8236C72.2116 63.1278 72.1102 63.3307 72.0087 63.6349C72.0087 63.7364 71.9073 63.7364 71.9073 63.8378C71.7045 64.0406 71.4002 64.142 71.096 64.142C70.8931 64.142 70.6903 64.142 70.5889 64.0406L65.9236 61.6066C65.8221 61.6066 65.8221 61.5051 65.7207 61.5051L63.0838 59.9838C62.7795 59.781 62.3739 59.6796 62.0696 59.6796C61.8668 59.6796 61.6639 59.6796 61.5625 59.781C61.0554 59.8824 60.5483 60.2881 60.244 60.7952C59.9398 61.3023 59.8384 61.8094 60.0412 62.4179C60.1426 62.925 60.4469 63.3307 60.8526 63.5335L68.2562 67.7932C68.4591 67.8946 68.6619 68.1988 68.7633 68.4017C68.8647 68.7059 68.7633 68.9088 68.6619 69.213C68.6619 69.3145 68.5605 69.3145 68.5605 69.4159C68.3576 69.6187 68.0534 69.7201 67.7491 69.7201C67.5463 69.7201 67.3434 69.7201 67.242 69.6187L60.0412 65.4605C59.9398 65.4605 59.8384 65.3591 59.8384 65.3591L57.5057 64.0406C57.2014 63.8378 56.7958 63.7364 56.4915 63.7364C56.2887 63.7364 56.0858 63.7364 55.9844 63.8378C55.4773 63.9392 54.9702 64.3449 54.666 64.852C54.3617 65.3591 54.2603 65.8662 54.4631 66.4747C54.5645 66.9818 54.9702 67.4889 55.4773 67.7932L57.81 69.1116C57.9114 69.213 58.0128 69.213 58.1142 69.213L65.315 73.3713C65.8221 73.6755 66.025 74.284 65.7207 74.7911C65.7207 74.8926 65.6193 74.8926 65.6193 74.994C65.4165 75.1968 65.1122 75.2982 64.8079 75.2982C64.6051 75.2982 64.4023 75.2982 64.3008 75.1968L56.9986 70.9372C56.6943 70.7343 56.3901 70.7343 56.0858 70.7343C55.883 70.7343 55.6801 70.7343 55.5787 70.8358C55.0716 70.9372 54.5645 71.3429 54.2603 71.85C53.6518 72.8642 54.0574 74.1826 55.0716 74.6897L69.0676 82.8033C69.7775 83.209 69.9803 84.0203 69.6761 84.7303C69.4732 85.3388 68.9662 85.6431 68.2562 85.6431C68.1548 85.6431 67.952 85.6431 67.8505 85.5416L64.4023 84.5274C64.1994 84.426 63.9966 84.426 63.7937 84.426C62.881 84.426 62.0696 85.0345 61.7653 85.8459C61.5625 86.353 61.5625 86.9615 61.8668 87.57C62.171 88.0771 62.5767 88.4828 63.0838 88.6857L71.1974 91.424C72.7187 91.9311 74.24 92.2354 75.8627 92.2354C77.0797 92.2354 78.3982 92.0325 79.6152 91.7283L84.2806 90.5112C84.382 90.5112 84.4834 90.5112 84.5848 90.5112C84.7877 90.5112 84.9905 90.5112 85.0919 90.6126L91.2785 94.2638C91.4814 94.3652 91.6842 94.6694 91.7856 94.8723C91.8871 95.1765 91.7856 95.3794 91.6842 95.6836C91.0757 95.6836 90.7714 95.8865 90.3657 95.8865Z" fill="white"/>
</g>
</g>
<defs>
<clipPath id="clip0_856_6632">
<rect width="100" height="100" fill="white"/>
</clipPath>
</defs>
</svg>
