<svg width="185" height="185" viewBox="0 0 185 185" fill="none" xmlns="http://www.w3.org/2000/svg">
<g clip-path="url(#clip0_225_39)">
<path d="M98.5595 184.883C96.3391 184.883 94.1205 184.038 92.431 182.35C92.2968 182.216 92.1903 182.057 92.1177 181.882C92.045 181.707 92.0076 181.519 92.0076 181.329C92.0076 181.139 92.045 180.952 92.1177 180.776C92.1903 180.601 92.2968 180.442 92.431 180.308C92.5651 180.174 92.7243 180.067 92.8995 179.995C93.0748 179.922 93.2626 179.885 93.4523 179.885C93.642 179.885 93.8298 179.922 94.005 179.995C94.1803 180.067 94.3395 180.174 94.4736 180.308C96.7301 182.562 100.398 182.559 102.649 180.305C104.899 178.053 104.897 174.388 102.643 172.136C102.509 172.002 102.402 171.843 102.33 171.667C102.257 171.492 102.219 171.304 102.219 171.115C102.219 170.925 102.257 170.737 102.33 170.562C102.402 170.387 102.509 170.228 102.643 170.094C102.777 169.959 102.936 169.853 103.111 169.78C103.286 169.708 103.474 169.67 103.664 169.67C103.854 169.67 104.041 169.708 104.217 169.78C104.392 169.853 104.551 169.959 104.685 170.094C108.065 173.47 108.067 178.967 104.691 182.348C103.001 184.037 100.779 184.883 98.5595 184.883ZM112.863 170.589C110.545 170.589 108.367 169.687 106.73 168.048C106.596 167.914 106.489 167.754 106.417 167.579C106.344 167.404 106.306 167.216 106.306 167.027C106.306 166.837 106.344 166.649 106.417 166.474C106.489 166.299 106.596 166.14 106.73 166.005C106.864 165.871 107.023 165.765 107.198 165.692C107.373 165.62 107.561 165.582 107.751 165.582C107.941 165.582 108.128 165.62 108.304 165.692C108.479 165.765 108.638 165.871 108.772 166.005C110.953 168.188 114.759 168.193 116.941 166.011C119.194 163.759 119.192 160.093 116.938 157.839L105.705 146.6C105.571 146.466 105.465 146.307 105.392 146.132C105.32 145.957 105.282 145.769 105.282 145.579C105.282 145.39 105.32 145.202 105.392 145.027C105.465 144.851 105.571 144.692 105.705 144.558C105.84 144.424 105.999 144.318 106.174 144.245C106.349 144.173 106.537 144.135 106.727 144.135C106.916 144.135 107.104 144.173 107.279 144.245C107.454 144.318 107.614 144.424 107.748 144.558L118.981 155.797C122.362 159.176 122.362 164.676 118.984 168.054C117.351 169.688 115.176 170.589 112.863 170.589ZM127.155 156.289C124.935 156.289 122.716 155.444 121.026 153.754L109.794 142.521C109.659 142.386 109.553 142.227 109.48 142.052C109.408 141.877 109.371 141.689 109.371 141.499C109.371 141.31 109.408 141.122 109.48 140.947C109.553 140.772 109.659 140.612 109.794 140.478C109.928 140.344 110.087 140.238 110.262 140.165C110.437 140.093 110.625 140.055 110.815 140.055C111.004 140.055 111.192 140.093 111.367 140.165C111.542 140.238 111.702 140.344 111.836 140.478L123.069 151.712C125.323 153.965 128.987 153.965 131.241 151.712C133.495 149.458 133.495 145.79 131.241 143.536L120.005 132.306C119.441 131.742 119.441 130.828 120.005 130.264C120.569 129.7 121.484 129.7 122.047 130.264L133.283 141.494C136.664 144.874 136.664 150.375 133.283 153.754C131.594 155.444 129.375 156.289 127.155 156.289ZM141.454 141.989C139.236 141.989 137.017 141.146 135.327 139.459L124.09 128.219C123.956 128.085 123.849 127.926 123.777 127.75C123.704 127.575 123.667 127.387 123.667 127.198C123.667 127.008 123.704 126.82 123.777 126.645C123.849 126.47 123.956 126.311 124.09 126.177C124.224 126.042 124.383 125.936 124.558 125.863C124.733 125.791 124.921 125.753 125.111 125.753C125.301 125.753 125.488 125.791 125.664 125.863C125.839 125.936 125.998 126.042 126.132 126.177L137.368 137.415C139.622 139.664 143.286 139.666 145.538 137.415C147.791 135.161 147.791 131.494 145.538 129.24L107.751 91.4559C107.617 91.3219 107.511 91.1627 107.438 90.9875C107.365 90.8123 107.328 90.6245 107.328 90.4348C107.328 90.2451 107.365 90.0573 107.438 89.8821C107.511 89.7069 107.617 89.5477 107.751 89.4137C107.885 89.2795 108.044 89.173 108.22 89.1004C108.395 89.0277 108.583 88.9903 108.772 88.9903C108.962 88.9903 109.15 89.0277 109.325 89.1004C109.5 89.173 109.659 89.2795 109.794 89.4137L147.58 127.197C150.961 130.577 150.961 136.078 147.58 139.457C145.893 141.146 143.675 141.989 141.454 141.989ZM35.3303 120.385C35.0637 120.385 34.8023 120.312 34.575 120.172C34.3477 120.033 34.1634 119.834 34.0425 119.596C27.7872 107.327 25.7291 95.2643 25.6445 94.7563C25.5818 94.3787 25.6715 93.9916 25.8939 93.6802C26.1163 93.3687 26.4533 93.1582 26.8308 93.0949C27.625 92.9764 28.361 93.4967 28.4936 94.2811C28.5135 94.4025 30.5712 106.428 36.6152 118.285C36.7276 118.505 36.7817 118.75 36.7723 118.997C36.7628 119.244 36.6902 119.484 36.5612 119.695C36.4323 119.906 36.2514 120.08 36.0358 120.201C35.8203 120.321 35.5774 120.385 35.3303 120.385ZM78.5798 68.956C78.3885 68.9562 78.1991 68.9182 78.0227 68.8443C67.9944 64.6454 61.1913 61.1094 61.1237 61.074C60.7843 60.8964 60.5292 60.5914 60.4144 60.2259C60.2997 59.8604 60.3346 59.4644 60.5116 59.1246C60.599 58.956 60.7189 58.8064 60.8643 58.6843C61.0097 58.5622 61.1778 58.4701 61.359 58.4132C61.5402 58.3563 61.7308 58.3358 61.9199 58.3529C62.109 58.3699 62.2929 58.4242 62.461 58.5125C62.5275 58.5479 69.2297 62.0319 79.137 66.1785C79.4443 66.3078 79.6975 66.5393 79.8536 66.8339C80.0097 67.1285 80.0592 67.4681 79.9936 67.795C79.928 68.1219 79.7515 68.416 79.4938 68.6276C79.2361 68.8392 78.9132 68.9552 78.5798 68.956ZM147.229 122.156C146.964 122.157 146.704 122.084 146.477 121.945C146.25 121.807 146.066 121.609 145.945 121.373C145.824 121.137 145.769 120.872 145.789 120.608C145.808 120.343 145.9 120.089 146.054 119.873C154.676 107.784 156.338 90.4774 156.354 90.304C156.427 89.5112 157.108 88.9161 157.924 88.9963C158.305 89.0314 158.657 89.2164 158.902 89.5108C159.147 89.8051 159.265 90.1848 159.231 90.5663C159.163 91.3052 157.478 108.832 148.407 121.552C148.273 121.739 148.096 121.892 147.892 121.997C147.687 122.102 147.46 122.157 147.229 122.156ZM86.3036 180.801H86.3021C83.9889 180.801 81.8126 179.899 80.1765 178.263C76.7999 174.887 76.7999 169.389 80.1751 166.007L86.3036 159.878C89.5815 156.604 95.2884 156.606 98.558 159.881C101.936 163.259 101.936 168.757 98.558 172.136L92.4335 178.26C90.7945 179.899 88.6179 180.801 86.3036 180.801ZM92.4321 160.231C91.6728 160.229 90.9206 160.377 90.2191 160.668C89.5175 160.958 88.8803 161.384 88.3444 161.922L82.2188 168.048C79.9691 170.303 79.9677 173.969 82.2188 176.22C82.7537 176.758 83.39 177.185 84.0909 177.475C84.7918 177.766 85.5434 177.915 86.3021 177.913H86.3036C87.8468 177.913 89.2983 177.311 90.3909 176.218L96.5154 170.094C98.7676 167.841 98.7676 164.176 96.5154 161.924C95.9808 161.385 95.3445 160.958 94.6436 160.668C93.9426 160.377 93.1909 160.229 92.4321 160.231ZM72.004 166.503C69.6908 166.503 67.516 165.602 65.8799 163.966C62.5032 160.586 62.5032 155.087 65.8799 151.706L74.0495 143.537C77.3246 140.266 83.0372 140.263 86.3036 143.537C89.6831 146.916 89.6831 152.414 86.3036 155.794L78.1343 163.963C76.4964 165.601 74.3187 166.503 72.004 166.503ZM80.1791 143.889C79.4199 143.887 78.6678 144.035 77.9662 144.325C77.2647 144.615 76.6275 145.041 76.0917 145.579L67.9221 153.748C65.671 156.002 65.671 159.67 67.9221 161.924C68.4568 162.461 69.093 162.888 69.7936 163.178C70.4943 163.468 71.2456 163.617 72.004 163.615C72.7635 163.617 73.5157 163.468 74.2174 163.177C74.919 162.886 75.556 162.459 76.0917 161.921L84.261 153.752C86.5135 151.499 86.5135 147.832 84.261 145.579C83.7264 145.041 83.0903 144.615 82.3895 144.325C81.6888 144.035 80.9375 143.887 80.1791 143.889ZM57.7073 152.202C55.3912 152.202 53.2164 151.303 51.5828 149.666C49.9453 148.032 49.0427 145.855 49.0412 143.54C49.0375 142.401 49.2597 141.273 49.6951 140.22C50.1304 139.168 50.7702 138.212 51.5774 137.409L57.7073 131.282C60.981 128.005 66.6936 128.008 69.9643 131.285C71.6019 132.918 72.5034 135.093 72.5034 137.409C72.5034 139.722 71.6019 141.899 69.9643 143.536L63.8344 149.666C62.1968 151.303 60.0206 152.202 57.7073 152.202ZM63.8347 131.632C63.0758 131.63 62.3239 131.779 61.6227 132.069C60.9216 132.36 60.285 132.787 59.7499 133.325L53.62 139.452C53.0821 139.988 52.6557 140.625 52.3657 141.326C52.0757 142.028 51.9277 142.78 51.9304 143.539C51.9292 144.298 52.0784 145.05 52.3694 145.751C52.6604 146.452 53.0874 147.089 53.6258 147.624C55.8035 149.805 59.609 149.805 61.7925 147.624L67.9224 141.494C68.4607 140.959 68.8874 140.322 69.178 139.621C69.4685 138.92 69.6172 138.168 69.6153 137.409C69.6153 135.866 69.0144 134.418 67.9239 133.329C67.3885 132.789 66.7514 132.362 66.0494 132.071C65.3475 131.779 64.5947 131.63 63.8347 131.632ZM43.4096 137.906H43.4081C41.0935 137.906 38.9186 137.006 37.284 135.37C33.9056 131.989 33.9056 126.491 37.284 123.113L41.3688 119.028C44.6424 115.753 50.3464 115.758 53.62 119.031C55.2575 120.668 56.159 122.843 56.1605 125.156C56.1619 127.469 55.2604 129.645 53.6229 131.282L49.5381 135.367C47.9002 137.005 45.7239 137.906 43.4096 137.906ZM47.4915 119.379C46.7333 119.377 45.9823 119.526 45.2819 119.816C44.5815 120.107 43.9456 120.533 43.411 121.071L39.3262 125.156C37.0751 127.408 37.0751 131.074 39.3262 133.328C39.861 133.865 40.4972 134.292 41.1979 134.582C41.8985 134.872 42.6498 135.02 43.4081 135.018H43.4096C44.9528 135.018 46.4039 134.417 47.4958 133.325L51.5807 129.24C52.6722 128.148 53.272 126.698 53.272 125.157C53.272 123.615 52.6697 122.165 51.5781 121.073C50.4844 119.982 49.0344 119.379 47.4915 119.379ZM74.052 99.0951C71.8317 99.0951 69.6117 98.2489 67.9221 96.5589C64.544 93.1809 64.544 87.6858 67.9221 84.3077L81.1976 71.0268C93.6494 58.575 121.681 54.4494 122.867 54.2788C123.649 54.1531 124.388 54.7132 124.502 55.5045C124.556 55.8838 124.458 56.2691 124.228 56.5757C123.998 56.8822 123.655 57.0849 123.276 57.1391C122.994 57.1785 95.0087 61.2998 83.2395 73.069L69.9643 86.35C67.7132 88.601 67.7132 92.2656 69.9643 94.5167C72.2168 96.7707 75.8811 96.7707 78.1339 94.5196C78.8844 93.7691 96.6209 76.2483 105.709 85.3263C105.843 85.4604 105.949 85.6196 106.022 85.7948C106.094 85.97 106.132 86.1578 106.132 86.3474C106.132 86.5371 106.094 86.7249 106.022 86.9001C105.949 87.0753 105.843 87.2345 105.709 87.3686C105.575 87.5028 105.415 87.6092 105.24 87.6819C105.065 87.7545 104.877 87.7919 104.688 87.7919C104.498 87.7919 104.31 87.7545 104.135 87.6819C103.96 87.6092 103.801 87.5028 103.666 87.3686C97.8072 81.5179 84.7235 92.0174 80.1762 96.5618C78.488 98.2503 76.2695 99.0951 74.052 99.0951ZM163.922 89.8368C163.733 89.8371 163.545 89.7999 163.369 89.7272C163.194 89.6546 163.035 89.5481 162.901 89.4137L124.093 50.6031C123.959 50.469 123.853 50.3098 123.78 50.1346C123.707 49.9594 123.67 49.7716 123.67 49.5819C123.67 49.3923 123.707 49.2045 123.78 49.0293C123.853 48.8541 123.959 48.6949 124.093 48.5608C124.227 48.4266 124.386 48.3202 124.561 48.2475C124.737 48.1749 124.925 48.1375 125.114 48.1375C125.304 48.1375 125.492 48.1749 125.667 48.2475C125.842 48.3202 126.001 48.4266 126.135 48.5608L164.943 87.3714C165.146 87.5734 165.283 87.8307 165.339 88.1109C165.395 88.3911 165.366 88.6815 165.257 88.9454C165.148 89.2094 164.962 89.435 164.725 89.5936C164.487 89.7523 164.208 89.8369 163.922 89.8368ZM178.221 83.7069C178.032 83.7072 177.844 83.6699 177.669 83.5973C177.493 83.5247 177.334 83.4181 177.2 83.2837L130.22 36.3064C130.086 36.1723 129.98 36.0131 129.907 35.8379C129.834 35.6627 129.797 35.4749 129.797 35.2853C129.797 35.0956 129.834 34.9078 129.907 34.7326C129.98 34.5574 130.086 34.3982 130.22 34.2642C130.354 34.13 130.513 34.0235 130.689 33.9508C130.864 33.8782 131.052 33.8408 131.241 33.8408C131.431 33.8408 131.619 33.8782 131.794 33.9508C131.969 34.0235 132.128 34.13 132.262 34.2642L179.243 81.2415C179.445 81.4434 179.582 81.7007 179.638 81.9809C179.694 82.2611 179.665 82.5516 179.556 82.8155C179.447 83.0794 179.262 83.305 179.024 83.4637C178.786 83.6224 178.507 83.707 178.221 83.7069Z" fill="white"/>
<path d="M125.114 51.0262C124.829 51.0264 124.549 50.9417 124.312 50.7831C124.074 50.6244 123.889 50.3988 123.78 50.1349C123.67 49.8709 123.642 49.5805 123.698 49.3003C123.753 49.0201 123.891 48.7628 124.093 48.5609L130.22 42.4335C130.354 42.2994 130.514 42.193 130.689 42.1205C130.864 42.0479 131.052 42.0105 131.241 42.0105C131.431 42.0105 131.619 42.0479 131.794 42.1205C131.969 42.193 132.128 42.2994 132.262 42.4335C132.397 42.5676 132.503 42.7268 132.575 42.902C132.648 43.0772 132.685 43.265 132.685 43.4546C132.685 43.6442 132.648 43.832 132.575 44.0072C132.503 44.1824 132.397 44.3416 132.262 44.4757L126.135 50.6031C126.002 50.7375 125.842 50.8441 125.667 50.9167C125.492 50.9893 125.304 51.0265 125.114 51.0262ZM163.922 89.8369C163.733 89.8372 163.545 89.7999 163.37 89.7273C163.194 89.6547 163.035 89.5481 162.901 89.4137C162.767 89.2797 162.661 89.1205 162.588 88.9453C162.515 88.7701 162.478 88.5823 162.478 88.3926C162.478 88.2029 162.515 88.0151 162.588 87.8399C162.661 87.6647 162.767 87.5055 162.901 87.3715L169.028 81.2441C169.162 81.11 169.322 81.0036 169.497 80.9311C169.672 80.8585 169.86 80.8212 170.05 80.8212C170.239 80.8212 170.427 80.8586 170.602 80.9312C170.777 81.0038 170.937 81.1102 171.071 81.2443C171.205 81.3784 171.311 81.5376 171.384 81.7128C171.456 81.8881 171.494 82.0759 171.494 82.2655C171.494 82.4552 171.456 82.643 171.384 82.8182C171.311 82.9934 171.205 83.1526 171.071 83.2867L164.943 89.4137C164.81 89.5481 164.65 89.6546 164.475 89.7272C164.3 89.7998 164.112 89.8371 163.922 89.8369ZM131.241 36.7296C130.956 36.7297 130.676 36.6451 130.439 36.4864C130.201 36.3277 130.016 36.1021 129.907 35.8382C129.797 35.5743 129.769 35.2838 129.825 35.0036C129.88 34.7235 130.018 34.4661 130.22 34.2642L163.945 0.539658C164.079 0.405564 164.238 0.299194 164.414 0.226623C164.589 0.154051 164.777 0.116699 164.966 0.116699C165.156 0.116699 165.344 0.154051 165.519 0.226623C165.694 0.299194 165.853 0.405564 165.987 0.539658C166.121 0.673753 166.228 0.832946 166.3 1.00815C166.373 1.18335 166.41 1.37113 166.41 1.56077C166.41 1.75041 166.373 1.93819 166.3 2.11339C166.228 2.2886 166.121 2.44779 165.987 2.58188L132.262 36.3064C132.129 36.4408 131.969 36.5474 131.794 36.62C131.619 36.6926 131.431 36.7299 131.241 36.7296ZM178.222 83.7069C178.032 83.7072 177.844 83.67 177.669 83.5974C177.493 83.5248 177.334 83.4182 177.2 83.2838C177.066 83.1498 176.96 82.9906 176.887 82.8154C176.815 82.6402 176.777 82.4524 176.777 82.2627C176.777 82.073 176.815 81.8852 176.887 81.71C176.96 81.5348 177.066 81.3756 177.2 81.2416L182.535 75.9127C182.669 75.7786 182.828 75.6722 183.004 75.5997C183.179 75.5271 183.367 75.4897 183.556 75.4897C183.746 75.4897 183.934 75.5271 184.109 75.5997C184.284 75.6722 184.443 75.7786 184.577 75.9127C184.711 76.0468 184.818 76.206 184.89 76.3812C184.963 76.5564 185 76.7442 185 76.9338C185 77.1235 184.963 77.3112 184.89 77.4864C184.818 77.6616 184.711 77.8208 184.577 77.9549L179.243 83.2838C179.109 83.4181 178.95 83.5247 178.774 83.5973C178.599 83.6699 178.411 83.7072 178.222 83.7069ZM20.9423 93.9159C20.6566 93.9161 20.3772 93.8315 20.1396 93.6729C19.902 93.5142 19.7167 93.2887 19.6074 93.0247C19.498 92.7607 19.4694 92.4703 19.5252 92.1901C19.581 91.9098 19.7187 91.6525 19.9208 91.4505L58.7314 52.6453C59.2955 52.0809 60.2096 52.0809 60.7737 52.6453C61.3377 53.2097 61.3381 54.1235 60.7737 54.6876L21.9634 93.4928C21.8294 93.627 21.6703 93.7335 21.495 93.8061C21.3198 93.8787 21.132 93.916 20.9423 93.9159ZM6.64563 87.7917C6.45594 87.792 6.26807 87.7547 6.09283 87.6821C5.91759 87.6095 5.75844 87.503 5.62452 87.3686C5.49031 87.2346 5.38384 87.0754 5.3112 86.9002C5.23856 86.725 5.20117 86.5372 5.20117 86.3475C5.20117 86.1578 5.23856 85.97 5.3112 85.7948C5.38384 85.6196 5.49031 85.4604 5.62452 85.3264L52.6048 38.349C52.7388 38.2148 52.898 38.1084 53.0732 38.0357C53.2484 37.9631 53.4362 37.9257 53.6259 37.9257C53.8155 37.9257 54.0034 37.9631 54.1786 38.0357C54.3538 38.1084 54.513 38.2148 54.647 38.349C54.7812 38.4831 54.8877 38.6422 54.9603 38.8174C55.0329 38.9927 55.0703 39.1805 55.0703 39.3701C55.0703 39.5598 55.0329 39.7476 54.9603 39.9228C54.8877 40.0981 54.7812 40.2572 54.647 40.3913L7.66674 87.3686C7.53281 87.5029 7.37365 87.6095 7.19841 87.6821C7.02318 87.7547 6.83532 87.792 6.64563 87.7917Z" fill="white"/>
<path d="M20.9421 93.9161C20.7524 93.9163 20.5645 93.879 20.3892 93.8064C20.2139 93.7338 20.0547 93.6273 19.9207 93.493L13.7936 87.3688C13.2292 86.8044 13.2292 85.8906 13.7936 85.3266C14.358 84.7626 15.2718 84.7622 15.8358 85.3266L21.9632 91.4508C22.1654 91.6527 22.303 91.91 22.3588 92.1902C22.4146 92.4704 22.3861 92.7608 22.2768 93.0248C22.1674 93.2887 21.9823 93.5143 21.7447 93.6729C21.5071 93.8316 21.2278 93.9162 20.9421 93.9161ZM59.7527 55.1109C59.5631 55.1112 59.3752 55.0739 59.1999 55.0013C59.0247 54.9287 58.8655 54.8221 58.7316 54.6878L52.6042 48.5608C52.47 48.4267 52.3636 48.2675 52.2909 48.0923C52.2183 47.9171 52.1809 47.7293 52.1809 47.5396C52.1809 47.35 52.2183 47.1622 52.2909 46.9869C52.3636 46.8117 52.47 46.6526 52.6042 46.5185C52.7383 46.3843 52.8974 46.2779 53.0726 46.2052C53.2479 46.1326 53.4357 46.0952 53.6253 46.0952C53.815 46.0952 54.0028 46.1326 54.178 46.2052C54.3532 46.2779 54.5124 46.3843 54.6465 46.5185L60.7739 52.6456C60.9081 52.7796 61.0145 52.9388 61.0872 53.114C61.1598 53.2892 61.1972 53.477 61.1972 53.6667C61.1972 53.8564 61.1598 54.0442 61.0872 54.2194C61.0145 54.3946 60.9081 54.5538 60.7739 54.6878C60.6399 54.8221 60.4808 54.9287 60.3055 55.0013C60.1303 55.0739 59.9424 55.1111 59.7527 55.1109ZM6.64546 87.792C6.45577 87.7922 6.2679 87.7549 6.09266 87.6823C5.91742 87.6097 5.75826 87.5032 5.62434 87.3688L0.529618 82.2741C0.26156 82.0027 0.111762 81.6363 0.112926 81.2548C0.114091 80.8734 0.266124 80.5079 0.535834 80.2381C0.805544 79.9683 1.17102 79.8162 1.55248 79.815C1.93394 79.8138 2.3004 79.9635 2.57184 80.2315L7.66657 85.3263C7.80078 85.4603 7.90724 85.6195 7.97988 85.7947C8.05252 85.9699 8.08991 86.1577 8.08991 86.3474C8.08991 86.537 8.05252 86.7248 7.97988 86.9001C7.90724 87.0753 7.80078 87.2344 7.66657 87.3685C7.5327 87.5029 7.37357 87.6095 7.19832 87.6822C7.02307 87.7549 6.83518 87.7922 6.64546 87.792ZM53.6253 40.8146C53.4357 40.8147 53.2478 40.7774 53.0726 40.7048C52.8974 40.6322 52.7382 40.5257 52.6042 40.3915L14.8064 2.59332C14.242 2.02892 14.242 1.11512 14.8064 0.55109C15.3708 -0.0129431 16.2846 -0.0133044 16.8486 0.55109L54.6465 38.3489C54.7807 38.4829 54.8871 38.6421 54.9598 38.8173C55.0324 38.9925 55.0698 39.1803 55.0698 39.37C55.0698 39.5597 55.0324 39.7475 54.9598 39.9227C54.8871 40.0979 54.7807 40.2571 54.6465 40.3911C54.5126 40.5256 54.3534 40.6322 54.1782 40.7048C54.0029 40.7775 53.8151 40.8148 53.6253 40.8146ZM4.32934 75.1173C3.75966 75.119 3.1953 75.0076 2.66892 74.7897C2.14254 74.5719 1.6646 74.2518 1.26275 73.8479C-0.422843 72.154 -0.419953 69.4065 1.26564 67.7209C2.89632 66.0848 5.76093 66.0834 7.39413 67.7223C7.79729 68.1233 8.11684 68.6004 8.33424 69.1258C8.55164 69.6512 8.66256 70.2145 8.66058 70.7832C8.66272 71.3525 8.55174 71.9166 8.33409 72.4427C8.11643 72.9689 7.79644 73.4465 7.39268 73.8479C6.99163 74.2519 6.5143 74.5722 5.98841 74.7901C5.46253 75.008 4.89858 75.1192 4.32934 75.1173ZM4.32934 69.34C3.94272 69.34 3.58031 69.4896 3.30968 69.7617C3.03871 70.0332 2.8864 70.4011 2.88613 70.7847C2.88586 71.1683 3.03765 71.5363 3.30823 71.8082C3.84697 72.3455 4.80485 72.3499 5.34901 71.8068C5.4837 71.6728 5.59046 71.5135 5.66309 71.3379C5.73572 71.1624 5.77278 70.9742 5.77213 70.7842C5.77213 70.3976 5.62254 70.0352 5.35046 69.7631C5.21686 69.6284 5.05777 69.5215 4.88245 69.4489C4.70714 69.3762 4.51911 69.3392 4.32934 69.34Z" fill="white"/>
</g>
<defs>
<clipPath id="clip0_225_39">
<rect width="185" height="185" fill="white"/>
</clipPath>
</defs>
</svg>
