<svg width="38" height="38" viewBox="0 0 38 38" fill="none" xmlns="http://www.w3.org/2000/svg">
<path d="M32.7903 5.78612C32.7903 5.78612 35.8661 4.58675 35.6098 7.49952C35.5244 8.69891 34.7554 12.8967 34.1573 17.4372L32.1068 30.8874C32.1068 30.8874 31.9359 32.8578 30.3979 33.2005C28.86 33.5431 26.5531 32.0011 26.1259 31.6584C25.7841 31.4015 19.7179 27.5463 17.5818 25.6616C16.9837 25.1475 16.3002 24.1195 17.6672 22.9201L26.6386 14.3532C27.6638 13.3251 28.6891 10.9263 24.4171 13.8391L12.4554 21.9778C12.4554 21.9778 11.0883 22.8344 8.52514 22.0634L2.97146 20.35C2.97146 20.35 0.920875 19.065 4.42395 17.7799C12.9681 13.7534 23.4773 9.64123 32.7903 5.78612Z" fill="black"/>
</svg>
