<svg width="176" height="106" viewBox="0 0 176 106" fill="none" xmlns="http://www.w3.org/2000/svg">
<g clip-path="url(#clip0_838_6652)">
<path d="M18.1851 105.583H156.718L87.8191 36.6851L18.1851 105.583Z" fill="white"/>
<path d="M15.538 102.195L26.331 91.6661L22.736 87.9791L15.957 94.5951L4.015 82.3511L0 86.2681L15.538 102.195Z" fill="white"/>
<path d="M28.7002 89.2678L39.7592 78.4758L36.7222 75.3648L29.7002 82.2148L26.3282 78.7578L31.9552 73.2678L28.7772 70.0128L23.1502 75.4998L20.2612 72.5388L27.0522 65.9118L24.0172 62.8018L12.9932 73.5578L28.7002 89.2678Z" fill="white"/>
<path d="M64.8968 38.1068C60.4368 33.5348 52.6998 34.0818 48.9738 37.7178C45.2468 41.3538 43.3448 48.6038 48.6078 53.9988C54.3888 59.9238 61.2668 57.7718 64.9938 54.1378C70.4888 48.7768 68.5328 41.8338 64.8968 38.1068ZM61.6188 51.0068C59.1518 53.4138 56.1358 52.7608 52.6898 49.2278C49.7938 46.2598 49.9678 43.2778 52.0738 41.2228C53.5218 39.8098 56.4628 38.5458 59.9618 42.1328C63.9538 46.2248 64.0858 48.5998 61.6188 51.0068Z" fill="white"/>
<path d="M77.336 41.9042L81.416 37.9222L75.278 31.6312L71.604 16.3452L66.927 20.9092L69.36 29.5812L61.14 26.5542L56.73 30.8562L70.744 35.3562L77.336 41.9042Z" fill="white"/>
<path d="M55.5819 63.1519C55.5819 63.1519 45.6519 59.7639 45.1799 59.8459C45.0269 59.8709 47.3129 53.7879 42.1769 51.0919C42.1769 51.0919 38.3659 49.0289 34.5519 52.4939L26.4229 60.5049L42.0939 76.2869L46.2399 72.2419L37.7599 63.5519L51.4679 67.1659L55.5819 63.1519ZM40.2019 60.9849C37.8979 63.2289 37.5869 63.4059 37.5869 63.4059C37.5869 63.4059 33.9749 59.7039 33.8469 59.5729C33.7189 59.4419 36.4299 57.1179 36.8569 56.7009C37.0379 56.5239 38.7259 55.4229 40.1229 56.8539C40.1229 56.8539 42.5049 58.7369 40.2019 60.9849Z" fill="white"/>
<path d="M76.0698 19.357L72.4438 15.701L88.2738 0L93.4548 5.223L87.7518 16.447L99.3789 11.196L104.364 16.223L88.5339 31.924L84.7129 28.072L93.0688 19.785L81.6378 24.971L79.2748 22.588L84.5879 11.168L76.0698 19.357Z" fill="white"/>
<path d="M103.556 47.0692L92.5801 36.0042L108.411 20.3032L119.418 31.4012L116.22 34.5732L109.324 27.6212L106.745 30.1782L112.184 35.6622L108.854 38.9642L103.448 33.5132L99.9881 36.9442L106.819 43.8312L103.556 47.0692Z" fill="white"/>
<path d="M139.749 51.8989L143.828 56.0129L131.849 67.8929L138.55 74.6469L134.698 78.4699L123.918 67.6009L139.749 51.8989Z" fill="white"/>
<path d="M137.547 81.3431L153.378 65.6421L157.36 69.6561L141.529 85.3561L137.547 81.3431Z" fill="white"/>
<path d="M148.748 92.6381L145.024 88.8831L160.856 73.1831L166.263 78.6311L161.643 94.9331L172.122 84.5391L175.748 88.1951L159.918 103.895L155.19 99.1311L159.261 82.0171L148.748 92.6381Z" fill="white"/>
<path d="M132.595 44.6862L122.98 34.9912L107.116 50.6602L111.195 54.7722L119.844 46.1942L116.731 60.3542L120.907 64.5652C120.907 64.5652 124.199 54.4362 124.3 54.0142C124.3 54.0142 127.867 55.9792 131.781 52.6142C131.781 52.6142 135.535 48.9562 132.595 44.6862ZM126.724 49.2782C126.724 49.2782 124.703 50.6352 122.922 48.8402L120.14 45.9022C120.14 45.9022 123.501 42.5682 123.925 42.1472C123.925 42.1472 126.515 44.7592 126.839 45.0852C127.162 45.4112 129.204 46.9472 126.724 49.2782Z" fill="white"/>
</g>
<defs>
<clipPath id="clip0_838_6652">
<rect width="175.748" height="105.654" fill="white"/>
</clipPath>
</defs>
</svg>
