<svg width="96" height="90" viewBox="0 0 96 90" fill="none" xmlns="http://www.w3.org/2000/svg">
<g clip-path="url(#clip0_928_2741)">
<mask id="mask0_928_2741" style="mask-type:luminance" maskUnits="userSpaceOnUse" x="0" y="0" width="96" height="90">
<path d="M95.9985 0H0.75V90H95.9985V0Z" fill="white"/>
</mask>
<g mask="url(#mask0_928_2741)">
<path d="M95.1747 90C95.0587 90 94.9427 89.9801 94.8267 89.9303L81.2679 84.0824L80.8462 84.2318C76.534 85.776 71.6419 86.5929 66.676 86.5929C58.895 86.5929 51.5779 84.6403 46.0638 81.1136C40.4547 77.5172 37.3549 72.6954 37.3549 67.5548C37.3549 66.6781 37.4392 65.8114 37.6185 64.9646L37.8926 63.6695L36.5009 63.7492C35.8262 63.789 35.1514 63.809 34.4766 63.809C30.6388 63.809 26.8643 63.2012 23.2585 61.9858L22.8368 61.8464L22.4361 62.0257C17.8182 64.068 11.8084 65.2933 6.36807 65.2933C4.58625 65.2933 2.92041 65.1638 1.42325 64.9048C1.15967 64.855 0.938261 64.6956 0.822284 64.4665C0.706308 64.2373 0.727394 63.9683 0.853914 63.7492C4.47028 57.8714 5.3981 53.2787 5.85146 49.1942L5.89363 48.8554L5.70385 48.5566C3.56356 45.2491 2.08748 41.6128 1.32836 37.7574C-2.08767 20.4527 10.0372 3.76577 28.3299 0.54793C30.3858 0.179323 32.4839 0 34.5609 0C41.1611 0 47.5819 1.83308 53.1277 5.29998C53.5074 5.53908 53.6128 6.02723 53.3597 6.37591C53.2016 6.59509 52.9486 6.7246 52.6745 6.7246C52.5585 6.7246 52.3898 6.70467 52.2211 6.59509C46.9494 3.29754 40.8342 1.55413 34.5609 1.55413C32.5894 1.55413 30.5967 1.73345 28.6356 2.07217C20.222 3.55656 12.9049 8.04959 8.05501 14.7443C3.20508 21.439 1.38108 29.5085 2.95204 37.4585C3.71116 41.3139 5.21886 44.9402 7.4435 48.2278C7.53839 48.3772 7.59111 48.5466 7.57002 48.716C7.17992 52.6013 6.43134 56.915 3.62681 62.195L2.89933 63.5699L4.53354 63.6595C5.13451 63.6994 5.74603 63.7093 6.36807 63.7093C11.8506 63.7093 18.0079 62.3943 22.4361 60.2823C22.5521 60.2225 22.6892 60.2026 22.8052 60.2026C22.9 60.2026 23.0055 60.2225 23.1003 60.2524C26.7483 61.5674 30.5861 62.2349 34.4977 62.2349C36.4693 62.2349 38.4514 62.0655 40.402 61.7169C48.8155 60.2325 56.1326 55.7394 60.9826 49.0447C65.8431 42.35 67.6565 34.2905 66.0856 26.3305C65.5373 23.5411 64.5884 20.8612 63.2704 18.3606C63.1756 18.1714 63.1545 17.9621 63.2283 17.7629C63.3021 17.5636 63.4497 17.4043 63.6395 17.3146C63.7555 17.2648 63.882 17.2349 64.0085 17.2349C64.251 17.2349 64.5779 17.3445 64.7466 17.6633C66.1277 20.2933 67.1294 23.1027 67.7092 26.0416C69.1115 33.1747 67.8779 40.6265 64.2194 47.0124L63.3232 48.5765L65.2 48.5167C65.6955 48.4968 66.191 48.4868 66.6865 48.4868C74.4569 48.4868 81.7845 50.4395 87.2988 53.9661C92.9183 57.5625 96.0076 62.3843 96.0076 67.5249C96.0076 71.2807 94.3417 74.907 91.1787 78.0153L90.6621 78.5234L95.9337 88.8543C96.0813 89.1532 96.018 89.5019 95.7756 89.741C95.6069 89.9103 95.3961 90 95.1747 90ZM81.289 82.4485C81.405 82.4485 81.521 82.4685 81.6264 82.5183L93.435 87.619L88.8908 78.7027C88.7327 78.3939 88.8064 78.0252 89.0806 77.7861C92.5282 74.7875 94.3417 71.2409 94.3417 67.5448C94.3417 62.9323 91.5056 58.5787 86.3604 55.2812C81.1098 51.9139 74.1196 50.0708 66.676 50.0708C65.3054 50.0708 63.9136 50.1406 62.5429 50.2701L62.058 50.3199L61.7733 50.6885C56.6703 57.3135 49.1846 61.7766 40.6867 63.271L39.7693 63.4204L39.569 64.0182C39.1895 65.1738 38.9997 66.3693 38.9997 67.5648C38.9997 72.1773 41.8359 76.5309 46.981 79.8284C52.2316 83.1957 59.2218 85.0387 66.6654 85.0387C71.7157 85.0387 76.6605 84.1621 80.9622 82.5083C81.0782 82.4685 81.1836 82.4485 81.289 82.4485Z" fill="black"/>
<path d="M53.7169 68.1227C53.2636 68.1227 52.8945 67.774 52.8945 67.3456C52.8945 66.9172 53.2636 66.5586 53.7169 66.5586C54.1703 66.5586 54.5394 66.9073 54.5394 67.3357C54.5394 67.764 54.1703 68.1227 53.7169 68.1227Z" fill="black"/>
<path d="M66.6778 68.1227C66.2245 68.1227 65.8555 67.774 65.8555 67.3456C65.8555 66.9172 66.2245 66.5586 66.6778 66.5586C67.1312 66.5586 67.5002 66.9073 67.5002 67.3357C67.5002 67.764 67.1312 68.1227 66.6778 68.1227Z" fill="black"/>
<path d="M79.6349 68.1227C79.1815 68.1227 78.8125 67.774 78.8125 67.3456C78.8125 66.9172 79.1815 66.5586 79.6349 66.5586C80.0883 66.5586 80.4573 66.9073 80.4573 67.3357C80.4573 67.764 80.0883 68.1227 79.6349 68.1227Z" fill="black"/>
<path d="M59.1996 12.0446C58.9466 12.0446 58.6302 11.935 58.4615 11.6162C58.3667 11.4269 58.3455 11.2177 58.4194 11.0185C58.4615 10.8989 58.567 10.6897 58.8306 10.5702C58.9466 10.5104 59.073 10.4905 59.1996 10.4905C59.4421 10.4905 59.769 10.6001 59.9377 10.9189C60.1379 11.3074 59.9798 11.7856 59.5686 11.9749C59.4526 12.0247 59.3261 12.0446 59.1996 12.0446Z" fill="black"/>
<path d="M18.3768 46.7434C16.8058 46.7434 15.5195 45.538 15.5195 44.0436V25.7129C15.5195 24.2285 16.7953 23.0131 18.3768 23.0131H25.2088C26.5584 23.0131 27.7393 23.9197 28.0029 25.1749L28.2348 26.2708L29.3629 25.952C30.7863 25.5535 31.44 24.3381 31.8407 23.3219L33.9704 18.0618C34.8033 15.9896 35.9315 14.0669 38.4408 14.0669C40.9396 14.0669 42.9639 15.9797 42.9639 18.3407V24.8163H46.8544C50.4708 24.8163 53.4228 27.5958 53.4228 31.0129V36.9106C53.4228 41.9914 49.0474 46.1258 43.6702 46.1258H35.0774C33.032 46.1258 30.8496 45.6974 29.0783 44.9502L28.1821 44.5717L27.6972 45.3786C27.1911 46.2254 26.2316 46.7534 25.2088 46.7534H18.3768V46.7434ZM18.3768 24.5772C17.7126 24.5772 17.1748 25.0853 17.1748 25.7129V44.0536C17.1748 44.6812 17.7126 45.1893 18.3768 45.1893H25.2088C25.8731 45.1893 26.4109 44.6812 26.4109 44.0536V25.7129C26.4109 25.0853 25.8731 24.5772 25.2088 24.5772H18.3768ZM28.5301 42.898C29.7741 43.7049 32.3572 44.5617 35.067 44.5617H43.6597C48.1301 44.5617 51.757 41.1247 51.757 36.9106V31.0129C51.757 28.4525 49.5534 26.3804 46.8438 26.3804H42.1309C41.6776 26.3804 41.3086 26.0317 41.3086 25.6033V18.3507C41.3086 16.8564 40.0223 15.6409 38.4303 15.6409C37.0069 15.6409 36.2267 16.8364 35.5098 18.6297L33.38 23.8898C32.1781 26.8785 30.2908 27.4463 28.9729 27.6257L28.045 27.7452V42.6091L28.5301 42.898Z" fill="#FD0037"/>
</g>
</g>
<defs>
<clipPath id="clip0_928_2741">
<rect width="95.2485" height="90" fill="white" transform="translate(0.75)"/>
</clipPath>
</defs>
</svg>
