<svg width="214" height="68" viewBox="0 0 214 68" fill="none" xmlns="http://www.w3.org/2000/svg">
<path d="M89.912 65L87.14 57.692H87.812L90.388 64.608H90.094L92.74 57.692H93.342L95.974 64.608H95.666L98.284 57.692H98.928L96.156 65H95.498L92.922 58.364H93.146L90.556 65H89.912ZM103.319 65.056C102.582 65.056 101.929 64.8973 101.359 64.58C100.799 64.2627 100.356 63.824 100.029 63.264C99.7119 62.704 99.5532 62.0647 99.5532 61.346C99.5532 60.618 99.7025 59.9787 100.001 59.428C100.309 58.868 100.729 58.4293 101.261 58.112C101.793 57.7947 102.391 57.636 103.053 57.636C103.716 57.636 104.309 57.79 104.831 58.098C105.363 58.406 105.779 58.84 106.077 59.4C106.385 59.9507 106.539 60.59 106.539 61.318C106.539 61.346 106.535 61.3787 106.525 61.416C106.525 61.444 106.525 61.4767 106.525 61.514H100.071V60.968H106.147L105.867 61.234C105.877 60.6647 105.755 60.156 105.503 59.708C105.261 59.2507 104.929 58.896 104.509 58.644C104.089 58.3827 103.604 58.252 103.053 58.252C102.512 58.252 102.027 58.3827 101.597 58.644C101.177 58.896 100.846 59.2507 100.603 59.708C100.361 60.156 100.239 60.6693 100.239 61.248V61.374C100.239 61.9713 100.37 62.5033 100.631 62.97C100.902 63.4273 101.271 63.7867 101.737 64.048C102.204 64.3 102.736 64.426 103.333 64.426C103.8 64.426 104.234 64.342 104.635 64.174C105.046 64.006 105.391 63.7493 105.671 63.404L106.077 63.866C105.76 64.258 105.359 64.5567 104.873 64.762C104.397 64.958 103.879 65.056 103.319 65.056ZM112.373 65.056C111.729 65.056 111.145 64.9067 110.623 64.608C110.109 64.3093 109.699 63.88 109.391 63.32C109.092 62.76 108.943 62.102 108.943 61.346C108.943 60.5713 109.092 59.9087 109.391 59.358C109.699 58.8073 110.109 58.3827 110.623 58.084C111.145 57.7853 111.729 57.636 112.373 57.636C113.063 57.636 113.679 57.7947 114.221 58.112C114.771 58.42 115.201 58.854 115.509 59.414C115.826 59.9647 115.985 60.6087 115.985 61.346C115.985 62.074 115.826 62.718 115.509 63.278C115.201 63.838 114.771 64.2767 114.221 64.594C113.679 64.902 113.063 65.056 112.373 65.056ZM108.705 65V54.612H109.405V60.058L109.265 61.332L109.377 62.606V65H108.705ZM112.331 64.426C112.891 64.426 113.395 64.3 113.843 64.048C114.291 63.7867 114.641 63.4227 114.893 62.956C115.154 62.4893 115.285 61.9527 115.285 61.346C115.285 60.73 115.154 60.1933 114.893 59.736C114.641 59.2693 114.291 58.91 113.843 58.658C113.395 58.3967 112.891 58.266 112.331 58.266C111.771 58.266 111.267 58.3967 110.819 58.658C110.38 58.91 110.03 59.2693 109.769 59.736C109.517 60.1933 109.391 60.73 109.391 61.346C109.391 61.9527 109.517 62.4893 109.769 62.956C110.03 63.4227 110.38 63.7867 110.819 64.048C111.267 64.3 111.771 64.426 112.331 64.426ZM124.562 65.056C123.88 65.056 123.264 64.902 122.714 64.594C122.172 64.2767 121.743 63.838 121.426 63.278C121.108 62.718 120.95 62.074 120.95 61.346C120.95 60.6087 121.108 59.9647 121.426 59.414C121.743 58.854 122.172 58.42 122.714 58.112C123.264 57.7947 123.88 57.636 124.562 57.636C125.206 57.636 125.784 57.7853 126.298 58.084C126.82 58.3827 127.231 58.8073 127.53 59.358C127.838 59.9087 127.992 60.5713 127.992 61.346C127.992 62.102 127.842 62.76 127.544 63.32C127.245 63.88 126.834 64.3093 126.312 64.608C125.798 64.9067 125.215 65.056 124.562 65.056ZM124.604 64.426C125.164 64.426 125.663 64.3 126.102 64.048C126.55 63.7867 126.9 63.4227 127.152 62.956C127.413 62.4893 127.544 61.9527 127.544 61.346C127.544 60.73 127.413 60.1933 127.152 59.736C126.9 59.2693 126.55 58.91 126.102 58.658C125.663 58.3967 125.164 58.266 124.604 58.266C124.044 58.266 123.54 58.3967 123.092 58.658C122.653 58.91 122.303 59.2693 122.042 59.736C121.79 60.1933 121.664 60.73 121.664 61.346C121.664 61.9527 121.79 62.4893 122.042 62.956C122.303 63.4227 122.653 63.7867 123.092 64.048C123.54 64.3 124.044 64.426 124.604 64.426ZM127.558 65V62.606L127.684 61.332L127.544 60.058V54.612H128.244V65H127.558ZM134.163 65.056C133.426 65.056 132.772 64.8973 132.203 64.58C131.643 64.2627 131.2 63.824 130.873 63.264C130.556 62.704 130.397 62.0647 130.397 61.346C130.397 60.618 130.546 59.9787 130.845 59.428C131.153 58.868 131.573 58.4293 132.105 58.112C132.637 57.7947 133.234 57.636 133.897 57.636C134.56 57.636 135.152 57.79 135.675 58.098C136.207 58.406 136.622 58.84 136.921 59.4C137.229 59.9507 137.383 60.59 137.383 61.318C137.383 61.346 137.378 61.3787 137.369 61.416C137.369 61.444 137.369 61.4767 137.369 61.514H130.915V60.968H136.991L136.711 61.234C136.72 60.6647 136.599 60.156 136.347 59.708C136.104 59.2507 135.773 58.896 135.353 58.644C134.933 58.3827 134.448 58.252 133.897 58.252C133.356 58.252 132.87 58.3827 132.441 58.644C132.021 58.896 131.69 59.2507 131.447 59.708C131.204 60.156 131.083 60.6693 131.083 61.248V61.374C131.083 61.9713 131.214 62.5033 131.475 62.97C131.746 63.4273 132.114 63.7867 132.581 64.048C133.048 64.3 133.58 64.426 134.177 64.426C134.644 64.426 135.078 64.342 135.479 64.174C135.89 64.006 136.235 63.7493 136.515 63.404L136.921 63.866C136.604 64.258 136.202 64.5567 135.717 64.762C135.241 64.958 134.723 65.056 134.163 65.056ZM141.26 65L137.97 57.692H138.712L141.792 64.608H141.456L144.564 57.692H145.278L141.974 65H141.26ZM149.571 65.056C148.834 65.056 148.18 64.8973 147.611 64.58C147.051 64.2627 146.608 63.824 146.281 63.264C145.964 62.704 145.805 62.0647 145.805 61.346C145.805 60.618 145.954 59.9787 146.253 59.428C146.561 58.868 146.981 58.4293 147.513 58.112C148.045 57.7947 148.642 57.636 149.305 57.636C149.968 57.636 150.56 57.79 151.083 58.098C151.615 58.406 152.03 58.84 152.329 59.4C152.637 59.9507 152.791 60.59 152.791 61.318C152.791 61.346 152.786 61.3787 152.777 61.416C152.777 61.444 152.777 61.4767 152.777 61.514H146.323V60.968H152.399L152.119 61.234C152.128 60.6647 152.007 60.156 151.755 59.708C151.512 59.2507 151.181 58.896 150.761 58.644C150.341 58.3827 149.856 58.252 149.305 58.252C148.764 58.252 148.278 58.3827 147.849 58.644C147.429 58.896 147.098 59.2507 146.855 59.708C146.612 60.156 146.491 60.6693 146.491 61.248V61.374C146.491 61.9713 146.622 62.5033 146.883 62.97C147.154 63.4273 147.522 63.7867 147.989 64.048C148.456 64.3 148.988 64.426 149.585 64.426C150.052 64.426 150.486 64.342 150.887 64.174C151.298 64.006 151.643 63.7493 151.923 63.404L152.329 63.866C152.012 64.258 151.61 64.5567 151.125 64.762C150.649 64.958 150.131 65.056 149.571 65.056ZM154.957 65V54.612H155.657V65H154.957ZM161.463 65.056C160.763 65.056 160.138 64.8973 159.587 64.58C159.046 64.2627 158.612 63.824 158.285 63.264C157.968 62.704 157.809 62.0647 157.809 61.346C157.809 60.618 157.968 59.9787 158.285 59.428C158.612 58.868 159.046 58.4293 159.587 58.112C160.138 57.7947 160.763 57.636 161.463 57.636C162.163 57.636 162.788 57.7947 163.339 58.112C163.89 58.4293 164.324 58.868 164.641 59.428C164.958 59.9787 165.117 60.618 165.117 61.346C165.117 62.0647 164.958 62.704 164.641 63.264C164.324 63.824 163.89 64.2627 163.339 64.58C162.788 64.8973 162.163 65.056 161.463 65.056ZM161.463 64.426C162.023 64.426 162.527 64.3 162.975 64.048C163.423 63.7867 163.773 63.4227 164.025 62.956C164.277 62.4893 164.403 61.9527 164.403 61.346C164.403 60.73 164.277 60.1933 164.025 59.736C163.773 59.2693 163.423 58.91 162.975 58.658C162.527 58.3967 162.023 58.266 161.463 58.266C160.903 58.266 160.399 58.3967 159.951 58.658C159.512 58.91 159.162 59.2693 158.901 59.736C158.649 60.1933 158.523 60.73 158.523 61.346C158.523 61.9527 158.649 62.4893 158.901 62.956C159.162 63.4227 159.512 63.7867 159.951 64.048C160.399 64.3 160.903 64.426 161.463 64.426ZM170.957 65.056C170.313 65.056 169.729 64.9067 169.207 64.608C168.693 64.3093 168.283 63.8847 167.975 63.334C167.676 62.774 167.527 62.1113 167.527 61.346C167.527 60.5807 167.676 59.9227 167.975 59.372C168.283 58.812 168.693 58.3827 169.207 58.084C169.729 57.7853 170.313 57.636 170.957 57.636C171.647 57.636 172.263 57.7947 172.805 58.112C173.355 58.42 173.785 58.854 174.093 59.414C174.41 59.974 174.569 60.618 174.569 61.346C174.569 62.074 174.41 62.718 174.093 63.278C173.785 63.838 173.355 64.2767 172.805 64.594C172.263 64.902 171.647 65.056 170.957 65.056ZM167.289 67.716V57.692H167.961V60.086L167.849 61.36L167.989 62.634V67.716H167.289ZM170.915 64.426C171.475 64.426 171.979 64.3 172.427 64.048C172.875 63.7867 173.225 63.4227 173.477 62.956C173.738 62.4893 173.869 61.9527 173.869 61.346C173.869 60.73 173.738 60.1933 173.477 59.736C173.225 59.2693 172.875 58.91 172.427 58.658C171.979 58.3967 171.475 58.266 170.915 58.266C170.355 58.266 169.851 58.3967 169.403 58.658C168.964 58.91 168.614 59.2693 168.353 59.736C168.101 60.1933 167.975 60.73 167.975 61.346C167.975 61.9527 168.101 62.4893 168.353 62.956C168.614 63.4227 168.964 63.7867 169.403 64.048C169.851 64.3 170.355 64.426 170.915 64.426ZM185.836 57.636C186.424 57.636 186.933 57.7527 187.362 57.986C187.801 58.21 188.141 58.5553 188.384 59.022C188.627 59.4793 188.748 60.0487 188.748 60.73V65H188.048V60.786C188.048 59.9647 187.847 59.3393 187.446 58.91C187.045 58.4807 186.485 58.266 185.766 58.266C185.215 58.266 184.739 58.3827 184.338 58.616C183.937 58.8493 183.629 59.176 183.414 59.596C183.199 60.016 183.092 60.52 183.092 61.108V65H182.392V60.786C182.392 59.9647 182.191 59.3393 181.79 58.91C181.389 58.4807 180.829 58.266 180.11 58.266C179.559 58.266 179.083 58.3827 178.682 58.616C178.281 58.8493 177.973 59.176 177.758 59.596C177.543 60.016 177.436 60.52 177.436 61.108V65H176.736V57.692H177.408V59.708L177.31 59.484C177.525 58.9147 177.884 58.4667 178.388 58.14C178.892 57.804 179.499 57.636 180.208 57.636C180.936 57.636 181.547 57.8227 182.042 58.196C182.546 58.56 182.863 59.106 182.994 59.834L182.756 59.736C182.952 59.1107 183.321 58.6067 183.862 58.224C184.403 57.832 185.061 57.636 185.836 57.636ZM194.606 65.056C193.869 65.056 193.216 64.8973 192.646 64.58C192.086 64.2627 191.643 63.824 191.316 63.264C190.999 62.704 190.84 62.0647 190.84 61.346C190.84 60.618 190.99 59.9787 191.288 59.428C191.596 58.868 192.016 58.4293 192.548 58.112C193.08 57.7947 193.678 57.636 194.34 57.636C195.003 57.636 195.596 57.79 196.118 58.098C196.65 58.406 197.066 58.84 197.364 59.4C197.672 59.9507 197.826 60.59 197.826 61.318C197.826 61.346 197.822 61.3787 197.812 61.416C197.812 61.444 197.812 61.4767 197.812 61.514H191.358V60.968H197.434L197.154 61.234C197.164 60.6647 197.042 60.156 196.79 59.708C196.548 59.2507 196.216 58.896 195.796 58.644C195.376 58.3827 194.891 58.252 194.34 58.252C193.799 58.252 193.314 58.3827 192.884 58.644C192.464 58.896 192.133 59.2507 191.89 59.708C191.648 60.156 191.526 60.6693 191.526 61.248V61.374C191.526 61.9713 191.657 62.5033 191.918 62.97C192.189 63.4273 192.558 63.7867 193.024 64.048C193.491 64.3 194.023 64.426 194.62 64.426C195.087 64.426 195.521 64.342 195.922 64.174C196.333 64.006 196.678 63.7493 196.958 63.404L197.364 63.866C197.047 64.258 196.646 64.5567 196.16 64.762C195.684 64.958 195.166 65.056 194.606 65.056ZM203.562 57.636C204.159 57.636 204.677 57.7527 205.116 57.986C205.564 58.21 205.909 58.5553 206.152 59.022C206.404 59.4793 206.53 60.0487 206.53 60.73V65H205.83V60.786C205.83 59.9647 205.62 59.3393 205.2 58.91C204.789 58.4807 204.21 58.266 203.464 58.266C202.894 58.266 202.4 58.3827 201.98 58.616C201.56 58.8493 201.238 59.176 201.014 59.596C200.799 60.016 200.692 60.52 200.692 61.108V65H199.992V57.692H200.664V59.722L200.566 59.498C200.79 58.9193 201.158 58.4667 201.672 58.14C202.185 57.804 202.815 57.636 203.562 57.636ZM211.54 65.056C210.896 65.056 210.401 64.8787 210.056 64.524C209.72 64.1693 209.552 63.684 209.552 63.068V56.096H210.252V62.998C210.252 63.4647 210.368 63.824 210.602 64.076C210.835 64.328 211.171 64.454 211.61 64.454C212.067 64.454 212.445 64.3187 212.744 64.048L213.038 64.538C212.851 64.7153 212.622 64.846 212.352 64.93C212.09 65.014 211.82 65.056 211.54 65.056ZM208.208 58.294V57.692H212.576V58.294H208.208Z" fill="white"/>
<g clip-path="url(#clip0_792_6559)">
<path d="M30.2441 38H29.7441V38.5H30.2441V38ZM30.2441 12.2305V11.7305H29.7441V12.2305H30.2441ZM43.8848 12.4766L43.7953 12.9686L43.8026 12.9698L43.8848 12.4766ZM47.0664 13.6895L46.78 14.0994L46.7839 14.102L47.0664 13.6895ZM49.123 16.168L48.6729 16.3856L48.6749 16.3896L49.123 16.168ZM47.8223 25.2559L48.1898 25.5949L48.1911 25.5935L47.8223 25.2559ZM33.6543 27.5234V27.0234H33.1543V27.5234H33.6543ZM33.6543 38V38.5H34.1543V38H33.6543ZM33.6543 24.4824H33.1543V24.9824H33.6543V24.4824ZM45.5723 17.0293L45.162 17.3152L45.1671 17.3223L45.5723 17.0293ZM43.4277 15.5L43.5609 15.018L43.556 15.0167L43.4277 15.5ZM33.6543 15.2715V14.7715H33.1543V15.2715H33.6543ZM30.7441 38V12.2305H29.7441V38H30.7441ZM30.2441 12.7305H39.9648V11.7305H30.2441V12.7305ZM39.9648 12.7305C41.6668 12.7305 42.9377 12.8127 43.7953 12.9686L43.9742 11.9846C43.0271 11.8124 41.6848 11.7305 39.9648 11.7305V12.7305ZM43.8026 12.9698C45.0113 13.1712 45.9979 13.553 46.78 14.0994L47.3528 13.2796C46.4239 12.6307 45.2895 12.2038 43.967 11.9834L43.8026 12.9698ZM46.7839 14.102C47.5577 14.632 48.1897 15.3863 48.6729 16.3856L49.5732 15.9503C49.0251 14.8168 48.286 13.9188 47.349 13.2769L46.7839 14.102ZM48.6749 16.3896C49.1656 17.3821 49.4141 18.4773 49.4141 19.6836H50.4141C50.4141 18.3352 50.1351 17.0867 49.5712 15.9463L48.6749 16.3896ZM49.4141 19.6836C49.4141 21.7584 48.7581 23.493 47.4535 24.9183L48.1911 25.5935C49.6755 23.9719 50.4141 21.9916 50.4141 19.6836H49.4141ZM47.4548 24.9168C46.2064 26.2702 43.869 27.0234 40.2637 27.0234V28.0234C43.9474 28.0234 46.6491 27.265 48.1898 25.5949L47.4548 24.9168ZM40.2637 27.0234H33.6543V28.0234H40.2637V27.0234ZM33.1543 27.5234V38H34.1543V27.5234H33.1543ZM33.6543 37.5H30.2441V38.5H33.6543V37.5ZM33.6543 24.9824H40.3164V23.9824H33.6543V24.9824ZM40.3164 24.9824C42.5556 24.9824 44.2755 24.5706 45.3414 23.6262L44.6782 22.8777C43.8925 23.5739 42.4835 23.9824 40.3164 23.9824V24.9824ZM45.3414 23.6262C46.3959 22.6918 46.8984 21.3887 46.8984 19.7891H45.8984C45.8984 21.166 45.4752 22.1715 44.6782 22.8777L45.3414 23.6262ZM46.8984 19.7891C46.8984 18.6218 46.5986 17.5954 45.9774 16.7363L45.1671 17.3223C45.6474 17.9866 45.8984 18.8001 45.8984 19.7891H46.8984ZM45.9825 16.7434C45.3782 15.8764 44.5664 15.2958 43.5609 15.018L43.2946 15.9819C44.0704 16.1963 44.6881 16.6353 45.162 17.3152L45.9825 16.7434ZM43.556 15.0167C42.9106 14.8455 41.7886 14.7715 40.2461 14.7715V15.7715C41.7973 15.7715 42.7964 15.8498 43.2995 15.9833L43.556 15.0167ZM40.2461 14.7715H33.6543V15.7715H40.2461V14.7715ZM33.1543 15.2715V24.4824H34.1543V15.2715H33.1543ZM54.3086 38H53.8086V38.5H54.3086V38ZM54.3086 12.2305V11.7305H53.8086V12.2305H54.3086ZM70.9727 12.9336L70.7901 13.3991L70.7941 13.4006L70.9727 12.9336ZM67.6504 26.2754L67.5823 25.78L65.936 26.0063L67.4338 26.7261L67.6504 26.2754ZM69.707 27.5586L70.0451 27.1902L70.0415 27.1869L69.707 27.5586ZM72.5371 30.9863L72.9584 30.7171L72.9564 30.714L72.5371 30.9863ZM77.0195 38V38.5H77.9325L77.4408 37.7307L77.0195 38ZM72.7305 38L72.3086 38.2683L72.4559 38.5H72.7305V38ZM69.3203 32.6387L69.7422 32.3703L69.7407 32.368L69.3203 32.6387ZM65.1191 27.3652L64.8463 27.7843L64.8507 27.7871L65.1191 27.3652ZM63.5723 26.6797L63.691 26.194L63.6835 26.1922L63.676 26.1906L63.5723 26.6797ZM57.7188 26.5566V26.0566H57.2188V26.5566H57.7188ZM57.7188 38V38.5H58.2188V38H57.7188ZM57.7188 23.6035H57.2188V24.1035H57.7188V23.6035ZM68.7051 23.1289L68.8744 23.5994L68.88 23.5973L68.7051 23.1289ZM70.709 21.582L71.1282 21.8545L71.1302 21.8514L70.709 21.582ZM70.0586 16.2559L69.7255 16.6287L69.7279 16.6309L70.0586 16.2559ZM57.7188 15.0781V14.5781H57.2188V15.0781H57.7188ZM54.8086 38V12.2305H53.8086V38H54.8086ZM54.3086 12.7305H65.7344V11.7305H54.3086V12.7305ZM65.7344 12.7305C68.0101 12.7305 69.6819 12.9645 70.7901 13.3991L71.1552 12.4681C69.8728 11.9652 68.0524 11.7305 65.7344 11.7305V12.7305ZM70.7941 13.4006C71.8783 13.8152 72.7493 14.5526 73.411 15.6373L74.2647 15.1166C73.4967 13.8576 72.4576 12.9661 71.1512 12.4666L70.7941 13.4006ZM73.411 15.6373C74.0764 16.7281 74.4102 17.9324 74.4102 19.2617H75.4102C75.4102 17.7551 75.0291 16.3695 74.2647 15.1166L73.411 15.6373ZM74.4102 19.2617C74.4102 20.9707 73.8615 22.3864 72.7712 23.5416L73.4984 24.228C74.7752 22.8753 75.4102 21.209 75.4102 19.2617H74.4102ZM72.7712 23.5416C71.6942 24.6825 69.9911 25.449 67.5823 25.78L67.7185 26.7707C70.255 26.4221 72.2081 25.5948 73.4984 24.228L72.7712 23.5416ZM67.4338 26.7261C68.3153 27.1496 68.9536 27.5532 69.3725 27.9302L70.0415 27.1869C69.523 26.7203 68.7902 26.2683 67.8669 25.8247L67.4338 26.7261ZM69.369 27.927C70.3284 28.8074 71.2455 29.9158 72.1178 31.2587L72.9564 30.714C72.0475 29.3147 71.0779 28.1379 70.0451 27.1902L69.369 27.927ZM72.1158 31.2556L76.5982 38.2693L77.4408 37.7307L72.9584 30.7171L72.1158 31.2556ZM77.0195 37.5H72.7305V38.5H77.0195V37.5ZM73.1524 37.7317L69.7422 32.3703L68.8984 32.907L72.3086 38.2683L73.1524 37.7317ZM69.7407 32.368C68.7415 30.8162 67.9113 29.6175 67.2525 28.779L66.4662 29.3968C67.0965 30.1989 67.907 31.3674 68.8999 32.9094L69.7407 32.368ZM67.2525 28.779C66.5941 27.941 65.9729 27.3159 65.3876 26.9434L64.8507 27.7871C65.2966 28.0708 65.8355 28.5941 66.4662 29.3968L67.2525 28.779ZM65.392 26.9462C64.8459 26.5906 64.2787 26.3376 63.691 26.194L63.4535 27.1654C63.9205 27.2795 64.3846 27.4837 64.8463 27.7843L65.392 26.9462ZM63.676 26.1906C63.2341 26.0968 62.5559 26.0566 61.6738 26.0566V27.0566C62.5496 27.0566 63.137 27.0985 63.4685 27.1688L63.676 26.1906ZM61.6738 26.0566H57.7188V27.0566H61.6738V26.0566ZM57.2188 26.5566V38H58.2188V26.5566H57.2188ZM57.7188 37.5H54.3086V38.5H57.7188V37.5ZM57.7188 24.1035H65.0488V23.1035H57.7188V24.1035ZM65.0488 24.1035C66.6319 24.1035 67.9169 23.9442 68.8744 23.5994L68.5357 22.6585C67.7355 22.9466 66.5829 23.1035 65.0488 23.1035V24.1035ZM68.88 23.5973C69.8467 23.2364 70.6059 22.658 71.1282 21.8545L70.2898 21.3095C69.898 21.9123 69.3213 22.3652 68.5302 22.6605L68.88 23.5973ZM71.1302 21.8514C71.6376 21.0578 71.8945 20.1912 71.8945 19.2617H70.8945C70.8945 19.9963 70.6944 20.6766 70.2877 21.3127L71.1302 21.8514ZM71.8945 19.2617C71.8945 17.9038 71.3908 16.7637 70.3892 15.8808L69.7279 16.6309C70.5077 17.3183 70.8945 18.1822 70.8945 19.2617H71.8945ZM70.3917 15.883C69.3789 14.9782 67.8362 14.5781 65.875 14.5781V15.5781C67.7341 15.5781 68.9805 15.9632 69.7255 16.6287L70.3917 15.883ZM65.875 14.5781H57.7188V15.5781H65.875V14.5781ZM57.2188 15.0781V23.6035H58.2188V15.0781H57.2188ZM82.6797 15.4121L83.0419 15.7568L83.0428 15.7559L82.6797 15.4121ZM102.367 18.2422L101.918 18.4617L101.919 18.4648L102.367 18.2422ZM97.8145 36.8574L98.0539 37.2964L98.0559 37.2952L97.8145 36.8574ZM85.2461 32.8496L84.8796 33.1898L84.8819 33.1922L85.2461 32.8496ZM97.8672 32.8145L97.4996 32.4755L97.4984 32.4768L97.8672 32.8145ZM99.291 19.6484L98.8347 19.8528L98.8365 19.8569L99.291 19.6484ZM96.1797 16.0098L95.9108 16.4313L95.915 16.434L96.1797 16.0098ZM79.7344 25.4492C79.7344 21.2624 80.8565 18.0537 83.0419 15.7568L82.3175 15.0675C79.9091 17.5987 78.7344 21.0814 78.7344 25.4492H79.7344ZM83.0428 15.7559C85.2364 13.4391 88.0654 12.2734 91.5742 12.2734V11.2734C87.8174 11.2734 84.7167 12.5335 82.3166 15.0683L83.0428 15.7559ZM91.5742 12.2734C93.8697 12.2734 95.9248 12.8207 97.7521 13.9082L98.2635 13.0488C96.2706 11.8629 94.0366 11.2734 91.5742 11.2734V12.2734ZM97.7521 13.9082C99.5768 14.9941 100.964 16.5081 101.918 18.4617L102.816 18.0227C101.779 15.8982 100.259 14.2364 98.2635 13.0488L97.7521 13.9082ZM101.919 18.4648C102.888 20.4139 103.379 22.6387 103.379 25.1504H104.379C104.379 22.5058 103.862 20.1252 102.815 18.0196L101.919 18.4648ZM103.379 25.1504C103.379 27.6948 102.866 29.953 101.852 31.9364L102.742 32.3917C103.837 30.2502 104.379 27.8326 104.379 25.1504H103.379ZM101.852 31.9364C100.84 33.9147 99.4148 35.4038 97.573 36.4196L98.0559 37.2952C100.081 36.1782 101.644 34.5384 102.742 32.3917L101.852 31.9364ZM97.575 36.4185C95.7161 37.4324 93.7127 37.9395 91.5566 37.9395V38.9395C93.8772 38.9395 96.0456 38.3918 98.0539 37.2964L97.575 36.4185ZM91.5566 37.9395C89.2153 37.9395 87.1392 37.3751 85.3142 36.2555L84.7913 37.1078C86.7866 38.3319 89.0465 38.9395 91.5566 38.9395V37.9395ZM85.3142 36.2555C83.4858 35.1338 82.1037 33.6065 81.1607 31.6644L80.2612 32.1012C81.2869 34.2138 82.7993 35.8858 84.7913 37.1078L85.3142 36.2555ZM81.1607 31.6644C80.2095 29.7054 79.7344 27.6356 79.7344 25.4492H78.7344C78.7344 27.7863 79.2436 30.0055 80.2612 32.1012L81.1607 31.6644ZM82.25 25.502C82.25 28.6983 83.1084 31.2814 84.8796 33.1898L85.6126 32.5095C84.0557 30.832 83.25 28.5166 83.25 25.502H82.25ZM84.8819 33.1922C86.6554 35.0773 88.8863 36.0215 91.5391 36.0215V35.0215C89.1527 35.0215 87.1884 34.1844 85.6103 32.507L84.8819 33.1922ZM91.5391 36.0215C94.238 36.0215 96.4838 35.0658 98.236 33.1521L97.4984 32.4768C95.9459 34.1725 93.973 35.0215 91.5391 35.0215V36.0215ZM98.2348 33.1534C100.01 31.228 100.863 28.53 100.863 25.1328H99.8633C99.8633 28.3684 99.0524 30.7915 97.4996 32.4755L98.2348 33.1534ZM100.863 25.1328C100.863 22.9789 100.496 21.0769 99.7455 19.44L98.8365 19.8569C99.5155 21.3372 99.8633 23.0914 99.8633 25.1328H100.863ZM99.7474 19.4441C99.0064 17.7892 97.9053 16.4971 96.4444 15.5856L95.915 16.434C97.1962 17.2334 98.1694 18.367 98.8347 19.8528L99.7474 19.4441ZM96.4486 15.5882C95.0045 14.667 93.3809 14.209 91.5918 14.209V15.209C93.2011 15.209 94.6362 15.6182 95.9108 16.4313L96.4486 15.5882ZM91.5918 14.209C89.0494 14.209 86.8458 15.0904 85.0066 16.8431L85.6965 17.5671C87.3495 15.9918 89.3061 15.209 91.5918 15.209V14.209ZM85.0066 16.8431C83.1265 18.6343 82.25 21.568 82.25 25.502H83.25C83.25 21.6781 84.1078 19.0806 85.6965 17.5671L85.0066 16.8431ZM112.791 38L112.308 38.1282L112.406 38.5H112.791V38ZM105.953 12.2305V11.7305H105.303L105.47 12.3587L105.953 12.2305ZM109.451 12.2305L109.938 12.1174L109.848 11.7305H109.451V12.2305ZM113.371 29.123L112.884 29.2361L112.885 29.239L113.371 29.123ZM114.461 34.3965L113.968 34.4824L114.947 34.5124L114.461 34.3965ZM115.621 29.6328L115.14 29.4972L115.139 29.499L115.621 29.6328ZM120.525 12.2305V11.7305H120.147L120.044 12.0948L120.525 12.2305ZM124.639 12.2305L125.12 12.0943L125.017 11.7305H124.639V12.2305ZM128.33 25.2734L127.849 25.4096V25.411L128.33 25.2734ZM130.334 34.3965L129.839 34.4678L130.824 34.4952L130.334 34.3965ZM131.617 28.7891L132.102 28.9103L132.103 28.9077L131.617 28.7891ZM135.66 12.2305V11.7305H135.268L135.174 12.1119L135.66 12.2305ZM139.088 12.2305L139.57 12.3627L139.743 11.7305H139.088V12.2305ZM132.021 38V38.5H132.403L132.504 38.1322L132.021 38ZM128.734 38L128.252 38.1333L128.354 38.5H128.734V38ZM123.303 18.3652L123.785 18.2319L123.784 18.2311L123.303 18.3652ZM122.494 15.3418L122.983 15.2349L122.007 15.2308L122.494 15.3418ZM121.738 18.3652L121.257 18.2297V18.2311L121.738 18.3652ZM116.271 38V38.5H116.651L116.753 38.1341L116.271 38ZM113.274 37.8718L106.436 12.1022L105.47 12.3587L112.308 38.1282L113.274 37.8718ZM105.953 12.7305H109.451V11.7305H105.953V12.7305ZM108.964 12.3435L112.884 29.2361L113.858 29.01L109.938 12.1174L108.964 12.3435ZM112.885 29.239C113.304 30.9989 113.665 32.7467 113.968 34.4824L114.953 34.3105C114.647 32.5541 114.282 30.7863 113.857 29.0071L112.885 29.239ZM114.947 34.5124C115.605 31.7525 115.989 30.177 116.103 29.7666L115.139 29.499C115.019 29.9323 114.629 31.5327 113.975 34.2806L114.947 34.5124ZM116.102 29.7684L121.007 12.3661L120.044 12.0948L115.14 29.4972L116.102 29.7684ZM120.525 12.7305H124.639V11.7305H120.525V12.7305ZM124.158 12.3666L127.849 25.4096L128.811 25.1373L125.12 12.0943L124.158 12.3666ZM127.849 25.411C128.77 28.6272 129.433 31.6459 129.839 34.4678L130.829 34.3252C130.415 31.4518 129.742 28.3884 128.811 25.1358L127.849 25.411ZM130.824 34.4952C131.15 32.8757 131.576 31.0144 132.102 28.9103L131.132 28.6678C130.603 30.7825 130.174 32.6594 129.844 34.2977L130.824 34.4952ZM132.103 28.9077L136.146 12.3491L135.174 12.1119L131.131 28.6705L132.103 28.9077ZM135.66 12.7305H139.088V11.7305H135.66V12.7305ZM138.606 12.0982L131.539 37.8678L132.504 38.1322L139.57 12.3627L138.606 12.0982ZM132.021 37.5H128.734V38.5H132.021V37.5ZM129.216 37.8667L123.785 18.2319L122.821 18.4985L128.252 38.1333L129.216 37.8667ZM123.784 18.2311C123.326 16.5844 123.061 15.5928 122.983 15.2349L122.006 15.4486C122.091 15.8408 122.366 16.8639 122.821 18.4985L123.784 18.2311ZM122.007 15.2308C121.738 16.4091 121.488 17.4083 121.257 18.2297L122.22 18.5008C122.457 17.6581 122.711 16.6416 122.982 15.4528L122.007 15.2308ZM121.257 18.2311L115.79 37.8659L116.753 38.1341L122.22 18.4993L121.257 18.2311ZM116.271 37.5H112.791V38.5H116.271V37.5ZM142.357 38H141.857V38.5H142.357V38ZM142.357 12.2305V11.7305H141.857V12.2305H142.357ZM160.99 12.2305H161.49V11.7305H160.99V12.2305ZM160.99 15.2715V15.7715H161.49V15.2715H160.99ZM145.768 15.2715V14.7715H145.268V15.2715H145.768ZM145.768 23.1641H145.268V23.6641H145.768V23.1641ZM160.023 23.1641H160.523V22.6641H160.023V23.1641ZM160.023 26.1875V26.6875H160.523V26.1875H160.023ZM145.768 26.1875V25.6875H145.268V26.1875H145.768ZM145.768 34.959H145.268V35.459H145.768V34.959ZM161.588 34.959H162.088V34.459H161.588V34.959ZM161.588 38V38.5H162.088V38H161.588ZM142.857 38V12.2305H141.857V38H142.857ZM142.357 12.7305H160.99V11.7305H142.357V12.7305ZM160.49 12.2305V15.2715H161.49V12.2305H160.49ZM160.99 14.7715H145.768V15.7715H160.99V14.7715ZM145.268 15.2715V23.1641H146.268V15.2715H145.268ZM145.768 23.6641H160.023V22.6641H145.768V23.6641ZM159.523 23.1641V26.1875H160.523V23.1641H159.523ZM160.023 25.6875H145.768V26.6875H160.023V25.6875ZM145.268 26.1875V34.959H146.268V26.1875H145.268ZM145.768 35.459H161.588V34.459H145.768V35.459ZM161.088 34.959V38H162.088V34.959H161.088ZM161.588 37.5H142.357V38.5H161.588V37.5ZM166.158 38H165.658V38.5H166.158V38ZM166.158 12.2305V11.7305H165.658V12.2305H166.158ZM180.555 13.0215L180.351 13.4782L180.357 13.4806L180.555 13.0215ZM183.35 15.4297L182.923 15.691L182.927 15.6963L183.35 15.4297ZM180.766 24.2891L180.544 23.841L179.397 24.4088L180.625 24.7689L180.766 24.2891ZM184.352 26.627L183.953 26.9283L183.955 26.931L184.352 26.627ZM184.844 33.9043L184.396 33.6827L184.395 33.6848L184.844 33.9043ZM180.133 37.5781L180.254 38.0632L180.258 38.0623L180.133 37.5781ZM169.568 23.0586H169.068V23.5586H169.568V23.0586ZM178.393 22.7598L178.25 22.2805L178.247 22.2813L178.393 22.7598ZM180.344 21.4766L179.943 21.1778L179.939 21.1829L180.344 21.4766ZM180.396 16.9766L179.972 17.2416L179.975 17.245L180.396 16.9766ZM178.639 15.6406L178.485 16.1165L178.492 16.1185L178.639 15.6406ZM169.568 15.2715V14.7715H169.068V15.2715H169.568ZM169.568 34.959H169.068V35.459H169.568V34.959ZM178.305 34.8359L178.217 34.3438L178.214 34.3442L178.305 34.8359ZM181.574 32.709L182.013 32.949L182.015 32.9455L181.574 32.709ZM181.346 28.0332L180.934 28.3168L180.936 28.3199L181.346 28.0332ZM179.289 26.5391L179.129 27.0128L179.137 27.0153L179.289 26.5391ZM169.568 26.0996V25.5996H169.068V26.0996H169.568ZM166.658 38V12.2305H165.658V38H166.658ZM166.158 12.7305H175.826V11.7305H166.158V12.7305ZM175.826 12.7305C177.758 12.7305 179.256 12.9903 180.351 13.4782L180.758 12.5648C179.486 11.998 177.832 11.7305 175.826 11.7305V12.7305ZM180.357 13.4806C181.459 13.9562 182.31 14.6907 182.923 15.691L183.776 15.1684C183.053 13.989 182.041 13.118 180.753 12.5624L180.357 13.4806ZM182.927 15.6963C183.56 16.701 183.869 17.7403 183.869 18.8223H184.869C184.869 17.537 184.499 16.3146 183.773 15.163L182.927 15.6963ZM183.869 18.8223C183.869 19.8279 183.598 20.7749 183.047 21.6718L183.899 22.1954C184.543 21.147 184.869 20.0197 184.869 18.8223H183.869ZM183.047 21.6718C182.506 22.551 181.682 23.2774 180.544 23.841L180.987 24.7371C182.263 24.1054 183.244 23.2615 183.899 22.1954L183.047 21.6718ZM180.625 24.7689C182.099 25.2012 183.196 25.9268 183.953 26.9283L184.751 26.3256C183.843 25.124 182.549 24.291 180.906 23.8093L180.625 24.7689ZM183.955 26.931C184.726 27.9381 185.117 29.1297 185.117 30.5293H186.117C186.117 28.9288 185.665 27.519 184.749 26.3229L183.955 26.931ZM185.117 30.5293C185.117 31.6624 184.876 32.7113 184.396 33.6827L185.292 34.1259C185.843 33.0114 186.117 31.8102 186.117 30.5293H185.117ZM184.395 33.6848C183.918 34.6606 183.337 35.3894 182.663 35.8949L183.263 36.6949C184.089 36.0754 184.762 35.2105 185.293 34.1238L184.395 33.6848ZM182.663 35.8949C181.977 36.4096 181.097 36.8133 180.008 37.0939L180.258 38.0623C181.442 37.757 182.449 37.3052 183.263 36.6949L182.663 35.8949ZM180.012 37.0931C178.939 37.3612 177.6 37.5 175.984 37.5V38.5C177.65 38.5 179.077 38.3575 180.254 38.0632L180.012 37.0931ZM175.984 37.5H166.158V38.5H175.984V37.5ZM169.568 23.5586H175.141V22.5586H169.568V23.5586ZM175.141 23.5586C176.657 23.5586 177.805 23.4606 178.538 23.2382L178.247 22.2813C177.667 22.4574 176.648 22.5586 175.141 22.5586V23.5586ZM178.535 23.239C179.483 22.9571 180.237 22.4755 180.748 21.7702L179.939 21.1829C179.584 21.673 179.036 22.0468 178.25 22.2805L178.535 23.239ZM180.745 21.7753C181.267 21.0744 181.512 20.2133 181.512 19.2266H180.512C180.512 20.0445 180.311 20.6834 179.943 21.1778L180.745 21.7753ZM181.512 19.2266C181.512 18.2877 181.285 17.4422 180.818 16.7081L179.975 17.245C180.328 17.7999 180.512 18.4544 180.512 19.2266H181.512ZM180.82 16.7116C180.345 15.9501 179.659 15.4313 178.786 15.1627L178.492 16.1185C179.142 16.3187 179.628 16.6905 179.972 17.2416L180.82 16.7116ZM178.792 15.1648C177.949 14.8923 176.572 14.7715 174.719 14.7715V15.7715C176.569 15.7715 177.805 15.8968 178.485 16.1165L178.792 15.1648ZM174.719 14.7715H169.568V15.7715H174.719V14.7715ZM169.068 15.2715V23.0586H170.068V15.2715H169.068ZM169.568 35.459H175.984V34.459H169.568V35.459ZM175.984 35.459C177.085 35.459 177.9 35.4189 178.395 35.3277L178.214 34.3442C177.819 34.4171 177.086 34.459 175.984 34.459V35.459ZM178.393 35.3281C179.223 35.1793 179.943 34.927 180.538 34.5573L180.009 33.7083C179.549 33.9949 178.956 34.2113 178.217 34.3438L178.393 35.3281ZM180.538 34.5573C181.148 34.1777 181.638 33.6349 182.013 32.949L181.136 32.469C180.831 33.0253 180.454 33.4317 180.009 33.7083L180.538 34.5573ZM182.015 32.9455C182.399 32.2302 182.584 31.4203 182.584 30.5293H181.584C181.584 31.2789 181.429 31.9221 181.134 32.4724L182.015 32.9455ZM182.584 30.5293C182.584 29.4786 182.313 28.5435 181.755 27.7465L180.936 28.3199C181.363 28.9291 181.584 29.6582 181.584 30.5293H182.584ZM181.758 27.7497C181.198 26.9377 180.419 26.3756 179.441 26.0629L179.137 27.0153C179.917 27.2651 180.509 27.6991 180.934 28.3168L181.758 27.7497ZM179.449 26.0654C178.505 25.7463 177.186 25.5996 175.527 25.5996V26.5996C177.149 26.5996 178.339 26.7459 179.129 27.0128L179.449 26.0654ZM175.527 25.5996H169.568V26.5996H175.527V25.5996ZM169.068 26.0996V34.959H170.068V26.0996H169.068Z" fill="white"/>
<path d="M1 9V49" stroke="#E30613" stroke-miterlimit="10"/>
<path d="M213 1V38" stroke="#E30613" stroke-miterlimit="10"/>
<path d="M212.5 1H1" stroke="#E30613" stroke-miterlimit="10"/>
<path d="M1 49H212.9" stroke="#E30613" stroke-miterlimit="10"/>
</g>
<defs>
<clipPath id="clip0_792_6559">
<rect width="214" height="50" fill="white"/>
</clipPath>
</defs>
</svg>
