<svg width="65" height="65" viewBox="0 0 65 65" fill="none" xmlns="http://www.w3.org/2000/svg">
<g clip-path="url(#clip0_771_6066)">
<path d="M32.5 0C23.8824 0 15.6102 3.42621 9.52148 9.51895C3.42653 15.6141 0.00168832 23.8803 0 32.5C0 41.1161 3.42773 49.3883 9.52148 55.4811C15.6102 61.5738 23.8824 65 32.5 65C41.1176 65 49.3898 61.5738 55.4785 55.4811C61.5723 49.3883 65 41.1161 65 32.5C65 23.8839 61.5723 15.6117 55.4785 9.51895C49.3898 3.42621 41.1176 0 32.5 0Z" fill="url(#paint0_linear_771_6066)"/>
<path d="M16.1995 29.7759C24.7911 25.2604 30.5188 22.2832 33.3826 20.8449C41.569 16.7377 43.268 16.0244 44.3776 16.0002C44.6216 15.9955 45.1649 16.0683 45.5195 16.4141C45.8141 16.7058 45.897 17.1002 45.9384 17.3771C45.9753 17.6538 46.0259 18.2844 45.9845 18.7766C45.5425 24.3988 43.6225 38.042 42.6464 44.3392C42.2366 47.0036 41.4217 47.8969 40.6343 47.9841C38.9215 48.1741 37.6231 46.6197 35.9656 45.3092C33.3734 43.2575 31.9093 41.9809 29.3907 39.9792C26.4808 37.6659 28.3686 36.3942 30.0261 34.3165C30.4589 33.7726 38.0007 25.4976 38.1434 24.7471C38.1618 24.6532 38.1803 24.3032 38.0053 24.1188C37.8349 23.9338 37.5817 23.9971 37.3975 24.0471C37.1351 24.1182 32.9959 27.4226 24.966 33.9598C23.7919 34.9342 22.7284 35.4092 21.7707 35.3842C20.7209 35.357 18.695 34.6665 17.1894 34.0765C15.3477 33.3526 13.879 32.9698 14.0079 31.7404C14.0723 31.1004 14.8044 30.4454 16.1995 29.7759Z" fill="white"/>
</g>
<defs>
<linearGradient id="paint0_linear_771_6066" x1="3250" y1="0" x2="3250" y2="6500" gradientUnits="userSpaceOnUse">
<stop stop-color="#2AABEE"/>
<stop offset="1" stop-color="#229ED9"/>
</linearGradient>
<clipPath id="clip0_771_6066">
<rect width="65" height="65" fill="white"/>
</clipPath>
</defs>
</svg>
