<svg width="48" height="48" viewBox="0 0 48 48" fill="none" xmlns="http://www.w3.org/2000/svg">
<path d="M38 24C38 20.1 36.6413 16.7913 33.924 14.074C31.2067 11.3567 27.8987 9.99867 24 10V6C26.5 6 28.842 6.47533 31.026 7.426C33.21 8.37667 35.11 9.65933 36.726 11.274C38.342 12.8913 39.6253 14.7913 40.576 16.974C41.5267 19.1567 42.0013 21.4987 42 24H38ZM30 24C30 22.3333 29.4167 20.9167 28.25 19.75C27.0833 18.5833 25.6667 18 24 18V14C26.7667 14 29.1253 14.9753 31.076 16.926C33.0267 18.8767 34.0013 21.2347 34 24H30ZM39.9 42C35.6 42 31.408 41.0413 27.324 39.124C23.24 37.2067 19.6233 34.6733 16.474 31.524C13.3247 28.3747 10.7913 24.758 8.874 20.674C6.95667 16.59 5.99867 12.3987 6 8.1C6 7.5 6.2 7 6.6 6.6C7 6.2 7.5 6 8.1 6H16.2C16.6667 6 17.0833 6.15 17.45 6.45C17.8167 6.75 18.0333 7.13333 18.1 7.6L19.4 14.6C19.4667 15.0667 19.458 15.492 19.374 15.876C19.29 16.26 19.0987 16.6013 18.8 16.9L13.95 21.8C15.35 24.2 17.1087 26.45 19.226 28.55C21.3433 30.65 23.668 32.4667 26.2 34L30.9 29.3C31.2 29 31.592 28.7747 32.076 28.624C32.56 28.4733 33.0347 28.432 33.5 28.5L40.4 29.9C40.8667 30 41.25 30.2253 41.55 30.576C41.85 30.9267 42 31.3347 42 31.8V39.9C42 40.5 41.8 41 41.4 41.4C41 41.8 40.5 42 39.9 42ZM12.05 18L15.35 14.7L14.5 10H10.05C10.2167 11.3667 10.45 12.7167 10.75 14.05C11.05 15.3833 11.4833 16.7 12.05 18ZM29.95 35.9C31.25 36.4667 32.5753 36.9167 33.926 37.25C35.2767 37.5833 36.6347 37.8 38 37.9V33.5L33.3 32.55L29.95 35.9Z" fill="black"/>
</svg>
