<svg width="100" height="100" viewBox="0 0 100 100" fill="none" xmlns="http://www.w3.org/2000/svg">
<g clip-path="url(#clip0_856_6674)">
<mask id="mask0_856_6674" style="mask-type:luminance" maskUnits="userSpaceOnUse" x="0" y="0" width="100" height="100">
<path d="M100 0H0V100H100V0Z" fill="white"/>
</mask>
<g mask="url(#mask0_856_6674)">
<path d="M9.53347 100C4.25963 100 0 95.7404 0 90.4665V9.53347C0 4.25963 4.25963 0 9.53347 0H50C55.2738 0 59.5335 4.25963 59.5335 9.53347V12.8803C59.5335 13.4888 59.0264 13.8945 58.5193 13.8945C58.0122 13.8945 57.5051 13.3874 57.5051 12.8803V9.53347C57.5051 5.47667 54.1582 2.12982 50.1014 2.12982H49.0872L45.2333 9.83773C44.5233 11.359 43.002 12.2718 41.2779 12.2718H18.357C16.6329 12.2718 15.1116 11.359 14.4016 9.83773L10.5477 2.12982H9.53347C5.47667 2.12982 2.12982 5.47667 2.12982 9.53347V90.568C2.12982 94.6247 5.47667 97.9716 9.53347 97.9716H50C54.0568 97.9716 57.4036 94.6247 57.4036 90.568C57.4036 89.9594 57.9107 89.5538 58.4178 89.5538C58.9249 89.5538 59.432 90.0609 59.432 90.568C59.432 95.8418 55.1724 100.101 49.8986 100.101H9.53347V100ZM16.2272 8.82353C16.6329 9.63489 17.4442 10.142 18.2556 10.142H41.0751C41.9878 10.142 42.7992 9.63489 43.1034 8.82353L46.4503 2.12982H12.8803L16.2272 8.82353Z" fill="black"/>
<path d="M43.2043 84.7871C37.9305 84.7871 33.6708 80.5275 33.6708 75.2536V64.0974L14.9082 54.0569C13.9954 53.5498 13.4883 52.637 13.4883 51.6228C13.4883 50.6086 13.9954 49.6958 14.9082 49.1887L33.6708 39.1482V27.992C33.6708 22.7181 37.9305 18.4585 43.2043 18.4585H90.466C95.7398 18.4585 99.9994 22.7181 99.9994 27.992V75.2536C99.9994 80.5275 95.7398 84.7871 90.466 84.7871H43.2043ZM43.2043 20.6897C39.1475 20.6897 35.8007 24.0366 35.8007 28.0934V39.8581C35.8007 40.2638 35.5978 40.568 35.2936 40.7709L16.5552 50.8392C15.8514 51.2174 15.8534 52.2274 16.5586 52.6028L35.2936 62.5761C35.5978 62.779 35.9021 63.0832 35.9021 63.4889V75.2536C35.9021 79.3104 39.2489 82.6573 43.3057 82.6573H90.5674C94.6242 82.6573 97.971 79.3104 97.971 75.2536V28.0934C97.971 24.0366 94.6242 20.6897 90.5674 20.6897H43.2043Z" fill="black"/>
<path d="M55.0701 73.0224C52.636 73.0224 50.6076 70.994 50.6076 68.5599V60.7506L49.6949 60.9534C49.1878 61.0548 48.7821 61.1563 48.275 61.1563C46.1452 61.1563 44.2182 60.1421 43.1026 58.3165C41.6827 56.0853 41.8855 53.1441 43.6097 51.1157C44.8267 49.6958 46.5509 48.8845 48.3764 48.8845C48.8835 48.8845 49.2892 48.9859 49.7963 49.0873L50.7091 49.2901V41.5822C50.7091 39.1482 52.7375 37.1198 55.1715 37.1198H62.9809L62.778 36.207C62.5752 35.2942 62.5752 34.3814 62.778 33.4686C63.2851 31.0346 65.2121 29.209 67.6462 28.8033C68.0519 28.7019 68.3561 28.7019 68.7618 28.7019C70.1817 28.7019 71.6016 29.209 72.7172 30.1218C74.4413 31.6431 75.2527 33.9757 74.7456 36.3084L74.5427 37.2212H82.3521C84.7861 37.2212 86.8145 39.2496 86.8145 41.6836V49.6958C86.8145 50.3043 86.5103 50.9129 85.9018 51.3185C85.5975 51.5214 85.2932 51.6228 84.8876 51.6228C84.5833 51.6228 84.279 51.5214 84.0762 51.42C83.5691 51.2171 82.9606 51.0143 82.3521 51.0143C81.135 51.0143 80.0194 51.5214 79.3095 52.4342C78.3967 53.5498 78.0924 54.9697 78.5995 56.2881C79.0052 57.6066 80.1208 58.6208 81.5407 58.925C81.845 59.0264 82.1492 59.0264 82.4535 59.0264C83.062 59.0264 83.6705 58.925 84.1776 58.6208C84.3805 58.5193 84.6847 58.4179 84.989 58.4179C85.2932 58.4179 85.6989 58.5193 86.0032 58.7222C86.6117 59.1279 86.916 59.635 86.916 60.3449V68.5599C86.916 70.994 84.8876 73.0224 82.4535 73.0224H74.1371C73.5285 73.0224 72.92 72.6167 72.6158 72.1096C72.3115 71.6025 72.2101 70.8926 72.5143 70.2841C72.92 69.4727 73.0214 68.5599 72.8186 67.6471C72.4129 65.8216 70.7902 64.5031 68.8632 64.5031C68.7618 64.5031 68.559 64.5031 68.4575 64.5031C66.4291 64.706 64.9079 66.4301 64.9079 68.5599C64.9079 69.1684 65.0093 69.777 65.3135 70.2841C65.6178 70.8926 65.5164 71.6025 65.2121 72.1096C64.5022 72.7181 63.8937 73.0224 63.2851 73.0224H55.0701ZM68.559 62.5761C71.3987 62.5761 73.8328 64.5031 74.5427 67.2415C74.7456 68.1542 74.7456 69.067 74.5427 69.9798L74.3399 70.8926H82.1492C83.4677 70.8926 84.4819 69.8784 84.4819 68.5599V60.7506L83.5691 60.9534C83.062 61.0548 82.6563 61.1563 82.1492 61.1563C80.0194 61.1563 78.0924 60.1421 76.9768 58.3165C75.5569 56.0853 75.7598 53.1441 77.4839 51.1157C78.701 49.6958 80.4251 48.8845 82.2506 48.8845C82.7577 48.8845 83.1634 48.9859 83.6705 49.0873L84.5833 49.2901V41.5822C84.5833 40.2638 83.5691 39.2496 82.2506 39.2496H74.0356C73.4271 39.2496 72.8186 38.9453 72.4129 38.3368C72.1087 37.8297 72.0072 37.1198 72.3115 36.5112C72.6158 36.0041 72.7172 35.3956 72.7172 34.7871C72.7172 32.7587 71.1959 31.0346 69.1675 30.7303C69.0661 30.7303 68.8632 30.7303 68.7618 30.7303C66.9363 30.7303 65.2121 32.0488 64.8064 33.8743C64.6036 34.7871 64.705 35.6999 65.1107 36.5112C65.4149 37.1198 65.3135 37.7283 65.0093 38.3368C64.705 38.9453 64.0965 39.2496 63.3866 39.2496H55.1715C53.8531 39.2496 52.8389 40.2638 52.8389 41.5822V49.6958C52.8389 50.3043 52.5346 50.9129 51.9261 51.3185C51.6218 51.5214 51.3176 51.6228 50.9119 51.6228C50.6076 51.6228 50.3034 51.5214 50.1005 51.42C49.5935 51.2171 48.9849 51.0143 48.3764 51.0143C47.1594 51.0143 46.0438 51.5214 45.3338 52.4342C44.421 53.5498 44.1168 54.9697 44.6239 56.2881C45.0296 57.6066 46.1452 58.6208 47.5651 58.925C47.8693 59.0264 48.1736 59.0264 48.4778 59.0264C49.0863 59.0264 49.6949 58.925 50.202 58.6208C50.4048 58.5193 50.7091 58.4179 51.0133 58.4179C51.3176 58.4179 51.7233 58.5193 52.0275 58.7222C52.636 59.1279 52.9403 59.635 52.9403 60.3449V68.5599C52.9403 69.8784 53.9545 70.8926 55.273 70.8926H62.9809L62.5752 69.9798C62.2709 68.4585 62.4738 66.8358 63.3866 65.4159C64.1979 63.996 65.6178 63.0832 67.1391 62.6776C67.6462 62.5761 68.1533 62.5761 68.559 62.5761Z" fill="#FD0037"/>
</g>
</g>
<defs>
<clipPath id="clip0_856_6674">
<rect width="100" height="100" fill="white"/>
</clipPath>
</defs>
</svg>
