<svg width="100" height="100" viewBox="0 0 100 100" fill="none" xmlns="http://www.w3.org/2000/svg">
<g clip-path="url(#clip0_856_6641)">
<mask id="mask0_856_6641" style="mask-type:luminance" maskUnits="userSpaceOnUse" x="0" y="0" width="100" height="100">
<path d="M100 0H0V100H100V0Z" fill="white"/>
</mask>
<g mask="url(#mask0_856_6641)">
<path d="M9.53347 100C4.25963 100 0 95.7404 0 90.4665V9.53347C0 4.25963 4.25963 0 9.53347 0H50C55.2738 0 59.5335 4.25963 59.5335 9.53347V12.8803C59.5335 13.4888 59.0264 13.8945 58.5193 13.8945C58.0122 13.8945 57.5051 13.3874 57.5051 12.8803V9.53347C57.5051 5.47667 54.1582 2.12982 50.1014 2.12982H49.0872L45.2333 9.83773C44.5233 11.359 43.002 12.2718 41.2779 12.2718H18.357C16.6329 12.2718 15.1116 11.359 14.4016 9.83773L10.5477 2.12982H9.53347C5.47667 2.12982 2.12982 5.47667 2.12982 9.53347V90.568C2.12982 94.6247 5.47667 97.9716 9.53347 97.9716H50C54.0568 97.9716 57.4036 94.6247 57.4036 90.568C57.4036 89.9594 57.9107 89.5538 58.4178 89.5538C58.9249 89.5538 59.432 90.0609 59.432 90.568C59.432 95.8418 55.1724 100.101 49.8986 100.101H9.53347V100ZM16.2272 8.82353C16.6329 9.63489 17.4442 10.142 18.2556 10.142H41.0751C41.9878 10.142 42.7992 9.63489 43.1034 8.82353L46.4503 2.12982H12.8803L16.2272 8.82353Z" fill="white"/>
<path d="M43.2043 84.7871C37.9305 84.7871 33.6708 80.5275 33.6708 75.2536V64.0974L14.9082 54.0569C13.9954 53.5498 13.4883 52.637 13.4883 51.6228C13.4883 50.6086 13.9954 49.6958 14.9082 49.1887L33.6708 39.1482V27.992C33.6708 22.7181 37.9305 18.4585 43.2043 18.4585H90.466C95.7398 18.4585 99.9994 22.7181 99.9994 27.992V75.2536C99.9994 80.5275 95.7398 84.7871 90.466 84.7871H43.2043ZM43.2043 20.6897C39.1475 20.6897 35.8007 24.0366 35.8007 28.0934V39.8581C35.8007 40.2638 35.5978 40.568 35.2936 40.7709L16.5552 50.8392C15.8514 51.2174 15.8534 52.2274 16.5586 52.6028L35.2936 62.5761C35.5978 62.779 35.9021 63.0832 35.9021 63.4889V75.2536C35.9021 79.3104 39.2489 82.6573 43.3057 82.6573H90.5674C94.6242 82.6573 97.971 79.3104 97.971 75.2536V28.0934C97.971 24.0366 94.6242 20.6897 90.5674 20.6897H43.2043Z" fill="white"/>
<path d="M55.0701 73.0222C52.636 73.0222 50.6076 70.9938 50.6076 68.5597V60.7504L49.6949 60.9532C49.1878 61.0546 48.7821 61.1561 48.275 61.1561C46.1452 61.1561 44.2182 60.1419 43.1026 58.3163C41.6827 56.0851 41.8855 53.1439 43.6097 51.1155C44.8267 49.6956 46.5509 48.8843 48.3764 48.8843C48.8835 48.8843 49.2892 48.9857 49.7963 49.0871L50.7091 49.2899V41.582C50.7091 39.148 52.7375 37.1196 55.1715 37.1196H62.9809L62.778 36.2068C62.5752 35.294 62.5752 34.3812 62.778 33.4684C63.2851 31.0344 65.2121 29.2088 67.6462 28.8031C68.0519 28.7017 68.3561 28.7017 68.7618 28.7017C70.1817 28.7017 71.6016 29.2088 72.7172 30.1216C74.4413 31.6429 75.2527 33.9755 74.7456 36.3082L74.5427 37.221H82.3521C84.7861 37.221 86.8145 39.2494 86.8145 41.6834V49.6956C86.8145 50.3041 86.5103 50.9127 85.9018 51.3183C85.5975 51.5212 85.2932 51.6226 84.8876 51.6226C84.5833 51.6226 84.279 51.5212 84.0762 51.4198C83.5691 51.2169 82.9606 51.0141 82.3521 51.0141C81.135 51.0141 80.0194 51.5212 79.3095 52.434C78.3967 53.5496 78.0924 54.9695 78.5995 56.2879C79.0052 57.6064 80.1208 58.6206 81.5407 58.9248C81.845 59.0262 82.1492 59.0262 82.4535 59.0262C83.062 59.0262 83.6705 58.9248 84.1776 58.6206C84.3805 58.5191 84.6847 58.4177 84.989 58.4177C85.2932 58.4177 85.6989 58.5191 86.0032 58.722C86.6117 59.1277 86.916 59.6348 86.916 60.3447V68.5597C86.916 70.9938 84.8876 73.0222 82.4535 73.0222H74.1371C73.5285 73.0222 72.92 72.6165 72.6158 72.1094C72.3115 71.6023 72.2101 70.8924 72.5143 70.2839C72.92 69.4725 73.0214 68.5597 72.8186 67.6469C72.4129 65.8214 70.7902 64.5029 68.8632 64.5029C68.7618 64.5029 68.559 64.5029 68.4575 64.5029C66.4291 64.7058 64.9079 66.4299 64.9079 68.5597C64.9079 69.1682 65.0093 69.7768 65.3135 70.2839C65.6178 70.8924 65.5164 71.6023 65.2121 72.1094C64.5022 72.7179 63.8937 73.0222 63.2851 73.0222H55.0701ZM68.559 62.5759C71.3987 62.5759 73.8328 64.5029 74.5427 67.2413C74.7456 68.154 74.7456 69.0668 74.5427 69.9796L74.3399 70.8924H82.1492C83.4677 70.8924 84.4819 69.8782 84.4819 68.5597V60.7504L83.5691 60.9532C83.062 61.0546 82.6563 61.1561 82.1492 61.1561C80.0194 61.1561 78.0924 60.1419 76.9768 58.3163C75.5569 56.0851 75.7598 53.1439 77.4839 51.1155C78.701 49.6956 80.4251 48.8843 82.2506 48.8843C82.7577 48.8843 83.1634 48.9857 83.6705 49.0871L84.5833 49.2899V41.582C84.5833 40.2636 83.5691 39.2494 82.2506 39.2494H74.0356C73.4271 39.2494 72.8186 38.9451 72.4129 38.3366C72.1087 37.8295 72.0072 37.1196 72.3115 36.511C72.6158 36.0039 72.7172 35.3954 72.7172 34.7869C72.7172 32.7585 71.1959 31.0344 69.1675 30.7301C69.0661 30.7301 68.8632 30.7301 68.7618 30.7301C66.9363 30.7301 65.2121 32.0486 64.8064 33.8741C64.6036 34.7869 64.705 35.6997 65.1107 36.511C65.4149 37.1196 65.3135 37.7281 65.0093 38.3366C64.705 38.9451 64.0965 39.2494 63.3866 39.2494H55.1715C53.8531 39.2494 52.8389 40.2636 52.8389 41.582V49.6956C52.8389 50.3041 52.5346 50.9127 51.9261 51.3183C51.6218 51.5212 51.3176 51.6226 50.9119 51.6226C50.6076 51.6226 50.3034 51.5212 50.1005 51.4198C49.5935 51.2169 48.9849 51.0141 48.3764 51.0141C47.1594 51.0141 46.0438 51.5212 45.3338 52.434C44.421 53.5496 44.1168 54.9695 44.6239 56.2879C45.0296 57.6064 46.1452 58.6206 47.5651 58.9248C47.8693 59.0262 48.1736 59.0262 48.4778 59.0262C49.0863 59.0262 49.6949 58.9248 50.202 58.6206C50.4048 58.5191 50.7091 58.4177 51.0133 58.4177C51.3176 58.4177 51.7233 58.5191 52.0275 58.722C52.636 59.1277 52.9403 59.6348 52.9403 60.3447V68.5597C52.9403 69.8782 53.9545 70.8924 55.273 70.8924H62.9809L62.5752 69.9796C62.2709 68.4583 62.4738 66.8356 63.3866 65.4157C64.1979 63.9958 65.6178 63.083 67.1391 62.6774C67.6462 62.5759 68.1533 62.5759 68.559 62.5759Z" fill="#FD0037"/>
</g>
</g>
<defs>
<clipPath id="clip0_856_6641">
<rect width="100" height="100" fill="white"/>
</clipPath>
</defs>
</svg>
