<svg width="175" height="175" viewBox="0 0 175 175" fill="none" xmlns="http://www.w3.org/2000/svg">
<g clip-path="url(#clip0_223_38)">
<path d="M164.063 171.5H87.5C86.4117 171.5 85.5312 170.619 85.5312 169.531V114.844C85.5312 113.755 86.4117 112.875 87.5 112.875H107.406V98.4374C107.406 97.3491 108.287 96.4686 109.375 96.4686H142.188C143.276 96.4686 144.156 97.3491 144.156 98.4374V112.875H164.063C165.151 112.875 166.031 113.755 166.031 114.844V169.531C166.031 170.619 165.151 171.5 164.063 171.5ZM89.4688 167.562H162.094V138.687H138.688V142.187C138.688 143.276 137.807 144.156 136.719 144.156H114.844C113.755 144.156 112.875 143.276 112.875 142.187V138.687H89.4688V167.562ZM116.813 140.219H134.745V133.219H116.813V140.219ZM138.688 134.75H162.088V116.812H89.4688V134.744H112.875V131.25C112.875 130.162 113.755 129.281 114.844 129.281H136.719C137.807 129.281 138.688 130.162 138.688 131.25V134.75ZM111.344 112.875H140.213V100.406H111.344V112.875ZM45.7187 169.531H41.7812V128.516C41.7812 108.872 54.1242 91.7765 72.3297 85.4272C65.0781 80.4671 60.5937 72.1874 60.5937 63.2241C60.5937 52.4835 66.9211 43.1866 76.0484 38.8772C77.1203 36.1866 77.6617 33.3429 77.6617 30.4116C77.6617 17.746 67.3586 7.4374 54.6875 7.4374C42.0164 7.4374 31.7133 17.7405 31.7133 30.4116C31.7133 39.4624 37.0727 47.7038 45.3633 51.3897C46.1398 51.7343 46.6047 52.5327 46.5227 53.3749C46.4461 54.2116 45.8391 54.9116 45.0188 55.103C26.1078 59.5874 12.9062 76.2835 12.9062 95.703V136.719H8.96875V95.703C8.96875 76.0593 21.3117 58.964 39.5117 52.6147C32.2602 47.6546 27.7813 39.3749 27.7813 30.4116C27.7813 15.5749 39.8508 3.50537 54.6875 3.50537C69.5242 3.50537 81.5937 15.5749 81.5937 30.4116C81.5937 32.7194 81.3094 34.978 80.7352 37.1765C85.0555 36.0554 89.9391 36.0554 94.2594 37.1765C93.6906 34.9835 93.4008 32.7194 93.4008 30.4116C93.4008 15.5749 105.476 3.50537 120.313 3.50537C135.149 3.50537 147.224 15.5749 147.224 30.4116C147.224 39.3749 142.74 47.6601 135.488 52.6202C153.694 58.9749 166.037 76.0866 166.037 95.7522V98.4374H162.094V95.7468C162.094 76.2999 148.892 59.5874 129.987 55.103C129.166 54.9062 128.559 54.2116 128.483 53.3749C128.401 52.5327 128.871 51.7343 129.642 51.3952C137.927 47.6983 143.281 39.4624 143.281 30.4116C143.281 17.746 132.978 7.4374 120.313 7.4374C107.647 7.4374 97.3437 17.7405 97.3437 30.4116C97.3437 33.3429 97.8852 36.1866 98.957 38.8772C108.084 43.1921 114.412 52.4835 114.412 63.2241C114.412 68.3483 112.963 73.3304 110.223 77.6233C107.368 82.1132 103.283 85.6351 98.4266 87.8007L96.8242 84.2077C100.98 82.3593 104.459 79.3515 106.903 75.5124C109.238 71.8429 110.469 67.5991 110.469 63.2241C110.469 50.5585 100.166 40.2499 87.5 40.2499C74.8344 40.2499 64.5312 50.553 64.5312 63.2241C64.5312 72.2804 69.8906 80.5163 78.1812 84.2022C78.9523 84.5468 79.4172 85.3452 79.3406 86.1874C79.2641 87.0241 78.657 87.7241 77.8367 87.9155C58.9258 92.3999 45.7187 109.091 45.7187 128.516V169.531Z" fill="white"/>
</g>
<defs>
<clipPath id="clip0_223_38">
<rect width="175" height="175" fill="white"/>
</clipPath>
</defs>
</svg>
