<svg width="209" height="92" viewBox="0 0 209 92" fill="none" xmlns="http://www.w3.org/2000/svg">
<path d="M207.465 40.0529V35.7157C207.465 20.7657 199.432 14.03 187.283 14.03C168.669 14.03 166.808 30.7871 166.808 35.9786C166.808 53.2943 175.429 59.4057 187.283 59.6686H188.296C192.565 59.878 196.777 58.605 200.225 56.0628C203.673 53.5207 206.148 49.8637 207.236 45.7043H195.643C195.106 47.2007 194.098 48.4795 192.771 49.3455C191.444 50.2116 189.873 50.6175 188.296 50.5014H187.283C186.001 50.4286 184.748 50.0878 183.604 49.5006C182.461 48.9135 181.451 48.0929 180.64 47.0913C179.829 46.0897 179.234 44.9289 178.893 43.6831C178.553 42.4373 178.474 41.1338 178.662 39.8557H207.889L207.465 40.0529ZM187.055 23.4929C188.224 23.4914 189.38 23.7291 190.455 24.1915C191.53 24.6539 192.5 25.3313 193.306 26.1826C194.112 27.0339 194.738 28.0412 195.146 29.1435C195.553 30.2457 195.734 31.4197 195.676 32.5943H178.238C178.891 26.9429 181.764 23.4929 187.055 23.4929ZM163.902 0H152.57V58.9786H163.902V0ZM131.409 14.1286C128.77 14.0192 126.156 14.6729 123.876 16.0123C121.596 17.3516 119.745 19.3205 118.542 21.6857V15.18H107.667V75.8343H119.032V53.0643H119.26C120.137 54.7944 121.419 56.2845 122.994 57.4062C124.57 58.528 126.393 59.248 128.306 59.5043C129.319 59.6686 130.364 59.7671 131.409 59.7671C144.34 59.7671 149.696 48.4314 149.696 36.5371C149.696 21.4886 141.042 14.0629 131.637 14.0629L131.409 14.0957V14.1286ZM128.306 50.4029H127.98C120.697 50.4029 118.607 42.3857 118.607 37.3914C118.607 30.4914 121.122 24.0843 128.306 24.0843C135.491 24.0843 137.809 30.9843 137.809 37.95C137.809 44.9486 135.066 50.2386 128.078 50.4357L128.306 50.4029Z" fill="white"/>
<path fill-rule="evenodd" clip-rule="evenodd" d="M42.4531 15.2128V58.5513H53.8502V32.0356C53.8502 27.4028 55.5483 23.6899 60.8712 23.6899C66.1616 23.6899 67.7291 28.9142 67.7291 32.5613V58.5842H78.9955V32.5942C78.9955 27.4356 81.0528 23.6242 86.833 23.6242C90.0659 23.6242 92.9397 25.7928 92.9397 32.2985V58.7156H104.239V28.3885C104.341 26.4118 104.019 24.4361 103.295 22.5956C102.571 20.755 101.462 19.0927 100.044 17.7214C98.625 16.3501 96.9297 15.3019 95.0729 14.6479C93.2161 13.994 91.2412 13.7496 89.2822 13.9313C86.9405 13.9603 84.6484 14.6144 82.6403 15.8267C80.6321 17.039 78.9799 18.7661 77.8525 20.8313C76.7319 18.6166 74.9893 16.782 72.8412 15.5553C70.6931 14.3286 68.2341 13.7639 65.7697 13.9313C63.2059 13.8295 60.6718 14.5131 58.5026 15.8919C56.3334 17.2707 54.6313 19.2795 53.6216 21.6528V15.2128H42.4531Z" fill="white"/>
<path d="M53.393 0H42.4531V11.0071H53.393V0Z" fill="#E12A2E"/>
<path fill-rule="evenodd" clip-rule="evenodd" d="M38.2405 28.9798C37.3914 16.6912 27.3006 14.5884 18.908 14.5884C5.45359 14.5884 1.66547 22.7369 1.66547 29.1112C1.66547 45.4084 28.4436 39.9212 28.4436 47.117C28.4436 48.6941 27.0394 51.717 21.1612 51.717C14.0422 51.717 11.7889 48.9241 11.7889 45.2441H0C0 56.8098 10.9398 60.2927 20.7041 60.2927C27.4312 60.2927 39.5467 58.0584 39.5467 45.4084C39.5467 29.3084 12.5727 34.4012 12.5727 27.5012C12.5727 25.6612 13.3564 23.197 19.5611 23.197C25.7658 23.197 26.7455 26.1541 27.17 28.9141L38.2731 28.9798H38.2405Z" fill="white"/>
</svg>
