<svg width="90" height="90" viewBox="0 0 90 90" fill="none" xmlns="http://www.w3.org/2000/svg">
<path d="M44.9196 71.6755C44.5043 71.6755 44.178 71.3393 44.178 70.9338V64.7532L43.6242 64.7136C41.1816 64.5554 38.8181 63.9522 36.603 62.9138C36.425 62.8248 36.2865 62.6765 36.2173 62.4886C36.1481 62.3007 36.158 62.1029 36.247 61.915C36.3656 61.648 36.6326 61.4799 36.9293 61.4799C37.0381 61.4799 37.1469 61.4997 37.2458 61.5491C39.6587 62.6765 42.2496 63.25 44.9394 63.25C54.9966 63.25 63.1748 55.052 63.1748 44.985C63.1748 39.3779 60.663 34.1664 56.2821 30.6756C56.1239 30.547 56.025 30.369 56.0052 30.1713C55.9855 29.9735 56.0349 29.7757 56.1635 29.6175C56.3019 29.4395 56.5195 29.3406 56.7469 29.3406C56.8656 29.3406 57.0436 29.3702 57.2117 29.4988C58.8236 30.7844 60.218 32.2974 61.3552 33.9884L61.6618 34.4433L66.9919 31.3579C67.1106 31.2887 67.2293 31.259 67.3677 31.259C67.6347 31.259 67.882 31.3975 68.0204 31.6348C68.1193 31.8128 68.149 32.0106 68.0896 32.1985C68.0402 32.3864 67.9116 32.5545 67.7435 32.6534L62.4133 35.7388L62.6605 36.2332C64.0055 38.9626 64.6878 41.8996 64.6878 44.9751C64.6878 48.0407 64.0055 50.9778 62.6507 53.7071L62.4034 54.2016L67.7435 57.287C67.9215 57.3858 68.0402 57.554 68.0896 57.7418C68.1391 57.9396 68.1193 58.1374 68.0105 58.3055C67.8721 58.5429 67.6347 58.6813 67.3578 58.6813C67.2293 58.6813 67.1007 58.6516 66.9821 58.5824L61.642 55.497L61.3354 55.9519C57.8842 61.1041 52.3859 64.2884 46.2349 64.6839L45.6811 64.7235V70.9041C45.6712 71.3393 45.335 71.6755 44.9196 71.6755Z" fill="black"/>
<path d="M44.9191 90C41.1415 90 37.888 87.1816 37.354 83.4337L37.2947 83.0282L36.8892 82.9392C28.9681 81.2581 21.6008 76.9959 16.1421 70.934L15.8652 70.6274L15.4795 70.7856C14.5697 71.1515 13.6204 71.3394 12.6512 71.3394C11.9788 71.3394 11.3162 71.2504 10.6636 71.0724C8.68575 70.5384 7.03428 69.2726 6.01571 67.5025C4.12691 64.2292 4.93781 59.9967 7.90451 57.653L8.23085 57.3959L8.1023 57.0102C6.84639 53.1436 6.21349 49.1089 6.21349 45.0049C6.21349 40.901 6.84639 36.8663 8.1023 32.9997L8.23085 32.614L7.90451 32.3569C4.93781 30.0231 4.12691 25.7906 6.01571 22.5074C7.03428 20.7373 8.68575 19.4616 10.6636 18.9375C11.3162 18.7595 11.9788 18.6705 12.6512 18.6705C13.6204 18.6705 14.5796 18.8584 15.4894 19.2243L15.8751 19.3825L16.152 19.0759C21.6008 13.014 28.9681 8.75179 36.8991 7.07065L37.3046 6.98165L37.3639 6.5762C37.888 2.82826 41.1415 0 44.9191 0C48.6967 0 51.9502 2.81837 52.4842 6.56631L52.5436 6.97176L52.949 7.06076C60.88 8.7419 68.2473 13.0041 73.6962 19.066L73.9731 19.3726L74.3587 19.2144C75.2685 18.8485 76.2179 18.6606 77.1969 18.6606C77.8595 18.6606 78.5319 18.7496 79.1846 18.9276C81.1624 19.4616 82.8139 20.7274 83.8324 22.4975C85.7212 25.7708 84.9103 30.0033 81.9436 32.347L81.6173 32.6041L81.7459 32.9898C83.0018 36.8564 83.6347 40.8911 83.6347 44.9951C83.6347 49.099 83.0018 53.1337 81.7459 57.0003L81.6173 57.386L81.9436 57.6431C84.9103 59.9769 85.7212 64.2094 83.8324 67.4926C82.8139 69.2627 81.1624 70.5384 79.1846 71.0625C78.5319 71.2405 77.8595 71.3295 77.1969 71.3295C76.2278 71.3295 75.2784 71.1416 74.3686 70.7757L73.983 70.6175L73.7061 70.9241C68.2572 76.986 60.8899 81.2482 52.9589 82.9293L52.5535 83.0183L52.4941 83.4238C51.9601 87.1717 48.7066 90 44.9191 90ZM44.9191 76.1652C41.5272 76.1652 38.7682 78.9342 38.7682 82.336C38.7682 85.7378 41.5272 88.5068 44.9191 88.5068C48.3111 88.5068 51.0701 85.7378 51.0701 82.336C51.08 78.9342 48.321 76.1652 44.9191 76.1652ZM44.9191 74.672C48.588 74.672 51.7426 77.2926 52.4348 80.9021L52.5535 81.5053L53.1468 81.3669C60.3856 79.7253 67.1694 75.7994 72.2425 70.3109L72.6578 69.8659L72.2029 69.4704C69.434 67.0772 68.7517 63.0227 70.5811 59.8484C71.5997 58.0782 73.2512 56.8025 75.229 56.2784C75.8817 56.1004 76.5541 56.0114 77.2167 56.0114C78.0671 56.0114 78.9176 56.1598 79.7186 56.4367L80.2922 56.6443L80.4702 56.0609C81.5777 52.481 82.1414 48.7628 82.1414 44.9951C82.1414 41.2273 81.5777 37.5091 80.4801 33.9391L80.3021 33.3557L79.7285 33.5633C78.9176 33.8501 78.077 33.9886 77.2266 33.9886C76.564 33.9886 75.8915 33.8996 75.2389 33.7216C73.2611 33.1876 71.6096 31.9218 70.591 30.1516C68.7616 26.9773 69.4439 22.9228 72.2128 20.5296L72.6677 20.1341L72.2524 19.689C67.1694 14.2006 60.3856 10.2747 53.1468 8.63312L52.5535 8.49467L52.4348 9.0979C51.7524 12.7074 48.588 15.328 44.9191 15.328C41.2503 15.328 38.0957 12.7074 37.4035 9.0979L37.2848 8.49467L36.6915 8.63312C29.4428 10.2747 22.6589 14.2006 17.5859 19.689L17.1705 20.1341L17.6254 20.5296C20.3944 22.9326 21.0767 26.9773 19.2472 30.1516C18.2287 31.9218 16.5772 33.1974 14.5994 33.7216C13.9467 33.8996 13.2743 33.9886 12.6117 33.9886C11.7612 33.9886 10.9207 33.8402 10.1098 33.5633L9.5362 33.3656L9.3582 33.949C8.25063 37.5091 7.69685 41.2273 7.69685 45.0049C7.69685 48.7727 8.26052 52.4909 9.3582 56.0609L9.5362 56.6443L10.1098 56.4367C10.9207 56.1499 11.7612 56.0114 12.6117 56.0114C13.2743 56.0114 13.9467 56.1004 14.5994 56.2784C16.5772 56.8124 18.2287 58.0782 19.2472 59.8484C21.0767 63.0227 20.3944 67.0772 17.6254 69.4704L17.1705 69.8659L17.5859 70.3109C22.6589 75.7994 29.4428 79.7253 36.6915 81.3669L37.2848 81.5053L37.4035 80.9021C38.0957 77.2926 41.2602 74.672 44.9191 74.672ZM77.2068 57.4948C76.6728 57.4948 76.1289 57.564 75.6048 57.7024C74.0126 58.1277 72.6875 59.1462 71.8667 60.5802C70.1658 63.5271 71.1745 67.3047 74.1214 69.0056C75.0609 69.5495 76.119 69.8363 77.187 69.8363C77.721 69.8363 78.2649 69.7671 78.789 69.6286C80.3812 69.2034 81.7063 68.1848 82.5271 66.7509C84.228 63.804 83.2193 60.0264 80.2724 58.3255C79.3428 57.7816 78.2748 57.4948 77.2068 57.4948ZM12.6414 57.4948C11.5733 57.4948 10.5053 57.7816 9.57576 58.3255C6.63872 60.0264 5.63004 63.804 7.32106 66.7509C8.14185 68.1749 9.46698 69.1935 11.0591 69.6286C11.5832 69.7671 12.1271 69.8363 12.6611 69.8363C13.7291 69.8363 14.7972 69.5495 15.7267 69.0056C18.6638 67.3047 19.6823 63.5271 17.9814 60.5802C17.1606 59.1561 15.8256 58.1277 14.2434 57.7024C13.7094 57.5739 13.1754 57.4948 12.6414 57.4948ZM77.187 20.1637C76.119 20.1637 75.051 20.4505 74.1214 20.9944C71.1844 22.6953 70.1757 26.4729 71.8667 29.4198C72.6875 30.8439 74.0225 31.8723 75.6048 32.2975C76.1289 32.436 76.6629 32.5052 77.2068 32.5052C78.2748 32.5052 79.3428 32.2184 80.2724 31.6745C83.2094 29.9736 84.228 26.196 82.5271 23.2491C81.7063 21.8251 80.3812 20.7966 78.789 20.3714C78.2649 20.2329 77.7309 20.1637 77.187 20.1637ZM12.6512 20.1637C12.1172 20.1637 11.5733 20.2329 11.0492 20.3714C9.45709 20.7966 8.13196 21.8152 7.31117 23.2491C5.61026 26.196 6.62883 29.9736 9.56587 31.6745C10.5053 32.2184 11.5635 32.5052 12.6315 32.5052C13.1655 32.5052 13.7094 32.436 14.2335 32.2975C15.8256 31.8723 17.1508 30.8538 17.9715 29.4198C19.6725 26.4729 18.6539 22.6953 15.7168 20.9944C14.7873 20.4505 13.7291 20.1637 12.6512 20.1637ZM44.9191 1.49324C41.5272 1.49324 38.7682 4.26217 38.7682 7.66399C38.7682 11.0658 41.5272 13.8347 44.9191 13.8347C48.3111 13.8347 51.0701 11.0658 51.0701 7.66399C51.08 4.26217 48.321 1.49324 44.9191 1.49324Z" fill="black"/>
<path d="M45.5039 51.4766C45.3725 51.4005 45.2191 51.3625 45.0657 51.3625C44.9123 51.3625 44.7589 51.4005 44.6274 51.4766L40.5444 53.7215L38.2509 55L38.2875 54.7412C38.2875 54.7412 38.5796 52.7551 38.6527 52.2909L39.4342 47.5423C39.4853 47.2227 39.3831 46.8955 39.164 46.6672L35.8552 43.3037C35.5338 42.9764 34.1753 41.5077 34.1753 41.5077L34 41.3175L34.2483 41.2871C34.2483 41.2871 36.1254 41.0588 36.571 40.9903L41.1434 40.2978C41.4502 40.2521 41.7131 40.0467 41.8519 39.7575L43.897 35.4351C44.0942 35.0166 44.9488 33.2283 44.9488 33.2283L45.0584 33C45.0584 33 46.0225 35.0166 46.2197 35.4351L48.2649 39.7575C48.4037 40.0467 48.6666 40.2521 48.9734 40.2978L53.5385 40.9903C53.984 41.0588 55.7735 41.386 55.7735 41.386L56 41.424L55.8393 41.5991C55.8393 41.5991 54.5756 42.9688 54.2543 43.2961L50.9528 46.6596C50.7337 46.8879 50.6314 47.2151 50.6826 47.5347L51.4641 52.2833C51.5371 52.7475 51.8877 54.7412 51.8877 54.7412L51.9316 55L45.5039 51.4766ZM39.9309 45.8453C40.413 46.34 40.6321 47.0401 40.5225 47.7326L39.6753 52.892L44.1089 50.4569C44.401 50.2971 44.7297 50.2134 45.0584 50.2134C45.3871 50.2134 45.7158 50.2971 46.0152 50.4569L50.4488 52.892L49.6015 47.7326C49.492 47.0401 49.7111 46.3324 50.1932 45.8453L53.7868 42.1926L48.8273 41.4393C48.1626 41.3403 47.5856 40.899 47.2861 40.2673L45.0657 35.5797L42.8452 40.2673C42.5458 40.899 41.9687 41.3327 41.3041 41.4393L36.3446 42.1926L39.9309 45.8453Z" fill="#FD0037"/>
<path fill-rule="evenodd" clip-rule="evenodd" d="M45.5049 51.4767C45.3735 51.4006 45.2201 51.3626 45.0667 51.3626C44.9133 51.3626 44.7599 51.4006 44.6284 51.4767L40.5454 53.7216L38.2519 55.0001L38.2885 54.7413C38.2885 54.7413 38.5806 52.7552 38.6537 52.291L39.4352 47.5424C39.4863 47.2228 39.3841 46.8956 39.165 46.6673L35.8562 43.3038C35.5348 42.9765 34.1763 41.5078 34.1763 41.5078L34.001 41.3176L34.2493 41.2872C34.2493 41.2872 36.1264 41.0589 36.572 40.9904L41.1444 40.2979C41.4512 40.2522 41.7141 40.0468 41.8529 39.7576L43.898 35.4352C44.0904 35.0268 44.9087 33.3145 44.9483 33.2315C44.9493 33.2294 44.9498 33.2284 44.9498 33.2284L45.0594 33.0001C45.0594 33.0001 45.1016 33.0883 45.1701 33.2317C45.4292 33.7737 46.0648 35.1042 46.2207 35.4352L48.2659 39.7576C48.4047 40.0468 48.6676 40.2522 48.9744 40.2979L53.5395 40.9904C53.9669 41.0561 55.631 41.3599 55.7658 41.3845C55.7716 41.3855 55.7745 41.3861 55.7745 41.3861L56.001 41.4241L55.8403 41.5992C55.8086 41.6335 54.5725 42.9731 54.2553 43.2962L50.9538 46.6597C50.7347 46.888 50.6324 47.2152 50.6836 47.5348L51.4651 52.2834C51.5381 52.7476 51.8887 54.7413 51.8887 54.7413L51.9326 55.0001L45.5049 51.4767ZM50.881 47.5032L51.6627 52.2523C51.6989 52.4824 51.8044 53.0949 51.9013 53.6522C51.9497 53.9303 51.9958 54.1939 52.0298 54.388L52.0855 54.7053L52.0856 54.7063L52.0859 54.7079L52.1988 55.3742L45.4047 51.6499C45.3062 51.5928 45.1879 51.5626 45.0667 51.5626C44.9455 51.5626 44.8272 51.5928 44.7286 51.6498L44.7248 51.652L40.6428 53.8963L40.6418 53.8969L37.9976 55.3708L38.0906 54.7122L38.2458 53.6609C38.3279 53.1068 38.4194 52.4931 38.4561 52.2599L38.4563 52.2585L39.2377 47.5108C39.2789 47.2529 39.196 46.989 39.0215 46.8066L35.7136 43.444C35.5506 43.278 35.1282 42.8265 34.7493 42.4194C34.5593 42.2152 34.3793 42.0213 34.2469 41.8784L34.0297 41.6439L33.5898 41.1665L34.225 41.0886L34.5252 41.0519C34.708 41.0295 34.9564 40.9988 35.2188 40.966C35.7451 40.9002 36.3223 40.8264 36.5416 40.7927L41.1144 40.1001C41.3498 40.0651 41.5597 39.9059 41.6723 39.6715L43.7171 35.35C43.816 35.1401 44.0792 34.5878 44.3174 34.0887L44.7692 33.1425L45.0597 32.5371L45.2398 32.9138L45.7466 33.9745C46.0121 34.5306 46.3027 35.1399 46.4016 35.3499L48.4462 39.6711C48.5589 39.9055 48.7685 40.065 49.0038 40.1001L53.5695 40.7926C53.7953 40.8274 54.3575 40.9269 54.8594 41.0171C55.1111 41.0623 55.3489 41.1054 55.5237 41.1371L55.8053 41.1884L55.8077 41.1889L55.8092 41.1891L55.8104 41.1893L56.3975 41.288L55.9876 41.7344L55.7846 41.9541C55.6611 42.0877 55.493 42.2693 55.3148 42.4611C54.9596 42.8435 54.5611 43.2702 54.398 43.4363L51.0981 46.7982C50.9235 46.9806 50.8398 47.2451 50.881 47.5032ZM40.0751 45.7059C40.6021 46.2466 40.8403 47.0103 40.7211 47.7639L40.7209 47.7651L39.9402 52.519L44.0136 50.2817C44.3351 50.1058 44.6971 50.0135 45.0594 50.0135C45.422 50.0135 45.783 50.1058 46.1104 50.2806L46.1125 50.2817L50.1859 52.519L49.405 47.7639C49.2859 47.0112 49.5233 46.2389 50.052 45.7048L53.3706 42.3316L48.7989 41.6372C48.0644 41.5278 47.4327 41.0414 47.1064 40.3531L45.0667 36.047L43.027 40.3531C42.6999 41.0428 42.068 41.5196 41.3367 41.6368L41.3351 41.6371L36.7623 42.3317L40.0751 45.7059ZM39.9319 45.8454C40.414 46.3401 40.6331 47.0402 40.5235 47.7327L39.6763 52.8921L44.1099 50.457C44.402 50.2972 44.7307 50.2135 45.0594 50.2135C45.3881 50.2135 45.7168 50.2972 46.0162 50.457L50.4498 52.8921L49.6025 47.7327C49.493 47.0402 49.7121 46.3325 50.1942 45.8454L53.7878 42.1927L48.8283 41.4394C48.1636 41.3404 47.5866 40.8991 47.2871 40.2674L45.0667 35.5798L42.8462 40.2674C42.5468 40.8991 41.9697 41.3328 41.3051 41.4394L36.3456 42.1927L39.9319 45.8454Z" fill="#FD0037"/>
<path d="M33.1528 60.6693C32.9847 60.6693 32.8265 60.6099 32.6881 60.511C31.0663 59.2255 29.662 57.7025 28.5149 55.9917L28.2083 55.5369L22.8781 58.6222C22.7595 58.6915 22.6408 58.7211 22.5024 58.7211C22.2354 58.7211 21.9881 58.5827 21.8497 58.3453C21.642 57.9893 21.7706 57.5344 22.1266 57.3268L27.4568 54.2414L27.2095 53.7469C25.8646 51.0176 25.1823 48.0805 25.1823 45.005C25.1823 41.9394 25.8646 39.0024 27.2194 36.273L27.4666 35.7786L22.1266 32.6932C21.9585 32.5943 21.8299 32.4361 21.7805 32.2383C21.731 32.0405 21.7607 31.8428 21.8596 31.6746C21.998 31.4373 22.2354 31.2989 22.5122 31.2989C22.6408 31.2989 22.7694 31.3285 22.888 31.3978L28.2281 34.4831L28.5347 34.0282C31.9365 28.9552 37.5732 25.6819 43.6352 25.2863L44.189 25.2468V19.076C44.189 18.6607 44.5252 18.3245 44.9406 18.3245C45.3559 18.3245 45.6822 18.6607 45.6822 19.076V25.2468L46.236 25.2863C48.6292 25.4446 50.9432 26.0181 53.1089 27.0169C53.2869 27.096 53.4253 27.2444 53.4946 27.4323C53.5638 27.6201 53.5539 27.8179 53.4748 28.0058C53.3561 28.2728 53.0891 28.4409 52.7924 28.4409C52.6837 28.4409 52.5848 28.4212 52.4859 28.3717C50.1125 27.2839 47.571 26.74 44.9307 26.74C34.8735 26.74 26.6953 34.938 26.6953 45.005C26.6953 50.622 29.217 55.8533 33.6275 59.3441C33.7857 59.4628 33.8846 59.6408 33.9044 59.8386C33.9242 60.0364 33.8747 60.2341 33.7462 60.3924C33.5978 60.5605 33.3902 60.6693 33.1528 60.6693Z" fill="black"/>
</svg>
