<svg width="90" height="90" viewBox="0 0 90 90" fill="none" xmlns="http://www.w3.org/2000/svg">
<path d="M44.9196 71.6755C44.5043 71.6755 44.178 71.3393 44.178 70.9338V64.7532L43.6242 64.7136C41.1816 64.5554 38.8181 63.9522 36.603 62.9138C36.425 62.8248 36.2865 62.6765 36.2173 62.4886C36.1481 62.3007 36.158 62.1029 36.247 61.915C36.3656 61.648 36.6326 61.4799 36.9293 61.4799C37.0381 61.4799 37.1469 61.4997 37.2458 61.5491C39.6587 62.6765 42.2496 63.25 44.9394 63.25C54.9966 63.25 63.1748 55.052 63.1748 44.985C63.1748 39.3779 60.663 34.1664 56.2821 30.6756C56.1239 30.547 56.025 30.369 56.0052 30.1713C55.9855 29.9735 56.0349 29.7757 56.1635 29.6175C56.3019 29.4395 56.5195 29.3406 56.7469 29.3406C56.8656 29.3406 57.0436 29.3702 57.2117 29.4988C58.8236 30.7844 60.218 32.2974 61.3552 33.9884L61.6618 34.4433L66.9919 31.3579C67.1106 31.2887 67.2293 31.259 67.3677 31.259C67.6347 31.259 67.882 31.3975 68.0204 31.6348C68.1193 31.8128 68.149 32.0106 68.0896 32.1985C68.0402 32.3864 67.9116 32.5545 67.7435 32.6534L62.4133 35.7388L62.6605 36.2332C64.0055 38.9626 64.6878 41.8996 64.6878 44.9751C64.6878 48.0407 64.0055 50.9778 62.6507 53.7071L62.4034 54.2016L67.7435 57.287C67.9215 57.3858 68.0402 57.554 68.0896 57.7418C68.1391 57.9396 68.1193 58.1374 68.0105 58.3055C67.8721 58.5429 67.6347 58.6813 67.3578 58.6813C67.2293 58.6813 67.1007 58.6516 66.9821 58.5824L61.642 55.497L61.3354 55.9519C57.8842 61.1041 52.3859 64.2884 46.2349 64.6839L45.6811 64.7235V70.9041C45.6712 71.3393 45.335 71.6755 44.9196 71.6755Z" fill="white"/>
<path d="M44.9191 90C41.1415 90 37.888 87.1816 37.354 83.4337L37.2947 83.0282L36.8892 82.9392C28.9681 81.2581 21.6008 76.9959 16.1421 70.934L15.8652 70.6274L15.4795 70.7856C14.5697 71.1515 13.6204 71.3394 12.6512 71.3394C11.9788 71.3394 11.3162 71.2504 10.6636 71.0724C8.68575 70.5384 7.03428 69.2726 6.01571 67.5025C4.12691 64.2292 4.93781 59.9967 7.90451 57.653L8.23085 57.3959L8.1023 57.0102C6.84639 53.1436 6.21349 49.1089 6.21349 45.0049C6.21349 40.901 6.84639 36.8663 8.1023 32.9997L8.23085 32.614L7.90451 32.3569C4.93781 30.0231 4.12691 25.7906 6.01571 22.5074C7.03428 20.7373 8.68575 19.4616 10.6636 18.9375C11.3162 18.7595 11.9788 18.6705 12.6512 18.6705C13.6204 18.6705 14.5796 18.8584 15.4894 19.2243L15.8751 19.3825L16.152 19.0759C21.6008 13.014 28.9681 8.75179 36.8991 7.07065L37.3046 6.98165L37.3639 6.5762C37.888 2.82826 41.1415 0 44.9191 0C48.6967 0 51.9502 2.81837 52.4842 6.56631L52.5436 6.97176L52.949 7.06076C60.88 8.7419 68.2473 13.0041 73.6962 19.066L73.9731 19.3726L74.3587 19.2144C75.2685 18.8485 76.2179 18.6606 77.1969 18.6606C77.8595 18.6606 78.5319 18.7496 79.1846 18.9276C81.1624 19.4616 82.8139 20.7274 83.8324 22.4975C85.7212 25.7708 84.9103 30.0033 81.9436 32.347L81.6173 32.6041L81.7459 32.9898C83.0018 36.8564 83.6347 40.8911 83.6347 44.9951C83.6347 49.099 83.0018 53.1337 81.7459 57.0003L81.6173 57.386L81.9436 57.6431C84.9103 59.9769 85.7212 64.2094 83.8324 67.4926C82.8139 69.2627 81.1624 70.5384 79.1846 71.0625C78.5319 71.2405 77.8595 71.3295 77.1969 71.3295C76.2278 71.3295 75.2784 71.1416 74.3686 70.7757L73.983 70.6175L73.7061 70.9241C68.2572 76.986 60.8899 81.2482 52.9589 82.9293L52.5535 83.0183L52.4941 83.4238C51.9601 87.1717 48.7066 90 44.9191 90ZM44.9191 76.1652C41.5272 76.1652 38.7682 78.9342 38.7682 82.336C38.7682 85.7378 41.5272 88.5068 44.9191 88.5068C48.3111 88.5068 51.0701 85.7378 51.0701 82.336C51.08 78.9342 48.321 76.1652 44.9191 76.1652ZM44.9191 74.672C48.588 74.672 51.7426 77.2926 52.4348 80.9021L52.5535 81.5053L53.1468 81.3669C60.3856 79.7253 67.1694 75.7994 72.2425 70.3109L72.6578 69.8659L72.2029 69.4704C69.434 67.0772 68.7517 63.0227 70.5811 59.8484C71.5997 58.0782 73.2512 56.8025 75.229 56.2784C75.8817 56.1004 76.5541 56.0114 77.2167 56.0114C78.0671 56.0114 78.9176 56.1598 79.7186 56.4367L80.2922 56.6443L80.4702 56.0609C81.5777 52.481 82.1414 48.7628 82.1414 44.9951C82.1414 41.2273 81.5777 37.5091 80.4801 33.9391L80.3021 33.3557L79.7285 33.5633C78.9176 33.8501 78.077 33.9886 77.2266 33.9886C76.564 33.9886 75.8915 33.8996 75.2389 33.7216C73.2611 33.1876 71.6096 31.9218 70.591 30.1516C68.7616 26.9773 69.4439 22.9228 72.2128 20.5296L72.6677 20.1341L72.2524 19.689C67.1694 14.2006 60.3856 10.2747 53.1468 8.63312L52.5535 8.49467L52.4348 9.0979C51.7524 12.7074 48.588 15.328 44.9191 15.328C41.2503 15.328 38.0957 12.7074 37.4035 9.0979L37.2848 8.49467L36.6915 8.63312C29.4428 10.2747 22.6589 14.2006 17.5859 19.689L17.1705 20.1341L17.6254 20.5296C20.3944 22.9326 21.0767 26.9773 19.2472 30.1516C18.2287 31.9218 16.5772 33.1974 14.5994 33.7216C13.9467 33.8996 13.2743 33.9886 12.6117 33.9886C11.7612 33.9886 10.9207 33.8402 10.1098 33.5633L9.5362 33.3656L9.3582 33.949C8.25063 37.5091 7.69685 41.2273 7.69685 45.0049C7.69685 48.7727 8.26052 52.4909 9.3582 56.0609L9.5362 56.6443L10.1098 56.4367C10.9207 56.1499 11.7612 56.0114 12.6117 56.0114C13.2743 56.0114 13.9467 56.1004 14.5994 56.2784C16.5772 56.8124 18.2287 58.0782 19.2472 59.8484C21.0767 63.0227 20.3944 67.0772 17.6254 69.4704L17.1705 69.8659L17.5859 70.3109C22.6589 75.7994 29.4428 79.7253 36.6915 81.3669L37.2848 81.5053L37.4035 80.9021C38.0957 77.2926 41.2602 74.672 44.9191 74.672ZM77.2068 57.4948C76.6728 57.4948 76.1289 57.564 75.6048 57.7024C74.0126 58.1277 72.6875 59.1462 71.8667 60.5802C70.1658 63.5271 71.1745 67.3047 74.1214 69.0056C75.0609 69.5495 76.119 69.8363 77.187 69.8363C77.721 69.8363 78.2649 69.7671 78.789 69.6286C80.3812 69.2034 81.7063 68.1848 82.5271 66.7509C84.228 63.804 83.2193 60.0264 80.2724 58.3255C79.3428 57.7816 78.2748 57.4948 77.2068 57.4948ZM12.6414 57.4948C11.5733 57.4948 10.5053 57.7816 9.57576 58.3255C6.63872 60.0264 5.63004 63.804 7.32106 66.7509C8.14185 68.1749 9.46698 69.1935 11.0591 69.6286C11.5832 69.7671 12.1271 69.8363 12.6611 69.8363C13.7291 69.8363 14.7972 69.5495 15.7267 69.0056C18.6638 67.3047 19.6823 63.5271 17.9814 60.5802C17.1606 59.1561 15.8256 58.1277 14.2434 57.7024C13.7094 57.5739 13.1754 57.4948 12.6414 57.4948ZM77.187 20.1637C76.119 20.1637 75.051 20.4505 74.1214 20.9944C71.1844 22.6953 70.1757 26.4729 71.8667 29.4198C72.6875 30.8439 74.0225 31.8723 75.6048 32.2975C76.1289 32.436 76.6629 32.5052 77.2068 32.5052C78.2748 32.5052 79.3428 32.2184 80.2724 31.6745C83.2094 29.9736 84.228 26.196 82.5271 23.2491C81.7063 21.8251 80.3812 20.7966 78.789 20.3714C78.2649 20.2329 77.7309 20.1637 77.187 20.1637ZM12.6512 20.1637C12.1172 20.1637 11.5733 20.2329 11.0492 20.3714C9.45709 20.7966 8.13196 21.8152 7.31117 23.2491C5.61026 26.196 6.62883 29.9736 9.56587 31.6745C10.5053 32.2184 11.5635 32.5052 12.6315 32.5052C13.1655 32.5052 13.7094 32.436 14.2335 32.2975C15.8256 31.8723 17.1508 30.8538 17.9715 29.4198C19.6725 26.4729 18.6539 22.6953 15.7168 20.9944C14.7873 20.4505 13.7291 20.1637 12.6512 20.1637ZM44.9191 1.49324C41.5272 1.49324 38.7682 4.26217 38.7682 7.66399C38.7682 11.0658 41.5272 13.8347 44.9191 13.8347C48.3111 13.8347 51.0701 11.0658 51.0701 7.66399C51.08 4.26217 48.321 1.49324 44.9191 1.49324Z" fill="white"/>
<path d="M45.504 51.4767C45.3726 51.4006 45.2192 51.3626 45.0658 51.3626C44.9124 51.3626 44.759 51.4006 44.6275 51.4767L40.5445 53.7216L38.251 55.0001L38.2876 54.7413C38.2876 54.7413 38.5797 52.7552 38.6528 52.291L39.4343 47.5424C39.4854 47.2228 39.3832 46.8956 39.1641 46.6673L35.8553 43.3038C35.5339 42.9765 34.1754 41.5078 34.1754 41.5078L34.0001 41.3176L34.2484 41.2872C34.2484 41.2872 36.1255 41.0589 36.5711 40.9904L41.1435 40.2979C41.4503 40.2522 41.7132 40.0468 41.852 39.7576L43.8971 35.4352C44.0943 35.0167 44.9489 33.2284 44.9489 33.2284L45.0585 33.0001C45.0585 33.0001 46.0226 35.0167 46.2198 35.4352L48.265 39.7576C48.4038 40.0468 48.6667 40.2522 48.9735 40.2979L53.5386 40.9904C53.9841 41.0589 55.7736 41.3861 55.7736 41.3861L56.0001 41.4241L55.8394 41.5992C55.8394 41.5992 54.5757 42.9689 54.2544 43.2962L50.9529 46.6597C50.7338 46.888 50.6315 47.2152 50.6827 47.5348L51.4642 52.2834C51.5372 52.7476 51.8878 54.7413 51.8878 54.7413L51.9317 55.0001L45.504 51.4767ZM39.931 45.8454C40.4131 46.3401 40.6322 47.0402 40.5226 47.7327L39.6754 52.8921L44.109 50.457C44.4011 50.2972 44.7298 50.2135 45.0585 50.2135C45.3872 50.2135 45.7159 50.2972 46.0153 50.457L50.4489 52.8921L49.6016 47.7327C49.4921 47.0402 49.7112 46.3325 50.1933 45.8454L53.7869 42.1927L48.8274 41.4394C48.1627 41.3404 47.5857 40.8991 47.2862 40.2674L45.0658 35.5798L42.8453 40.2674C42.5459 40.8991 41.9688 41.3328 41.3042 41.4394L36.3447 42.1927L39.931 45.8454Z" fill="#FD0037"/>
<path fill-rule="evenodd" clip-rule="evenodd" d="M45.504 51.4767C45.3726 51.4006 45.2192 51.3626 45.0658 51.3626C44.9124 51.3626 44.759 51.4006 44.6275 51.4767L40.5445 53.7216L38.251 55.0001L38.2876 54.7413C38.2876 54.7413 38.5797 52.7552 38.6528 52.291L39.4343 47.5424C39.4854 47.2228 39.3832 46.8956 39.1641 46.6673L35.8553 43.3038C35.5339 42.9765 34.1754 41.5078 34.1754 41.5078L34.0001 41.3176L34.2484 41.2872C34.2484 41.2872 36.1255 41.0589 36.5711 40.9904L41.1435 40.2979C41.4503 40.2522 41.7132 40.0468 41.852 39.7576L43.8971 35.4352C44.0895 35.0268 44.9078 33.3145 44.9474 33.2315C44.9484 33.2294 44.9489 33.2284 44.9489 33.2284L45.0585 33.0001C45.0585 33.0001 45.1007 33.0883 45.1692 33.2317C45.4283 33.7737 46.0639 35.1042 46.2198 35.4352L48.265 39.7576C48.4038 40.0468 48.6667 40.2522 48.9735 40.2979L53.5386 40.9904C53.966 41.0561 55.6301 41.3599 55.7649 41.3845C55.7707 41.3855 55.7736 41.3861 55.7736 41.3861L56.0001 41.4241L55.8394 41.5992C55.8077 41.6335 54.5716 42.9731 54.2544 43.2962L50.9529 46.6597C50.7338 46.888 50.6315 47.2152 50.6827 47.5348L51.4642 52.2834C51.5372 52.7476 51.8878 54.7413 51.8878 54.7413L51.9317 55.0001L45.504 51.4767ZM50.8801 47.5032L51.6618 52.2523C51.698 52.4824 51.8035 53.0949 51.9004 53.6522C51.9488 53.9303 51.9949 54.1939 52.0289 54.388L52.0846 54.7053L52.0847 54.7063L52.085 54.7079L52.1979 55.3742L45.4038 51.6499C45.3053 51.5928 45.187 51.5626 45.0658 51.5626C44.9446 51.5626 44.8263 51.5928 44.7277 51.6498L44.7239 51.652L40.6419 53.8963L40.6409 53.8969L37.9967 55.3708L38.0897 54.7122L38.2449 53.6609C38.327 53.1068 38.4185 52.4931 38.4552 52.2599L38.4554 52.2585L39.2368 47.5108C39.278 47.2529 39.1951 46.989 39.0206 46.8066L35.7127 43.444C35.5497 43.278 35.1273 42.8265 34.7484 42.4194C34.5584 42.2152 34.3784 42.0213 34.246 41.8784L34.0288 41.6439L33.5889 41.1665L34.2241 41.0886L34.5243 41.0519C34.7071 41.0295 34.9555 40.9988 35.2179 40.966C35.7442 40.9002 36.3214 40.8264 36.5407 40.7927L41.1135 40.1001C41.3489 40.0651 41.5588 39.9059 41.6714 39.6715L43.7162 35.35C43.8151 35.1401 44.0783 34.5878 44.3165 34.0887L44.7683 33.1425L45.0588 32.5371L45.2389 32.9138L45.7457 33.9745C46.0112 34.5306 46.3018 35.1399 46.4007 35.3499L48.4453 39.6711C48.558 39.9055 48.7676 40.065 49.0029 40.1001L53.5686 40.7926C53.7944 40.8274 54.3566 40.9269 54.8585 41.0171C55.1102 41.0623 55.348 41.1054 55.5228 41.1371L55.8044 41.1884L55.8068 41.1889L55.8083 41.1891L55.8095 41.1893L56.3966 41.288L55.9867 41.7344L55.7837 41.9541C55.6602 42.0877 55.4921 42.2693 55.3139 42.4611C54.9587 42.8435 54.5602 43.2702 54.3971 43.4363L51.0972 46.7982C50.9226 46.9806 50.8389 47.2451 50.8801 47.5032ZM40.0742 45.7059C40.6012 46.2466 40.8394 47.0103 40.7202 47.7639L40.72 47.7651L39.9393 52.519L44.0127 50.2817C44.3342 50.1058 44.6962 50.0135 45.0585 50.0135C45.4211 50.0135 45.7821 50.1058 46.1095 50.2806L46.1116 50.2817L50.185 52.519L49.4041 47.7639C49.285 47.0112 49.5224 46.2389 50.0511 45.7048L53.3697 42.3316L48.798 41.6372C48.0635 41.5278 47.4318 41.0414 47.1055 40.3531L45.0658 36.047L43.0261 40.3531C42.699 41.0428 42.0671 41.5196 41.3358 41.6368L41.3342 41.6371L36.7614 42.3317L40.0742 45.7059ZM39.931 45.8454C40.4131 46.3401 40.6322 47.0402 40.5226 47.7327L39.6754 52.8921L44.109 50.457C44.4011 50.2972 44.7298 50.2135 45.0585 50.2135C45.3872 50.2135 45.7159 50.2972 46.0153 50.457L50.4489 52.8921L49.6016 47.7327C49.4921 47.0402 49.7112 46.3325 50.1933 45.8454L53.7869 42.1927L48.8274 41.4394C48.1627 41.3404 47.5857 40.8991 47.2862 40.2674L45.0658 35.5798L42.8453 40.2674C42.5459 40.8991 41.9688 41.3328 41.3042 41.4394L36.3447 42.1927L39.931 45.8454Z" fill="#FD0037"/>
<path d="M33.1523 60.6693C32.9842 60.6693 32.826 60.6099 32.6876 60.511C31.0658 59.2255 29.6615 57.7025 28.5144 55.9917L28.2078 55.5369L22.8776 58.6222C22.759 58.6915 22.6403 58.7211 22.5019 58.7211C22.2349 58.7211 21.9876 58.5827 21.8492 58.3453C21.6415 57.9893 21.7701 57.5344 22.1261 57.3268L27.4563 54.2414L27.209 53.7469C25.8641 51.0176 25.1818 48.0805 25.1818 45.005C25.1818 41.9394 25.8641 39.0024 27.2189 36.273L27.4661 35.7786L22.1261 32.6932C21.958 32.5943 21.8294 32.4361 21.78 32.2383C21.7305 32.0405 21.7602 31.8428 21.8591 31.6746C21.9975 31.4373 22.2349 31.2989 22.5117 31.2989C22.6403 31.2989 22.7689 31.3285 22.8875 31.3978L28.2276 34.4831L28.5342 34.0282C31.936 28.9552 37.5727 25.6819 43.6347 25.2863L44.1885 25.2468V19.076C44.1885 18.6607 44.5247 18.3245 44.9401 18.3245C45.3554 18.3245 45.6817 18.6607 45.6817 19.076V25.2468L46.2355 25.2863C48.6287 25.4446 50.9427 26.0181 53.1084 27.0169C53.2864 27.096 53.4248 27.2444 53.4941 27.4323C53.5633 27.6201 53.5534 27.8179 53.4743 28.0058C53.3556 28.2728 53.0886 28.4409 52.7919 28.4409C52.6832 28.4409 52.5843 28.4212 52.4854 28.3717C50.112 27.2839 47.5705 26.74 44.9302 26.74C34.873 26.74 26.6948 34.938 26.6948 45.005C26.6948 50.622 29.2165 55.8533 33.627 59.3441C33.7852 59.4628 33.8841 59.6408 33.9039 59.8386C33.9237 60.0364 33.8742 60.2341 33.7457 60.3924C33.5973 60.5605 33.3897 60.6693 33.1523 60.6693Z" fill="white"/>
</svg>
