<svg width="90" height="90" viewBox="0 0 90 90" fill="none" xmlns="http://www.w3.org/2000/svg">
<path d="M32.4225 69.9977C32.3437 69.9977 32.2649 69.9878 32.1959 69.9583C31.8215 69.84 31.6244 69.4361 31.7427 69.0616L34.5114 60.7455L28.8951 48.1431C28.8162 47.9657 28.8162 47.7588 28.8951 47.5716L41.7536 17.5683C41.862 17.3023 42.1182 17.1348 42.4039 17.1348H48.1189C48.4046 17.1348 48.6608 17.3023 48.779 17.5683L61.6277 47.5617C61.7065 47.749 61.7065 47.9559 61.6277 48.1431L56.0212 60.7356L58.79 69.0518C58.8097 69.1208 58.8294 69.1996 58.8294 69.2784C58.8294 69.6725 58.5141 69.9878 58.1199 69.9878H32.4225V69.9977ZM57.1543 68.5788L54.7698 61.4352H35.7924L33.4079 68.5788H57.1543ZM54.8191 60.0065L60.2187 47.8672L47.6656 18.5733H45.9905V40.7236L46.562 40.8418C49.0943 41.3542 51.0551 43.3248 51.5774 45.8571C51.9222 47.542 51.5872 49.2565 50.6413 50.6852C49.6954 52.114 48.2469 53.0993 46.5719 53.4343C46.1482 53.523 45.7146 53.5624 45.2811 53.5624C42.2463 53.5624 39.5958 51.3947 38.9947 48.419C38.6498 46.7439 38.9848 45.0294 39.9308 43.5909C40.8767 42.1523 42.3251 41.1768 44.0002 40.8319L44.5717 40.7137V18.5733H42.8966L30.3435 47.8672L35.7431 60.0065H54.8191ZM45.2811 42.1424C42.5222 42.1424 40.2756 44.389 40.2756 47.138C40.2756 49.897 42.5222 52.1435 45.2811 52.1435C48.04 52.1435 50.2866 49.897 50.2866 47.138C50.2866 44.389 48.04 42.1424 45.2811 42.1424Z" fill="#FD0037"/>
<path d="M40.9945 90C40.6004 90 40.2851 89.6847 40.2851 89.2906V85.4084L39.6643 85.3197C22.0861 82.8859 8.11408 68.9139 5.68032 51.3357L5.59164 50.7149H1.70944C1.31531 50.7149 1 50.3996 1 50.0055V41.4331C1 41.039 1.31531 40.7237 1.70944 40.7237H5.59164L5.68032 40.1128C7.69039 26.0423 17.4452 13.6468 30.55 8.53295C31.7915 8.05014 33.8804 7.49836 35.2599 7.15349H18.8148L18.6473 7.62645C18.2827 8.65119 17.4944 9.43946 16.4697 9.80403C16.0854 9.94198 15.6814 10.0109 15.2774 10.0109C13.7699 10.0109 12.4101 9.05518 11.9076 7.62645C11.2474 5.77403 12.2328 3.72455 14.0852 3.07423C14.4695 2.93628 14.8734 2.86731 15.2774 2.86731C16.785 2.86731 18.1447 3.82308 18.6473 5.25181L18.8148 5.72476H38.8662L38.9845 5.15327C39.4968 2.62098 41.4675 0.650317 43.9998 0.137946C44.4235 0.0394132 44.857 0 45.2906 0C48.3254 0 50.9759 2.16773 51.577 5.15327L51.6952 5.72476H71.7664L71.9339 5.25181C72.2984 4.22706 73.0867 3.4388 74.1115 3.07423C74.4957 2.93628 74.8997 2.86731 75.3037 2.86731C76.8113 2.86731 78.1612 3.82308 78.6735 5.25181C78.9888 6.14846 78.9396 7.12393 78.5257 7.98117C78.1119 8.83841 77.3926 9.48872 76.496 9.80403C76.1117 9.94198 75.7077 10.0109 75.3037 10.0109C73.7962 10.0109 72.4462 9.05518 71.9339 7.62645L71.7664 7.15349H55.4395C56.4938 7.40968 58.0309 7.83337 60.0114 8.53295C73.0473 13.1443 82.8021 25.5397 84.8811 40.1128L84.9698 40.7237H88.852C89.2461 40.7237 89.5614 41.039 89.5614 41.4331V50.0055C89.5614 50.3996 89.2461 50.7149 88.852 50.7149H84.9599L84.8713 51.3357C82.4473 68.9139 68.4754 82.8958 50.8872 85.3197L50.2665 85.4084V89.2906C50.2665 89.6847 49.9512 90 49.557 90H40.9945ZM48.8575 88.5713V81.4276H41.7138V88.5713H48.8575ZM7.15831 51.5327C9.66105 68.3523 22.6477 81.339 39.4673 83.8417L40.2851 83.9599V80.7083C40.2851 80.3142 40.6004 79.9989 40.9945 79.9989H49.5669C49.961 79.9989 50.2763 80.3142 50.2763 80.7083V83.9599L51.0942 83.8417C67.9236 81.3488 80.9102 68.3622 83.413 51.5327L83.5312 50.7149H80.2796C79.8855 50.7149 79.5702 50.3996 79.5702 50.0055V41.4331C79.5702 41.039 79.8855 40.7237 80.2796 40.7237H83.5312L83.4031 39.896C80.9201 23.6676 68.3965 10.7598 52.2568 7.7841L51.6262 7.66586L51.439 8.27677C50.8183 10.3558 49.2023 11.9718 47.1233 12.5925C46.5222 12.7699 45.9015 12.8684 45.2807 12.8684C42.4627 12.8684 39.9304 10.9864 39.1224 8.28662L38.9352 7.67572L38.3144 7.7841C22.1649 10.7598 9.64134 23.6676 7.15831 39.896L7.03022 40.7237H10.2818C10.6759 40.7237 10.9912 41.039 10.9912 41.4331V50.0055C10.9912 50.3996 10.6759 50.7149 10.2818 50.7149H7.03022L7.15831 51.5327ZM88.1425 49.2862V42.1425H80.9989V49.2862H88.1425ZM9.57237 49.2862V42.1425H2.42873V49.2862H9.57237ZM45.2807 1.43858C42.5218 1.43858 40.2752 3.68513 40.2752 6.44406C40.2752 9.20298 42.5218 11.4495 45.2807 11.4495C48.0396 11.4495 50.2862 9.20298 50.2862 6.44406C50.2862 3.68513 48.0396 1.43858 45.2807 1.43858ZM75.284 4.28618C74.1016 4.28618 73.136 5.25181 73.136 6.4342C73.136 7.6166 74.1016 8.58222 75.284 8.58222C76.4664 8.58222 77.432 7.6166 77.432 6.4342C77.432 5.25181 76.4664 4.28618 75.284 4.28618ZM15.2873 4.28618C14.1049 4.28618 13.1393 5.25181 13.1393 6.4342C13.1393 7.6166 14.1049 8.58222 15.2873 8.58222C16.4697 8.58222 17.4353 7.6166 17.4353 6.4342C17.4353 5.25181 16.4697 4.28618 15.2873 4.28618Z" fill="white"/>
</svg>
