<svg width="100" height="100" viewBox="0 0 100 100" fill="none" xmlns="http://www.w3.org/2000/svg">
<g clip-path="url(#clip0_856_6624)">
<mask id="mask0_856_6624" style="mask-type:luminance" maskUnits="userSpaceOnUse" x="0" y="0" width="100" height="100">
<path d="M100 0H0V100H100V0Z" fill="white"/>
</mask>
<g mask="url(#mask0_856_6624)">
<path d="M42.2921 100C31.0345 100 20.3854 95.6391 12.3732 87.6269C4.36105 79.6148 0 68.9657 0 57.7081C0 46.4505 4.36105 35.8014 12.3732 27.7892C20.3854 19.777 30.9331 15.416 42.2921 15.416C49.6957 15.416 57.0994 17.3429 63.4888 21.0955C63.6917 21.1969 63.8945 21.5012 63.9959 21.704C64.0974 22.0083 63.9959 22.2111 63.8945 22.5154C63.6917 22.8196 63.3874 23.0225 62.9817 23.0225C62.7789 23.0225 62.5761 23.0225 62.4746 22.921C56.3895 19.3713 49.3915 17.5458 42.3935 17.5458C31.643 17.5458 21.6024 21.704 13.9959 29.3105C6.28803 36.917 2.0284 46.9576 2.0284 57.7081C2.0284 79.919 20.0811 97.9717 42.2921 97.9717C64.503 97.9717 82.5558 79.919 82.5558 57.7081C82.5558 50.6087 80.7302 43.7121 77.1805 37.5255C77.0791 37.3227 76.9777 37.0184 77.0791 36.7141C77.1805 36.4099 77.2819 36.207 77.5862 36.1056C77.789 36.0042 77.8905 36.0042 78.0933 36.0042C78.499 36.0042 78.8032 36.207 79.0061 36.5113C82.7586 42.9008 84.6856 50.203 84.6856 57.7081C84.6856 68.9657 80.3245 79.6148 72.3124 87.6269C64.1988 95.6391 53.5497 100 42.2921 100Z" fill="white"/>
<path d="M42.2915 58.7221C41.9873 58.7221 41.7844 58.6207 41.5816 58.4178C41.1759 58.0122 41.1759 57.4037 41.5816 56.998L70.6891 27.8905L67.1394 14.7059C67.038 14.3002 67.1394 13.9959 67.4437 13.6917L80.7297 0.30426C80.9325 0.10142 81.2368 0 81.541 0C81.6425 0 81.7439 0 81.8453 0C82.251 0.10142 82.4538 0.405679 82.5552 0.709939L86.1049 13.8945L99.2895 17.4442C99.6952 17.5456 99.898 17.8499 99.9995 18.1542C100.101 18.5598 99.9995 18.8641 99.6952 19.1684L86.3078 32.6572C86.1049 32.86 85.9021 32.9615 85.5978 32.9615C85.4964 32.9615 85.395 32.9615 85.2936 32.9615L72.109 29.4118L43.0015 58.4178C42.7986 58.6207 42.5958 58.7221 42.2915 58.7221ZM69.2692 14.7059L72.6161 27.3834L85.1922 30.7302L96.8554 19.0669L84.7865 15.8215C84.3808 15.7201 84.178 15.4158 84.0765 15.1116L80.9325 3.0426L69.2692 14.7059Z" fill="#FD0037"/>
<path d="M42.2914 82.4543C28.5997 82.4543 17.5449 71.3996 17.5449 57.7079C17.5449 44.0162 28.5997 32.9614 42.2914 32.9614C45.9425 32.9614 49.4922 33.7728 52.839 35.2941C53.3461 35.4969 53.549 36.2069 53.3461 36.714C53.1433 37.1196 52.839 37.3225 52.4334 37.3225C52.2305 37.3225 52.1291 37.3225 52.0277 37.2211C48.9851 35.8012 45.7396 35.0912 42.3928 35.0912C29.9181 35.0912 19.7762 45.2332 19.7762 57.7079C19.7762 70.1825 29.9181 80.3245 42.3928 80.3245C54.766 80.4259 64.908 70.1825 64.908 57.7079C64.908 54.361 64.1981 51.1156 62.7782 48.073C62.5754 47.5659 62.7782 46.9574 63.2853 46.6531C63.3867 46.5517 63.5895 46.5517 63.691 46.5517C64.0966 46.5517 64.5023 46.7545 64.6037 47.1602C66.125 50.5071 66.9364 54.0568 66.9364 57.7079C67.0378 71.3996 55.8816 82.4543 42.2914 82.4543Z" fill="white"/>
</g>
</g>
<defs>
<clipPath id="clip0_856_6624">
<rect width="100" height="100" fill="white"/>
</clipPath>
</defs>
</svg>
