<svg width="202" height="202" viewBox="0 0 202 202" fill="none" xmlns="http://www.w3.org/2000/svg">
<path d="M192.489 80.2114H193.356C193.914 80.2114 194.348 80.1184 194.348 79.4988C194.348 78.9411 193.759 78.8482 193.325 78.8482H192.489V80.2114ZM191.466 78.0736H193.387C194.657 78.0736 195.401 78.4764 195.401 79.5917C195.401 80.5212 194.812 80.893 194.069 80.9549L195.432 83.1856H194.379L193.139 80.9859H192.52V83.1856H191.466V78.0736ZM193.294 84.239C195.184 84.239 196.733 82.7209 196.733 80.6451C196.733 78.5693 195.184 77.0512 193.294 77.0512C191.373 77.0512 189.855 78.5693 189.855 80.6451C189.824 82.7209 191.373 84.239 193.294 84.239ZM193.294 76.0908C195.773 76.0908 197.972 77.8877 197.972 80.6451C197.972 83.4335 195.773 85.2304 193.294 85.2304C190.816 85.2304 188.585 83.4335 188.585 80.6451C188.585 77.8568 190.816 76.0908 193.294 76.0908Z" fill="white"/>
<path d="M4.771 81.1719H38.9127V95.2375H30.1759V124.887H13.5698V95.2375H4.771V81.1719Z" fill="white"/>
<path d="M80.707 124.887H64.1628V109.985H58.896V124.887H42.3208V81.1719H58.896V95.7952H64.1628V81.1719H80.707V124.887Z" fill="white"/>
<path d="M104.934 126.374C118.381 126.312 124.112 117.018 124.143 109.985C124.174 103.293 124.143 81.2029 124.143 81.2029H107.599V108.343C107.599 110.016 106.608 111.038 104.934 111.038C103.292 111.038 102.27 110.016 102.27 108.343V81.1719H85.6949C85.6949 81.1719 85.6639 103.293 85.6949 109.954C85.7569 117.018 91.4885 126.436 104.934 126.374Z" fill="white"/>
<path d="M170.492 121.045H171.855L172.815 116.367H172.846L174.674 121.045H176.13L177.555 114.384H176.223L175.263 119.124H175.232L173.435 114.384H171.917L170.492 121.045ZM164.264 121.045H169.407L169.655 119.806H165.968L166.309 118.164H169.655L169.903 117.018H166.557L166.867 115.592H170.492L170.739 114.353H165.658L164.264 121.045ZM159.09 119.806H160.237C161.724 119.806 162.56 118.629 162.56 117.234C162.56 116.274 162.158 115.623 161.104 115.623H159.989L159.09 119.806ZM157.355 121.045H160.144C162.715 121.045 163.985 119.31 163.985 116.987C163.985 115.345 163.025 114.384 161.166 114.384H158.75L157.355 121.045ZM151.128 121.045H156.271L156.519 119.806H152.832L153.173 118.164H156.519L156.767 117.018H153.421L153.731 115.592H157.355L157.603 114.353H152.522L151.128 121.045ZM151.81 114.353H150.354L148.309 119.217H148.278L148.123 114.353H146.729L144.622 119.248H144.591L144.498 114.353H143.042L143.507 121.014H144.994L147.069 116.243H147.1L147.255 121.014H148.711L151.81 114.353ZM136.35 118.815C136.35 120.426 137.279 121.169 139.107 121.169C140.377 121.169 141.834 120.549 141.834 118.969C141.834 117.761 141.09 117.358 140.037 117.111C139.572 116.987 138.457 116.832 138.457 116.181C138.457 115.561 139.076 115.345 139.634 115.345C140.315 115.345 140.873 115.623 140.842 116.367H142.236C142.236 114.818 141.09 114.229 139.727 114.229C138.426 114.229 137.093 114.818 137.093 116.305C137.093 117.451 137.93 117.823 138.766 118.102C139.603 118.35 140.47 118.474 140.47 119.124C140.47 119.775 139.789 120.054 139.2 120.054C138.364 120.054 137.713 119.775 137.775 118.815H136.35ZM129.162 81.1719H145.644V110.542H155.063V81.1719H184.092V92.8519H171.576V97.2823H181.521V105.74H171.576V110.542H184.092V124.887H129.162V81.1719Z" fill="white"/>
</svg>
