<svg width="32" height="32" viewBox="0 0 32 32" fill="none" xmlns="http://www.w3.org/2000/svg">
<path d="M25.9201 17.3334C25.6268 17.3334 25.3201 17.24 25.0268 17.1734C24.4328 17.0425 23.849 16.8687 23.2801 16.6534C22.6616 16.4283 21.9817 16.44 21.3712 16.6862C20.7608 16.9323 20.2629 17.3955 19.9735 17.9867L19.6801 18.5867C18.3815 17.8643 17.1881 16.967 16.1335 15.92C15.0865 14.8654 14.1892 13.672 13.4668 12.3734L14.0268 12C14.618 11.7106 15.0812 11.2127 15.3273 10.6023C15.5735 9.99183 15.5852 9.31191 15.3601 8.69336C15.1484 8.12326 14.9747 7.53976 14.8401 6.94669C14.7735 6.65336 14.7201 6.34669 14.6801 6.04003C14.5182 5.10085 14.0263 4.25035 13.293 3.64168C12.5596 3.03301 11.6331 2.70617 10.6801 2.72003H6.68013C6.10551 2.71463 5.53647 2.83311 5.01175 3.0674C4.48703 3.30169 4.01895 3.64629 3.63937 4.07774C3.2598 4.50918 2.97765 5.01735 2.81212 5.56765C2.64659 6.11794 2.60157 6.69744 2.68013 7.26669C3.39045 12.8525 5.94151 18.0425 9.93034 22.0169C13.9192 25.9912 19.1184 28.5234 24.7068 29.2134H25.2135C26.1967 29.2148 27.146 28.8541 27.8801 28.2C28.302 27.8228 28.6389 27.3603 28.8688 26.8431C29.0986 26.326 29.2161 25.7659 29.2135 25.2V21.2C29.1971 20.2739 28.8599 19.3821 28.2593 18.6769C27.6586 17.9717 26.8319 17.4969 25.9201 17.3334ZM26.5868 25.3334C26.5866 25.5227 26.546 25.7098 26.4678 25.8822C26.3897 26.0546 26.2757 26.2084 26.1335 26.3334C25.9849 26.4627 25.8108 26.5592 25.6224 26.6167C25.434 26.6741 25.2356 26.6912 25.0401 26.6667C20.0467 26.0264 15.4084 23.742 11.8571 20.1737C8.30573 16.6055 6.04335 11.9565 5.4268 6.96003C5.40558 6.76472 5.42418 6.56713 5.48147 6.37922C5.53876 6.1913 5.63356 6.01694 5.76013 5.86669C5.88508 5.72447 6.03888 5.61048 6.21131 5.53232C6.38373 5.45415 6.57082 5.4136 6.76013 5.41336H10.7601C11.0702 5.40646 11.373 5.50787 11.6163 5.70012C11.8597 5.89238 12.0284 6.16345 12.0935 6.46669C12.1468 6.83114 12.2135 7.19114 12.2935 7.54669C12.4475 8.24955 12.6525 8.94027 12.9068 9.61336L11.0401 10.48C10.8805 10.5533 10.737 10.6573 10.6177 10.7862C10.4984 10.915 10.4057 11.0662 10.345 11.231C10.2843 11.3957 10.2568 11.5709 10.2639 11.7463C10.2711 11.9218 10.3129 12.0941 10.3868 12.2534C12.3057 16.3637 15.6098 19.6678 19.7201 21.5867C20.0447 21.7201 20.4089 21.7201 20.7335 21.5867C20.8998 21.5272 21.0526 21.4353 21.183 21.3163C21.3135 21.1973 21.419 21.0535 21.4935 20.8934L22.3201 19.0267C23.0094 19.2732 23.7129 19.478 24.4268 19.64C24.7824 19.72 25.1424 19.7867 25.5068 19.84C25.81 19.9051 26.0811 20.0738 26.2734 20.3172C26.4656 20.5605 26.567 20.8633 26.5601 21.1734L26.5868 25.3334Z" fill="white"/>
</svg>
