<svg width="32" height="32" viewBox="0 0 32 32" fill="none" xmlns="http://www.w3.org/2000/svg">
<path d="M10.6198 8.26935C10.372 8.23329 10.1193 8.28316 9.9038 8.41069H9.88513C9.38513 8.70402 8.93447 9.07335 8.55047 9.50802C8.23047 9.87735 8.05713 10.2507 8.0118 10.6107C7.98513 10.824 8.0038 11.04 8.06647 11.244L8.09047 11.2574C8.45047 12.3147 8.9198 13.332 9.49313 14.2894C10.2324 15.634 11.1421 16.8776 12.1998 17.9894L12.2318 18.0347L12.2825 18.072L12.3131 18.108L12.3505 18.14C13.4661 19.2009 14.7126 20.1149 16.0598 20.86C17.5998 21.6987 18.5345 22.0947 19.0958 22.26V22.268C19.2598 22.3187 19.4091 22.3414 19.5598 22.3414C20.0379 22.306 20.4903 22.1117 20.8451 21.7894C21.2785 21.4054 21.6451 20.9534 21.9305 20.4507V20.4414C22.1985 19.9347 22.1078 19.4574 21.7211 19.1334C20.9445 18.4547 20.1046 17.852 19.2131 17.3334C18.6158 17.0094 18.0091 17.2054 17.7638 17.5334L17.2398 18.1947C16.9705 18.5227 16.4825 18.4774 16.4825 18.4774L16.4691 18.4854C12.8278 17.556 11.8558 13.8694 11.8558 13.8694C11.8558 13.8694 11.8105 13.368 12.1478 13.112L12.8038 12.584C13.1185 12.328 13.3371 11.7227 12.9998 11.1254C12.4846 10.233 11.8831 9.39346 11.2038 8.61869C11.0556 8.43635 10.8479 8.31216 10.6171 8.26802L10.6198 8.26935ZM16.7731 6.66669C16.5963 6.66669 16.4268 6.73693 16.3017 6.86195C16.1767 6.98697 16.1065 7.15654 16.1065 7.33335C16.1065 7.51016 16.1767 7.67973 16.3017 7.80476C16.4268 7.92978 16.5963 8.00002 16.7731 8.00002C18.4585 8.00002 19.8585 8.55069 20.9665 9.60669C21.5358 10.184 21.9798 10.868 22.2705 11.6174C22.5625 12.368 22.6958 13.1694 22.6611 13.972C22.6537 14.1488 22.7168 14.3214 22.8366 14.4516C22.9564 14.5819 23.123 14.6593 23.2998 14.6667C23.4766 14.6741 23.6491 14.611 23.7794 14.4912C23.9097 14.3715 23.987 14.2048 23.9945 14.028C24.0358 13.0407 23.8719 12.0555 23.5131 11.1347C23.1528 10.2095 22.6064 9.36818 21.9078 8.66269L21.8945 8.64935C20.5198 7.33602 18.7811 6.66669 16.7731 6.66669Z" fill="white"/>
<path d="M16.7267 8.85869C16.5499 8.85869 16.3803 8.92893 16.2553 9.05396C16.1303 9.17898 16.0601 9.34855 16.0601 9.52536C16.0601 9.70217 16.1303 9.87174 16.2553 9.99677C16.3803 10.1218 16.5499 10.192 16.7267 10.192H16.7494C17.9654 10.2787 18.8507 10.684 19.4707 11.3494C20.1067 12.0347 20.4361 12.8867 20.4107 13.94C20.4067 14.1168 20.473 14.288 20.5951 14.4159C20.7173 14.5438 20.8852 14.618 21.0621 14.622C21.2389 14.6261 21.4101 14.5598 21.538 14.4376C21.6659 14.3155 21.74 14.1475 21.7441 13.9707C21.7761 12.588 21.3307 11.3947 20.4481 10.4427V10.44C19.5454 9.47203 18.3067 8.96003 16.8161 8.86003L16.7934 8.85736L16.7267 8.85869Z" fill="white"/>
<path d="M16.7013 11.092C16.6121 11.0841 16.5222 11.0943 16.437 11.1219C16.3518 11.1496 16.2731 11.1941 16.2055 11.2528C16.1379 11.3116 16.0828 11.3834 16.0435 11.4639C16.0043 11.5444 15.9816 11.632 15.977 11.7214C15.9723 11.8108 15.9857 11.9003 16.0164 11.9845C16.0471 12.0686 16.0944 12.1457 16.1555 12.2112C16.2167 12.2766 16.2904 12.3291 16.3722 12.3654C16.4541 12.4017 16.5425 12.4212 16.632 12.4227C17.1893 12.452 17.5453 12.62 17.7693 12.8453C17.9947 13.072 18.1627 13.436 18.1933 14.0053C18.195 14.0948 18.2147 14.183 18.2511 14.2647C18.2876 14.3464 18.3402 14.42 18.4057 14.4809C18.4712 14.5419 18.5483 14.589 18.6324 14.6196C18.7165 14.6501 18.8059 14.6634 18.8952 14.6587C18.9846 14.6539 19.0721 14.6312 19.1525 14.592C19.2329 14.5527 19.3046 14.4976 19.3632 14.4301C19.4219 14.3625 19.4664 14.2838 19.494 14.1987C19.5216 14.1136 19.5318 14.0238 19.524 13.9347C19.4813 13.1347 19.2307 12.428 18.7173 11.908C18.2013 11.388 17.4987 11.1347 16.7013 11.092Z" fill="white"/>
<path fill-rule="evenodd" clip-rule="evenodd" d="M9.4229 3.17864C13.6657 2.23025 18.0655 2.23025 22.3082 3.17864L22.7602 3.27864C24.0005 3.55591 25.1396 4.17161 26.051 5.05734C26.9624 5.94307 27.6103 7.06413 27.9229 8.29598C28.9998 12.5398 28.9998 16.9855 27.9229 21.2293C27.6103 22.4612 26.9624 23.5822 26.051 24.4679C25.1396 25.3537 24.0005 25.9694 22.7602 26.2466L22.3069 26.3466C19.6496 26.9409 16.9229 27.1648 14.2042 27.012L10.6669 30.1773C10.5335 30.2967 10.3706 30.3781 10.195 30.4131C10.0195 30.448 9.83774 30.4352 9.66883 30.3759C9.49992 30.3167 9.35001 30.2131 9.23475 30.0762C9.11949 29.9392 9.04311 29.7739 9.01357 29.5973L8.42824 26.1013C7.30581 25.7521 6.29171 25.1208 5.48286 24.2678C4.67401 23.4148 4.09743 22.3687 3.80823 21.2293C2.73124 16.9855 2.73124 12.5398 3.80823 8.29598C4.12079 7.06413 4.76876 5.94307 5.68015 5.05734C6.59153 4.17161 7.73064 3.55591 8.9709 3.27864L9.4229 3.17864ZM21.8722 5.12931C17.9166 4.24505 13.8145 4.24505 9.8589 5.12931L9.40557 5.23064C8.52653 5.42752 7.71926 5.86418 7.0734 6.49215C6.42755 7.12012 5.96838 7.91481 5.7469 8.78798C4.75185 12.7089 4.75185 16.8163 5.7469 20.7373C5.96849 21.6106 6.42785 22.4055 7.07396 23.0334C7.72006 23.6614 8.52762 24.098 9.4069 24.2946L9.5269 24.3213C9.72103 24.3647 9.89779 24.465 10.0346 24.6095C10.1714 24.7539 10.262 24.9358 10.2949 25.132L10.6869 27.476L13.1829 25.2426C13.2826 25.1532 13.3992 25.0847 13.5259 25.0412C13.6525 24.9976 13.7866 24.98 13.9202 24.9893C16.5856 25.1784 19.2644 24.9785 21.8722 24.396L22.3242 24.2946C23.2035 24.098 24.0111 23.6614 24.6572 23.0334C25.3033 22.4055 25.7626 21.6106 25.9842 20.7373C26.9789 16.8173 26.9789 12.7093 25.9842 8.78798C25.7626 7.91464 25.3033 7.11983 24.6572 6.49185C24.0111 5.86387 23.2035 5.4273 22.3242 5.23064L21.8722 5.12931Z" fill="white"/>
</svg>
