<svg width="32" height="32" viewBox="0 0 32 32" fill="none" xmlns="http://www.w3.org/2000/svg">
<g clip-path="url(#clip0_771_6075)">
<path d="M0.13375 15.8035C0.132875 18.5889 0.86625 21.308 2.2605 23.7048L0 31.8942L8.44637 29.6967C10.7736 30.9558 13.3939 31.6196 16.0601 31.6206H16.067C24.848 31.6206 31.9963 24.53 32 15.8162C32.0015 11.5932 30.3455 7.62208 27.3375 4.63479C24.3291 1.64788 20.3291 0.00173643 16.067 0C7.2845 0 0.13725 7.08961 0.13375 15.8035ZM5.16375 23.292L4.84837 22.7953C3.52262 20.7036 2.82288 18.2865 2.82387 15.8045C2.82675 8.56174 8.76725 2.66915 16.072 2.66915C19.6095 2.67064 22.934 4.03895 25.4345 6.52155C27.9349 9.0044 29.3108 12.3049 29.3099 15.8152C29.3066 23.058 23.366 28.9513 16.067 28.9513H16.0618C13.6851 28.9501 11.3542 28.3168 9.3215 27.12L8.83775 26.8353L3.8255 28.1393L5.16375 23.2919V23.292Z" fill="white"/>
<path d="M12.0849 9.19668C11.7867 8.53894 11.4728 8.52567 11.1892 8.51413C10.9569 8.50421 10.6914 8.50496 10.4262 8.50496C10.1607 8.50496 9.72932 8.60406 9.36469 8.9991C8.99969 9.39451 7.97119 10.35 7.97119 12.2935C7.97119 14.237 9.39782 16.1153 9.59669 16.3791C9.79582 16.6424 12.3508 20.7582 16.3973 22.3416C19.7603 23.6575 20.4447 23.3957 21.1746 23.3298C21.9046 23.264 23.5301 22.3745 23.8617 21.4521C24.1936 20.5298 24.1936 19.7392 24.0941 19.574C23.9946 19.4094 23.7291 19.3105 23.3309 19.1131C22.9327 18.9155 20.9754 17.9598 20.6106 17.828C20.2456 17.6963 19.9802 17.6305 19.7147 18.0261C19.4492 18.421 18.6868 19.3105 18.4544 19.574C18.2223 19.838 17.9899 19.8709 17.5919 19.6733C17.1936 19.4751 15.9114 19.0585 14.3903 17.7129C13.2068 16.6658 12.4078 15.3728 12.1756 14.9773C11.9433 14.5824 12.1507 14.3683 12.3503 14.1714C12.5292 13.9944 12.7486 13.7102 12.9478 13.4796C13.1463 13.2489 13.2126 13.0843 13.3453 12.8209C13.4782 12.5572 13.4117 12.3265 13.3123 12.1289C13.2126 11.9313 12.4389 9.9777 12.0849 9.19668Z" fill="white"/>
</g>
<defs>
<clipPath id="clip0_771_6075">
<rect width="32" height="32" fill="white"/>
</clipPath>
</defs>
</svg>
